%TF.GenerationSoftware,KiCad,Pcbnew,10.0.1*%
%TF.CreationDate,2026-07-13T12:29:38+01:00*%
%TF.ProjectId,Thin-Pod Gateway,5468696e-2d50-46f6-9420-476174657761,0.1*%
%TF.SameCoordinates,Original*%
%TF.FileFunction,Legend,Top*%
%TF.FilePolarity,Positive*%
%FSLAX46Y46*%
G04 Gerber Fmt 4.6, Leading zero omitted, Abs format (unit mm)*
G04 Created by KiCad (PCBNEW 10.0.1) date 2026-07-13 12:29:38*
%MOMM*%
%LPD*%
G01*
G04 APERTURE LIST*
%ADD10C,0.480000*%
%ADD11C,0.150000*%
%ADD12C,0.101600*%
%ADD13C,0.120000*%
%ADD14C,0.127000*%
%ADD15C,0.504000*%
G04 APERTURE END LIST*
D10*
X72444360Y-171553392D02*
X73358646Y-171553392D01*
X72787217Y-170753392D02*
X72787217Y-172810535D01*
X72787217Y-172810535D02*
X72901503Y-173039107D01*
X72901503Y-173039107D02*
X73130074Y-173153392D01*
X73130074Y-173153392D02*
X73358646Y-173153392D01*
X74158646Y-173153392D02*
X74158646Y-170753392D01*
X75187218Y-173153392D02*
X75187218Y-171896249D01*
X75187218Y-171896249D02*
X75072932Y-171667678D01*
X75072932Y-171667678D02*
X74844360Y-171553392D01*
X74844360Y-171553392D02*
X74501503Y-171553392D01*
X74501503Y-171553392D02*
X74272932Y-171667678D01*
X74272932Y-171667678D02*
X74158646Y-171781964D01*
X76330075Y-173153392D02*
X76330075Y-171553392D01*
X76330075Y-170753392D02*
X76215789Y-170867678D01*
X76215789Y-170867678D02*
X76330075Y-170981964D01*
X76330075Y-170981964D02*
X76444361Y-170867678D01*
X76444361Y-170867678D02*
X76330075Y-170753392D01*
X76330075Y-170753392D02*
X76330075Y-170981964D01*
X77472932Y-171553392D02*
X77472932Y-173153392D01*
X77472932Y-171781964D02*
X77587218Y-171667678D01*
X77587218Y-171667678D02*
X77815789Y-171553392D01*
X77815789Y-171553392D02*
X78158646Y-171553392D01*
X78158646Y-171553392D02*
X78387218Y-171667678D01*
X78387218Y-171667678D02*
X78501504Y-171896249D01*
X78501504Y-171896249D02*
X78501504Y-173153392D01*
X79644361Y-172239107D02*
X81472933Y-172239107D01*
X82615790Y-171553392D02*
X82615790Y-173953392D01*
X82615790Y-171667678D02*
X82844362Y-171553392D01*
X82844362Y-171553392D02*
X83301504Y-171553392D01*
X83301504Y-171553392D02*
X83530076Y-171667678D01*
X83530076Y-171667678D02*
X83644362Y-171781964D01*
X83644362Y-171781964D02*
X83758647Y-172010535D01*
X83758647Y-172010535D02*
X83758647Y-172696249D01*
X83758647Y-172696249D02*
X83644362Y-172924821D01*
X83644362Y-172924821D02*
X83530076Y-173039107D01*
X83530076Y-173039107D02*
X83301504Y-173153392D01*
X83301504Y-173153392D02*
X82844362Y-173153392D01*
X82844362Y-173153392D02*
X82615790Y-173039107D01*
X85130076Y-173153392D02*
X84901505Y-173039107D01*
X84901505Y-173039107D02*
X84787219Y-172924821D01*
X84787219Y-172924821D02*
X84672933Y-172696249D01*
X84672933Y-172696249D02*
X84672933Y-172010535D01*
X84672933Y-172010535D02*
X84787219Y-171781964D01*
X84787219Y-171781964D02*
X84901505Y-171667678D01*
X84901505Y-171667678D02*
X85130076Y-171553392D01*
X85130076Y-171553392D02*
X85472933Y-171553392D01*
X85472933Y-171553392D02*
X85701505Y-171667678D01*
X85701505Y-171667678D02*
X85815791Y-171781964D01*
X85815791Y-171781964D02*
X85930076Y-172010535D01*
X85930076Y-172010535D02*
X85930076Y-172696249D01*
X85930076Y-172696249D02*
X85815791Y-172924821D01*
X85815791Y-172924821D02*
X85701505Y-173039107D01*
X85701505Y-173039107D02*
X85472933Y-173153392D01*
X85472933Y-173153392D02*
X85130076Y-173153392D01*
X87987220Y-173153392D02*
X87987220Y-170753392D01*
X87987220Y-173039107D02*
X87758648Y-173153392D01*
X87758648Y-173153392D02*
X87301505Y-173153392D01*
X87301505Y-173153392D02*
X87072934Y-173039107D01*
X87072934Y-173039107D02*
X86958648Y-172924821D01*
X86958648Y-172924821D02*
X86844362Y-172696249D01*
X86844362Y-172696249D02*
X86844362Y-172010535D01*
X86844362Y-172010535D02*
X86958648Y-171781964D01*
X86958648Y-171781964D02*
X87072934Y-171667678D01*
X87072934Y-171667678D02*
X87301505Y-171553392D01*
X87301505Y-171553392D02*
X87758648Y-171553392D01*
X87758648Y-171553392D02*
X87987220Y-171667678D01*
X91987220Y-171553392D02*
X91987220Y-173496249D01*
X91987220Y-173496249D02*
X91872934Y-173724821D01*
X91872934Y-173724821D02*
X91758648Y-173839107D01*
X91758648Y-173839107D02*
X91530077Y-173953392D01*
X91530077Y-173953392D02*
X91187220Y-173953392D01*
X91187220Y-173953392D02*
X90958648Y-173839107D01*
X91987220Y-173039107D02*
X91758648Y-173153392D01*
X91758648Y-173153392D02*
X91301505Y-173153392D01*
X91301505Y-173153392D02*
X91072934Y-173039107D01*
X91072934Y-173039107D02*
X90958648Y-172924821D01*
X90958648Y-172924821D02*
X90844362Y-172696249D01*
X90844362Y-172696249D02*
X90844362Y-172010535D01*
X90844362Y-172010535D02*
X90958648Y-171781964D01*
X90958648Y-171781964D02*
X91072934Y-171667678D01*
X91072934Y-171667678D02*
X91301505Y-171553392D01*
X91301505Y-171553392D02*
X91758648Y-171553392D01*
X91758648Y-171553392D02*
X91987220Y-171667678D01*
X94158649Y-173153392D02*
X94158649Y-171896249D01*
X94158649Y-171896249D02*
X94044363Y-171667678D01*
X94044363Y-171667678D02*
X93815791Y-171553392D01*
X93815791Y-171553392D02*
X93358649Y-171553392D01*
X93358649Y-171553392D02*
X93130077Y-171667678D01*
X94158649Y-173039107D02*
X93930077Y-173153392D01*
X93930077Y-173153392D02*
X93358649Y-173153392D01*
X93358649Y-173153392D02*
X93130077Y-173039107D01*
X93130077Y-173039107D02*
X93015791Y-172810535D01*
X93015791Y-172810535D02*
X93015791Y-172581964D01*
X93015791Y-172581964D02*
X93130077Y-172353392D01*
X93130077Y-172353392D02*
X93358649Y-172239107D01*
X93358649Y-172239107D02*
X93930077Y-172239107D01*
X93930077Y-172239107D02*
X94158649Y-172124821D01*
X94958649Y-171553392D02*
X95872935Y-171553392D01*
X95301506Y-170753392D02*
X95301506Y-172810535D01*
X95301506Y-172810535D02*
X95415792Y-173039107D01*
X95415792Y-173039107D02*
X95644363Y-173153392D01*
X95644363Y-173153392D02*
X95872935Y-173153392D01*
X97587221Y-173039107D02*
X97358649Y-173153392D01*
X97358649Y-173153392D02*
X96901507Y-173153392D01*
X96901507Y-173153392D02*
X96672935Y-173039107D01*
X96672935Y-173039107D02*
X96558649Y-172810535D01*
X96558649Y-172810535D02*
X96558649Y-171896249D01*
X96558649Y-171896249D02*
X96672935Y-171667678D01*
X96672935Y-171667678D02*
X96901507Y-171553392D01*
X96901507Y-171553392D02*
X97358649Y-171553392D01*
X97358649Y-171553392D02*
X97587221Y-171667678D01*
X97587221Y-171667678D02*
X97701507Y-171896249D01*
X97701507Y-171896249D02*
X97701507Y-172124821D01*
X97701507Y-172124821D02*
X96558649Y-172353392D01*
X98501507Y-171553392D02*
X98958650Y-173153392D01*
X98958650Y-173153392D02*
X99415792Y-172010535D01*
X99415792Y-172010535D02*
X99872935Y-173153392D01*
X99872935Y-173153392D02*
X100330078Y-171553392D01*
X102272936Y-173153392D02*
X102272936Y-171896249D01*
X102272936Y-171896249D02*
X102158650Y-171667678D01*
X102158650Y-171667678D02*
X101930078Y-171553392D01*
X101930078Y-171553392D02*
X101472936Y-171553392D01*
X101472936Y-171553392D02*
X101244364Y-171667678D01*
X102272936Y-173039107D02*
X102044364Y-173153392D01*
X102044364Y-173153392D02*
X101472936Y-173153392D01*
X101472936Y-173153392D02*
X101244364Y-173039107D01*
X101244364Y-173039107D02*
X101130078Y-172810535D01*
X101130078Y-172810535D02*
X101130078Y-172581964D01*
X101130078Y-172581964D02*
X101244364Y-172353392D01*
X101244364Y-172353392D02*
X101472936Y-172239107D01*
X101472936Y-172239107D02*
X102044364Y-172239107D01*
X102044364Y-172239107D02*
X102272936Y-172124821D01*
X103187222Y-171553392D02*
X103758650Y-173153392D01*
X104330079Y-171553392D02*
X103758650Y-173153392D01*
X103758650Y-173153392D02*
X103530079Y-173724821D01*
X103530079Y-173724821D02*
X103415793Y-173839107D01*
X103415793Y-173839107D02*
X103187222Y-173953392D01*
X107072935Y-173153392D02*
X107072935Y-171553392D01*
X107072935Y-172010535D02*
X107187221Y-171781964D01*
X107187221Y-171781964D02*
X107301507Y-171667678D01*
X107301507Y-171667678D02*
X107530078Y-171553392D01*
X107530078Y-171553392D02*
X107758649Y-171553392D01*
X109472935Y-173039107D02*
X109244363Y-173153392D01*
X109244363Y-173153392D02*
X108787221Y-173153392D01*
X108787221Y-173153392D02*
X108558649Y-173039107D01*
X108558649Y-173039107D02*
X108444363Y-172810535D01*
X108444363Y-172810535D02*
X108444363Y-171896249D01*
X108444363Y-171896249D02*
X108558649Y-171667678D01*
X108558649Y-171667678D02*
X108787221Y-171553392D01*
X108787221Y-171553392D02*
X109244363Y-171553392D01*
X109244363Y-171553392D02*
X109472935Y-171667678D01*
X109472935Y-171667678D02*
X109587221Y-171896249D01*
X109587221Y-171896249D02*
X109587221Y-172124821D01*
X109587221Y-172124821D02*
X108444363Y-172353392D01*
X110387221Y-171553392D02*
X110958649Y-173153392D01*
X110958649Y-173153392D02*
X111530078Y-171553392D01*
X114730077Y-170753392D02*
X114958648Y-170753392D01*
X114958648Y-170753392D02*
X115187220Y-170867678D01*
X115187220Y-170867678D02*
X115301506Y-170981964D01*
X115301506Y-170981964D02*
X115415791Y-171210535D01*
X115415791Y-171210535D02*
X115530077Y-171667678D01*
X115530077Y-171667678D02*
X115530077Y-172239107D01*
X115530077Y-172239107D02*
X115415791Y-172696249D01*
X115415791Y-172696249D02*
X115301506Y-172924821D01*
X115301506Y-172924821D02*
X115187220Y-173039107D01*
X115187220Y-173039107D02*
X114958648Y-173153392D01*
X114958648Y-173153392D02*
X114730077Y-173153392D01*
X114730077Y-173153392D02*
X114501506Y-173039107D01*
X114501506Y-173039107D02*
X114387220Y-172924821D01*
X114387220Y-172924821D02*
X114272934Y-172696249D01*
X114272934Y-172696249D02*
X114158648Y-172239107D01*
X114158648Y-172239107D02*
X114158648Y-171667678D01*
X114158648Y-171667678D02*
X114272934Y-171210535D01*
X114272934Y-171210535D02*
X114387220Y-170981964D01*
X114387220Y-170981964D02*
X114501506Y-170867678D01*
X114501506Y-170867678D02*
X114730077Y-170753392D01*
X116558648Y-172924821D02*
X116672934Y-173039107D01*
X116672934Y-173039107D02*
X116558648Y-173153392D01*
X116558648Y-173153392D02*
X116444362Y-173039107D01*
X116444362Y-173039107D02*
X116558648Y-172924821D01*
X116558648Y-172924821D02*
X116558648Y-173153392D01*
X118958648Y-173153392D02*
X117587219Y-173153392D01*
X118272934Y-173153392D02*
X118272934Y-170753392D01*
X118272934Y-170753392D02*
X118044362Y-171096249D01*
X118044362Y-171096249D02*
X117815791Y-171324821D01*
X117815791Y-171324821D02*
X117587219Y-171439107D01*
X119644362Y-171553392D02*
X120558648Y-171553392D01*
X119987219Y-173153392D02*
X119987219Y-171096249D01*
X119987219Y-171096249D02*
X120101505Y-170867678D01*
X120101505Y-170867678D02*
X120330076Y-170753392D01*
X120330076Y-170753392D02*
X120558648Y-170753392D01*
X72787217Y-177017258D02*
X72787217Y-174617258D01*
X72787217Y-175531544D02*
X73015789Y-175417258D01*
X73015789Y-175417258D02*
X73472931Y-175417258D01*
X73472931Y-175417258D02*
X73701503Y-175531544D01*
X73701503Y-175531544D02*
X73815789Y-175645830D01*
X73815789Y-175645830D02*
X73930074Y-175874401D01*
X73930074Y-175874401D02*
X73930074Y-176560115D01*
X73930074Y-176560115D02*
X73815789Y-176788687D01*
X73815789Y-176788687D02*
X73701503Y-176902973D01*
X73701503Y-176902973D02*
X73472931Y-177017258D01*
X73472931Y-177017258D02*
X73015789Y-177017258D01*
X73015789Y-177017258D02*
X72787217Y-176902973D01*
X74730075Y-175417258D02*
X75301503Y-177017258D01*
X75872932Y-175417258D02*
X75301503Y-177017258D01*
X75301503Y-177017258D02*
X75072932Y-177588687D01*
X75072932Y-177588687D02*
X74958646Y-177702973D01*
X74958646Y-177702973D02*
X74730075Y-177817258D01*
X78615788Y-175417258D02*
X78615788Y-177817258D01*
X78615788Y-175531544D02*
X78844360Y-175417258D01*
X78844360Y-175417258D02*
X79301502Y-175417258D01*
X79301502Y-175417258D02*
X79530074Y-175531544D01*
X79530074Y-175531544D02*
X79644360Y-175645830D01*
X79644360Y-175645830D02*
X79758645Y-175874401D01*
X79758645Y-175874401D02*
X79758645Y-176560115D01*
X79758645Y-176560115D02*
X79644360Y-176788687D01*
X79644360Y-176788687D02*
X79530074Y-176902973D01*
X79530074Y-176902973D02*
X79301502Y-177017258D01*
X79301502Y-177017258D02*
X78844360Y-177017258D01*
X78844360Y-177017258D02*
X78615788Y-176902973D01*
X81701503Y-176902973D02*
X81472931Y-177017258D01*
X81472931Y-177017258D02*
X81015789Y-177017258D01*
X81015789Y-177017258D02*
X80787217Y-176902973D01*
X80787217Y-176902973D02*
X80672931Y-176674401D01*
X80672931Y-176674401D02*
X80672931Y-175760115D01*
X80672931Y-175760115D02*
X80787217Y-175531544D01*
X80787217Y-175531544D02*
X81015789Y-175417258D01*
X81015789Y-175417258D02*
X81472931Y-175417258D01*
X81472931Y-175417258D02*
X81701503Y-175531544D01*
X81701503Y-175531544D02*
X81815789Y-175760115D01*
X81815789Y-175760115D02*
X81815789Y-175988687D01*
X81815789Y-175988687D02*
X80672931Y-176217258D01*
X83872932Y-177017258D02*
X83872932Y-175760115D01*
X83872932Y-175760115D02*
X83758646Y-175531544D01*
X83758646Y-175531544D02*
X83530074Y-175417258D01*
X83530074Y-175417258D02*
X83072932Y-175417258D01*
X83072932Y-175417258D02*
X82844360Y-175531544D01*
X83872932Y-176902973D02*
X83644360Y-177017258D01*
X83644360Y-177017258D02*
X83072932Y-177017258D01*
X83072932Y-177017258D02*
X82844360Y-176902973D01*
X82844360Y-176902973D02*
X82730074Y-176674401D01*
X82730074Y-176674401D02*
X82730074Y-176445830D01*
X82730074Y-176445830D02*
X82844360Y-176217258D01*
X82844360Y-176217258D02*
X83072932Y-176102973D01*
X83072932Y-176102973D02*
X83644360Y-176102973D01*
X83644360Y-176102973D02*
X83872932Y-175988687D01*
X85358646Y-177017258D02*
X85130075Y-176902973D01*
X85130075Y-176902973D02*
X85015789Y-176674401D01*
X85015789Y-176674401D02*
X85015789Y-174617258D01*
X86272932Y-177017258D02*
X86272932Y-175417258D01*
X86272932Y-174617258D02*
X86158646Y-174731544D01*
X86158646Y-174731544D02*
X86272932Y-174845830D01*
X86272932Y-174845830D02*
X86387218Y-174731544D01*
X86387218Y-174731544D02*
X86272932Y-174617258D01*
X86272932Y-174617258D02*
X86272932Y-174845830D01*
X88330075Y-176902973D02*
X88101503Y-177017258D01*
X88101503Y-177017258D02*
X87644361Y-177017258D01*
X87644361Y-177017258D02*
X87415789Y-176902973D01*
X87415789Y-176902973D02*
X87301503Y-176674401D01*
X87301503Y-176674401D02*
X87301503Y-175760115D01*
X87301503Y-175760115D02*
X87415789Y-175531544D01*
X87415789Y-175531544D02*
X87644361Y-175417258D01*
X87644361Y-175417258D02*
X88101503Y-175417258D01*
X88101503Y-175417258D02*
X88330075Y-175531544D01*
X88330075Y-175531544D02*
X88444361Y-175760115D01*
X88444361Y-175760115D02*
X88444361Y-175988687D01*
X88444361Y-175988687D02*
X87301503Y-176217258D01*
D11*
X163763095Y-88389819D02*
X163763095Y-89199342D01*
X163763095Y-89199342D02*
X163810714Y-89294580D01*
X163810714Y-89294580D02*
X163858333Y-89342200D01*
X163858333Y-89342200D02*
X163953571Y-89389819D01*
X163953571Y-89389819D02*
X164144047Y-89389819D01*
X164144047Y-89389819D02*
X164239285Y-89342200D01*
X164239285Y-89342200D02*
X164286904Y-89294580D01*
X164286904Y-89294580D02*
X164334523Y-89199342D01*
X164334523Y-89199342D02*
X164334523Y-88389819D01*
X165334523Y-89389819D02*
X164763095Y-89389819D01*
X165048809Y-89389819D02*
X165048809Y-88389819D01*
X165048809Y-88389819D02*
X164953571Y-88532676D01*
X164953571Y-88532676D02*
X164858333Y-88627914D01*
X164858333Y-88627914D02*
X164763095Y-88675533D01*
X119738095Y-104806819D02*
X120309523Y-104806819D01*
X120023809Y-105806819D02*
X120023809Y-104806819D01*
X120642857Y-105806819D02*
X120642857Y-104806819D01*
X120642857Y-104806819D02*
X121023809Y-104806819D01*
X121023809Y-104806819D02*
X121119047Y-104854438D01*
X121119047Y-104854438D02*
X121166666Y-104902057D01*
X121166666Y-104902057D02*
X121214285Y-104997295D01*
X121214285Y-104997295D02*
X121214285Y-105140152D01*
X121214285Y-105140152D02*
X121166666Y-105235390D01*
X121166666Y-105235390D02*
X121119047Y-105283009D01*
X121119047Y-105283009D02*
X121023809Y-105330628D01*
X121023809Y-105330628D02*
X120642857Y-105330628D01*
X122071428Y-104806819D02*
X121880952Y-104806819D01*
X121880952Y-104806819D02*
X121785714Y-104854438D01*
X121785714Y-104854438D02*
X121738095Y-104902057D01*
X121738095Y-104902057D02*
X121642857Y-105044914D01*
X121642857Y-105044914D02*
X121595238Y-105235390D01*
X121595238Y-105235390D02*
X121595238Y-105616342D01*
X121595238Y-105616342D02*
X121642857Y-105711580D01*
X121642857Y-105711580D02*
X121690476Y-105759200D01*
X121690476Y-105759200D02*
X121785714Y-105806819D01*
X121785714Y-105806819D02*
X121976190Y-105806819D01*
X121976190Y-105806819D02*
X122071428Y-105759200D01*
X122071428Y-105759200D02*
X122119047Y-105711580D01*
X122119047Y-105711580D02*
X122166666Y-105616342D01*
X122166666Y-105616342D02*
X122166666Y-105378247D01*
X122166666Y-105378247D02*
X122119047Y-105283009D01*
X122119047Y-105283009D02*
X122071428Y-105235390D01*
X122071428Y-105235390D02*
X121976190Y-105187771D01*
X121976190Y-105187771D02*
X121785714Y-105187771D01*
X121785714Y-105187771D02*
X121690476Y-105235390D01*
X121690476Y-105235390D02*
X121642857Y-105283009D01*
X121642857Y-105283009D02*
X121595238Y-105378247D01*
X113738095Y-117806819D02*
X114309523Y-117806819D01*
X114023809Y-118806819D02*
X114023809Y-117806819D01*
X114642857Y-118806819D02*
X114642857Y-117806819D01*
X114642857Y-117806819D02*
X115023809Y-117806819D01*
X115023809Y-117806819D02*
X115119047Y-117854438D01*
X115119047Y-117854438D02*
X115166666Y-117902057D01*
X115166666Y-117902057D02*
X115214285Y-117997295D01*
X115214285Y-117997295D02*
X115214285Y-118140152D01*
X115214285Y-118140152D02*
X115166666Y-118235390D01*
X115166666Y-118235390D02*
X115119047Y-118283009D01*
X115119047Y-118283009D02*
X115023809Y-118330628D01*
X115023809Y-118330628D02*
X114642857Y-118330628D01*
X116166666Y-118806819D02*
X115595238Y-118806819D01*
X115880952Y-118806819D02*
X115880952Y-117806819D01*
X115880952Y-117806819D02*
X115785714Y-117949676D01*
X115785714Y-117949676D02*
X115690476Y-118044914D01*
X115690476Y-118044914D02*
X115595238Y-118092533D01*
X113738095Y-198806819D02*
X114309523Y-198806819D01*
X114023809Y-199806819D02*
X114023809Y-198806819D01*
X114642857Y-199806819D02*
X114642857Y-198806819D01*
X114642857Y-198806819D02*
X115023809Y-198806819D01*
X115023809Y-198806819D02*
X115119047Y-198854438D01*
X115119047Y-198854438D02*
X115166666Y-198902057D01*
X115166666Y-198902057D02*
X115214285Y-198997295D01*
X115214285Y-198997295D02*
X115214285Y-199140152D01*
X115214285Y-199140152D02*
X115166666Y-199235390D01*
X115166666Y-199235390D02*
X115119047Y-199283009D01*
X115119047Y-199283009D02*
X115023809Y-199330628D01*
X115023809Y-199330628D02*
X114642857Y-199330628D01*
X116071428Y-199140152D02*
X116071428Y-199806819D01*
X115833333Y-198759200D02*
X115595238Y-199473485D01*
X115595238Y-199473485D02*
X116214285Y-199473485D01*
X108261905Y-183456819D02*
X108833333Y-183456819D01*
X108547619Y-184456819D02*
X108547619Y-183456819D01*
X109166667Y-184456819D02*
X109166667Y-183456819D01*
X109166667Y-183456819D02*
X109547619Y-183456819D01*
X109547619Y-183456819D02*
X109642857Y-183504438D01*
X109642857Y-183504438D02*
X109690476Y-183552057D01*
X109690476Y-183552057D02*
X109738095Y-183647295D01*
X109738095Y-183647295D02*
X109738095Y-183790152D01*
X109738095Y-183790152D02*
X109690476Y-183885390D01*
X109690476Y-183885390D02*
X109642857Y-183933009D01*
X109642857Y-183933009D02*
X109547619Y-183980628D01*
X109547619Y-183980628D02*
X109166667Y-183980628D01*
X110690476Y-184456819D02*
X110119048Y-184456819D01*
X110404762Y-184456819D02*
X110404762Y-183456819D01*
X110404762Y-183456819D02*
X110309524Y-183599676D01*
X110309524Y-183599676D02*
X110214286Y-183694914D01*
X110214286Y-183694914D02*
X110119048Y-183742533D01*
X111309524Y-183456819D02*
X111404762Y-183456819D01*
X111404762Y-183456819D02*
X111500000Y-183504438D01*
X111500000Y-183504438D02*
X111547619Y-183552057D01*
X111547619Y-183552057D02*
X111595238Y-183647295D01*
X111595238Y-183647295D02*
X111642857Y-183837771D01*
X111642857Y-183837771D02*
X111642857Y-184075866D01*
X111642857Y-184075866D02*
X111595238Y-184266342D01*
X111595238Y-184266342D02*
X111547619Y-184361580D01*
X111547619Y-184361580D02*
X111500000Y-184409200D01*
X111500000Y-184409200D02*
X111404762Y-184456819D01*
X111404762Y-184456819D02*
X111309524Y-184456819D01*
X111309524Y-184456819D02*
X111214286Y-184409200D01*
X111214286Y-184409200D02*
X111166667Y-184361580D01*
X111166667Y-184361580D02*
X111119048Y-184266342D01*
X111119048Y-184266342D02*
X111071429Y-184075866D01*
X111071429Y-184075866D02*
X111071429Y-183837771D01*
X111071429Y-183837771D02*
X111119048Y-183647295D01*
X111119048Y-183647295D02*
X111166667Y-183552057D01*
X111166667Y-183552057D02*
X111214286Y-183504438D01*
X111214286Y-183504438D02*
X111309524Y-183456819D01*
X115738095Y-136806819D02*
X116309523Y-136806819D01*
X116023809Y-137806819D02*
X116023809Y-136806819D01*
X116642857Y-137806819D02*
X116642857Y-136806819D01*
X116642857Y-136806819D02*
X117023809Y-136806819D01*
X117023809Y-136806819D02*
X117119047Y-136854438D01*
X117119047Y-136854438D02*
X117166666Y-136902057D01*
X117166666Y-136902057D02*
X117214285Y-136997295D01*
X117214285Y-136997295D02*
X117214285Y-137140152D01*
X117214285Y-137140152D02*
X117166666Y-137235390D01*
X117166666Y-137235390D02*
X117119047Y-137283009D01*
X117119047Y-137283009D02*
X117023809Y-137330628D01*
X117023809Y-137330628D02*
X116642857Y-137330628D01*
X117547619Y-136806819D02*
X118214285Y-136806819D01*
X118214285Y-136806819D02*
X117785714Y-137806819D01*
X101261905Y-183456819D02*
X101833333Y-183456819D01*
X101547619Y-184456819D02*
X101547619Y-183456819D01*
X102166667Y-184456819D02*
X102166667Y-183456819D01*
X102166667Y-183456819D02*
X102547619Y-183456819D01*
X102547619Y-183456819D02*
X102642857Y-183504438D01*
X102642857Y-183504438D02*
X102690476Y-183552057D01*
X102690476Y-183552057D02*
X102738095Y-183647295D01*
X102738095Y-183647295D02*
X102738095Y-183790152D01*
X102738095Y-183790152D02*
X102690476Y-183885390D01*
X102690476Y-183885390D02*
X102642857Y-183933009D01*
X102642857Y-183933009D02*
X102547619Y-183980628D01*
X102547619Y-183980628D02*
X102166667Y-183980628D01*
X103690476Y-184456819D02*
X103119048Y-184456819D01*
X103404762Y-184456819D02*
X103404762Y-183456819D01*
X103404762Y-183456819D02*
X103309524Y-183599676D01*
X103309524Y-183599676D02*
X103214286Y-183694914D01*
X103214286Y-183694914D02*
X103119048Y-183742533D01*
X104642857Y-184456819D02*
X104071429Y-184456819D01*
X104357143Y-184456819D02*
X104357143Y-183456819D01*
X104357143Y-183456819D02*
X104261905Y-183599676D01*
X104261905Y-183599676D02*
X104166667Y-183694914D01*
X104166667Y-183694914D02*
X104071429Y-183742533D01*
X80261905Y-149456819D02*
X80833333Y-149456819D01*
X80547619Y-150456819D02*
X80547619Y-149456819D01*
X81166667Y-150456819D02*
X81166667Y-149456819D01*
X81166667Y-149456819D02*
X81547619Y-149456819D01*
X81547619Y-149456819D02*
X81642857Y-149504438D01*
X81642857Y-149504438D02*
X81690476Y-149552057D01*
X81690476Y-149552057D02*
X81738095Y-149647295D01*
X81738095Y-149647295D02*
X81738095Y-149790152D01*
X81738095Y-149790152D02*
X81690476Y-149885390D01*
X81690476Y-149885390D02*
X81642857Y-149933009D01*
X81642857Y-149933009D02*
X81547619Y-149980628D01*
X81547619Y-149980628D02*
X81166667Y-149980628D01*
X82690476Y-150456819D02*
X82119048Y-150456819D01*
X82404762Y-150456819D02*
X82404762Y-149456819D01*
X82404762Y-149456819D02*
X82309524Y-149599676D01*
X82309524Y-149599676D02*
X82214286Y-149694914D01*
X82214286Y-149694914D02*
X82119048Y-149742533D01*
X83071429Y-149552057D02*
X83119048Y-149504438D01*
X83119048Y-149504438D02*
X83214286Y-149456819D01*
X83214286Y-149456819D02*
X83452381Y-149456819D01*
X83452381Y-149456819D02*
X83547619Y-149504438D01*
X83547619Y-149504438D02*
X83595238Y-149552057D01*
X83595238Y-149552057D02*
X83642857Y-149647295D01*
X83642857Y-149647295D02*
X83642857Y-149742533D01*
X83642857Y-149742533D02*
X83595238Y-149885390D01*
X83595238Y-149885390D02*
X83023810Y-150456819D01*
X83023810Y-150456819D02*
X83642857Y-150456819D01*
X117333333Y-146859580D02*
X117285714Y-146907200D01*
X117285714Y-146907200D02*
X117142857Y-146954819D01*
X117142857Y-146954819D02*
X117047619Y-146954819D01*
X117047619Y-146954819D02*
X116904762Y-146907200D01*
X116904762Y-146907200D02*
X116809524Y-146811961D01*
X116809524Y-146811961D02*
X116761905Y-146716723D01*
X116761905Y-146716723D02*
X116714286Y-146526247D01*
X116714286Y-146526247D02*
X116714286Y-146383390D01*
X116714286Y-146383390D02*
X116761905Y-146192914D01*
X116761905Y-146192914D02*
X116809524Y-146097676D01*
X116809524Y-146097676D02*
X116904762Y-146002438D01*
X116904762Y-146002438D02*
X117047619Y-145954819D01*
X117047619Y-145954819D02*
X117142857Y-145954819D01*
X117142857Y-145954819D02*
X117285714Y-146002438D01*
X117285714Y-146002438D02*
X117333333Y-146050057D01*
X118285714Y-146954819D02*
X117714286Y-146954819D01*
X118000000Y-146954819D02*
X118000000Y-145954819D01*
X118000000Y-145954819D02*
X117904762Y-146097676D01*
X117904762Y-146097676D02*
X117809524Y-146192914D01*
X117809524Y-146192914D02*
X117714286Y-146240533D01*
X210763095Y-219129819D02*
X210763095Y-218129819D01*
X210763095Y-218606009D02*
X211334523Y-218606009D01*
X211334523Y-219129819D02*
X211334523Y-218129819D01*
X212239285Y-218463152D02*
X212239285Y-219129819D01*
X212001190Y-218082200D02*
X211763095Y-218796485D01*
X211763095Y-218796485D02*
X212382142Y-218796485D01*
X71738095Y-183806819D02*
X72309523Y-183806819D01*
X72023809Y-184806819D02*
X72023809Y-183806819D01*
X72642857Y-184806819D02*
X72642857Y-183806819D01*
X72642857Y-183806819D02*
X73023809Y-183806819D01*
X73023809Y-183806819D02*
X73119047Y-183854438D01*
X73119047Y-183854438D02*
X73166666Y-183902057D01*
X73166666Y-183902057D02*
X73214285Y-183997295D01*
X73214285Y-183997295D02*
X73214285Y-184140152D01*
X73214285Y-184140152D02*
X73166666Y-184235390D01*
X73166666Y-184235390D02*
X73119047Y-184283009D01*
X73119047Y-184283009D02*
X73023809Y-184330628D01*
X73023809Y-184330628D02*
X72642857Y-184330628D01*
X73595238Y-183902057D02*
X73642857Y-183854438D01*
X73642857Y-183854438D02*
X73738095Y-183806819D01*
X73738095Y-183806819D02*
X73976190Y-183806819D01*
X73976190Y-183806819D02*
X74071428Y-183854438D01*
X74071428Y-183854438D02*
X74119047Y-183902057D01*
X74119047Y-183902057D02*
X74166666Y-183997295D01*
X74166666Y-183997295D02*
X74166666Y-184092533D01*
X74166666Y-184092533D02*
X74119047Y-184235390D01*
X74119047Y-184235390D02*
X73547619Y-184806819D01*
X73547619Y-184806819D02*
X74166666Y-184806819D01*
X105833333Y-214859580D02*
X105785714Y-214907200D01*
X105785714Y-214907200D02*
X105642857Y-214954819D01*
X105642857Y-214954819D02*
X105547619Y-214954819D01*
X105547619Y-214954819D02*
X105404762Y-214907200D01*
X105404762Y-214907200D02*
X105309524Y-214811961D01*
X105309524Y-214811961D02*
X105261905Y-214716723D01*
X105261905Y-214716723D02*
X105214286Y-214526247D01*
X105214286Y-214526247D02*
X105214286Y-214383390D01*
X105214286Y-214383390D02*
X105261905Y-214192914D01*
X105261905Y-214192914D02*
X105309524Y-214097676D01*
X105309524Y-214097676D02*
X105404762Y-214002438D01*
X105404762Y-214002438D02*
X105547619Y-213954819D01*
X105547619Y-213954819D02*
X105642857Y-213954819D01*
X105642857Y-213954819D02*
X105785714Y-214002438D01*
X105785714Y-214002438D02*
X105833333Y-214050057D01*
X106166667Y-213954819D02*
X106785714Y-213954819D01*
X106785714Y-213954819D02*
X106452381Y-214335771D01*
X106452381Y-214335771D02*
X106595238Y-214335771D01*
X106595238Y-214335771D02*
X106690476Y-214383390D01*
X106690476Y-214383390D02*
X106738095Y-214431009D01*
X106738095Y-214431009D02*
X106785714Y-214526247D01*
X106785714Y-214526247D02*
X106785714Y-214764342D01*
X106785714Y-214764342D02*
X106738095Y-214859580D01*
X106738095Y-214859580D02*
X106690476Y-214907200D01*
X106690476Y-214907200D02*
X106595238Y-214954819D01*
X106595238Y-214954819D02*
X106309524Y-214954819D01*
X106309524Y-214954819D02*
X106214286Y-214907200D01*
X106214286Y-214907200D02*
X106166667Y-214859580D01*
X99738095Y-218806819D02*
X100309523Y-218806819D01*
X100023809Y-219806819D02*
X100023809Y-218806819D01*
X100642857Y-219806819D02*
X100642857Y-218806819D01*
X100642857Y-218806819D02*
X101023809Y-218806819D01*
X101023809Y-218806819D02*
X101119047Y-218854438D01*
X101119047Y-218854438D02*
X101166666Y-218902057D01*
X101166666Y-218902057D02*
X101214285Y-218997295D01*
X101214285Y-218997295D02*
X101214285Y-219140152D01*
X101214285Y-219140152D02*
X101166666Y-219235390D01*
X101166666Y-219235390D02*
X101119047Y-219283009D01*
X101119047Y-219283009D02*
X101023809Y-219330628D01*
X101023809Y-219330628D02*
X100642857Y-219330628D01*
X101690476Y-219806819D02*
X101880952Y-219806819D01*
X101880952Y-219806819D02*
X101976190Y-219759200D01*
X101976190Y-219759200D02*
X102023809Y-219711580D01*
X102023809Y-219711580D02*
X102119047Y-219568723D01*
X102119047Y-219568723D02*
X102166666Y-219378247D01*
X102166666Y-219378247D02*
X102166666Y-218997295D01*
X102166666Y-218997295D02*
X102119047Y-218902057D01*
X102119047Y-218902057D02*
X102071428Y-218854438D01*
X102071428Y-218854438D02*
X101976190Y-218806819D01*
X101976190Y-218806819D02*
X101785714Y-218806819D01*
X101785714Y-218806819D02*
X101690476Y-218854438D01*
X101690476Y-218854438D02*
X101642857Y-218902057D01*
X101642857Y-218902057D02*
X101595238Y-218997295D01*
X101595238Y-218997295D02*
X101595238Y-219235390D01*
X101595238Y-219235390D02*
X101642857Y-219330628D01*
X101642857Y-219330628D02*
X101690476Y-219378247D01*
X101690476Y-219378247D02*
X101785714Y-219425866D01*
X101785714Y-219425866D02*
X101976190Y-219425866D01*
X101976190Y-219425866D02*
X102071428Y-219378247D01*
X102071428Y-219378247D02*
X102119047Y-219330628D01*
X102119047Y-219330628D02*
X102166666Y-219235390D01*
X91238095Y-142454819D02*
X91238095Y-143264342D01*
X91238095Y-143264342D02*
X91285714Y-143359580D01*
X91285714Y-143359580D02*
X91333333Y-143407200D01*
X91333333Y-143407200D02*
X91428571Y-143454819D01*
X91428571Y-143454819D02*
X91619047Y-143454819D01*
X91619047Y-143454819D02*
X91714285Y-143407200D01*
X91714285Y-143407200D02*
X91761904Y-143359580D01*
X91761904Y-143359580D02*
X91809523Y-143264342D01*
X91809523Y-143264342D02*
X91809523Y-142454819D01*
X92238095Y-142550057D02*
X92285714Y-142502438D01*
X92285714Y-142502438D02*
X92380952Y-142454819D01*
X92380952Y-142454819D02*
X92619047Y-142454819D01*
X92619047Y-142454819D02*
X92714285Y-142502438D01*
X92714285Y-142502438D02*
X92761904Y-142550057D01*
X92761904Y-142550057D02*
X92809523Y-142645295D01*
X92809523Y-142645295D02*
X92809523Y-142740533D01*
X92809523Y-142740533D02*
X92761904Y-142883390D01*
X92761904Y-142883390D02*
X92190476Y-143454819D01*
X92190476Y-143454819D02*
X92809523Y-143454819D01*
X208238095Y-93304819D02*
X208238095Y-92304819D01*
X208238095Y-92781009D02*
X208809523Y-92781009D01*
X208809523Y-93304819D02*
X208809523Y-92304819D01*
X209238095Y-92400057D02*
X209285714Y-92352438D01*
X209285714Y-92352438D02*
X209380952Y-92304819D01*
X209380952Y-92304819D02*
X209619047Y-92304819D01*
X209619047Y-92304819D02*
X209714285Y-92352438D01*
X209714285Y-92352438D02*
X209761904Y-92400057D01*
X209761904Y-92400057D02*
X209809523Y-92495295D01*
X209809523Y-92495295D02*
X209809523Y-92590533D01*
X209809523Y-92590533D02*
X209761904Y-92733390D01*
X209761904Y-92733390D02*
X209190476Y-93304819D01*
X209190476Y-93304819D02*
X209809523Y-93304819D01*
X117333333Y-152859580D02*
X117285714Y-152907200D01*
X117285714Y-152907200D02*
X117142857Y-152954819D01*
X117142857Y-152954819D02*
X117047619Y-152954819D01*
X117047619Y-152954819D02*
X116904762Y-152907200D01*
X116904762Y-152907200D02*
X116809524Y-152811961D01*
X116809524Y-152811961D02*
X116761905Y-152716723D01*
X116761905Y-152716723D02*
X116714286Y-152526247D01*
X116714286Y-152526247D02*
X116714286Y-152383390D01*
X116714286Y-152383390D02*
X116761905Y-152192914D01*
X116761905Y-152192914D02*
X116809524Y-152097676D01*
X116809524Y-152097676D02*
X116904762Y-152002438D01*
X116904762Y-152002438D02*
X117047619Y-151954819D01*
X117047619Y-151954819D02*
X117142857Y-151954819D01*
X117142857Y-151954819D02*
X117285714Y-152002438D01*
X117285714Y-152002438D02*
X117333333Y-152050057D01*
X117714286Y-152050057D02*
X117761905Y-152002438D01*
X117761905Y-152002438D02*
X117857143Y-151954819D01*
X117857143Y-151954819D02*
X118095238Y-151954819D01*
X118095238Y-151954819D02*
X118190476Y-152002438D01*
X118190476Y-152002438D02*
X118238095Y-152050057D01*
X118238095Y-152050057D02*
X118285714Y-152145295D01*
X118285714Y-152145295D02*
X118285714Y-152240533D01*
X118285714Y-152240533D02*
X118238095Y-152383390D01*
X118238095Y-152383390D02*
X117666667Y-152954819D01*
X117666667Y-152954819D02*
X118285714Y-152954819D01*
X121833333Y-214859580D02*
X121785714Y-214907200D01*
X121785714Y-214907200D02*
X121642857Y-214954819D01*
X121642857Y-214954819D02*
X121547619Y-214954819D01*
X121547619Y-214954819D02*
X121404762Y-214907200D01*
X121404762Y-214907200D02*
X121309524Y-214811961D01*
X121309524Y-214811961D02*
X121261905Y-214716723D01*
X121261905Y-214716723D02*
X121214286Y-214526247D01*
X121214286Y-214526247D02*
X121214286Y-214383390D01*
X121214286Y-214383390D02*
X121261905Y-214192914D01*
X121261905Y-214192914D02*
X121309524Y-214097676D01*
X121309524Y-214097676D02*
X121404762Y-214002438D01*
X121404762Y-214002438D02*
X121547619Y-213954819D01*
X121547619Y-213954819D02*
X121642857Y-213954819D01*
X121642857Y-213954819D02*
X121785714Y-214002438D01*
X121785714Y-214002438D02*
X121833333Y-214050057D01*
X122738095Y-213954819D02*
X122261905Y-213954819D01*
X122261905Y-213954819D02*
X122214286Y-214431009D01*
X122214286Y-214431009D02*
X122261905Y-214383390D01*
X122261905Y-214383390D02*
X122357143Y-214335771D01*
X122357143Y-214335771D02*
X122595238Y-214335771D01*
X122595238Y-214335771D02*
X122690476Y-214383390D01*
X122690476Y-214383390D02*
X122738095Y-214431009D01*
X122738095Y-214431009D02*
X122785714Y-214526247D01*
X122785714Y-214526247D02*
X122785714Y-214764342D01*
X122785714Y-214764342D02*
X122738095Y-214859580D01*
X122738095Y-214859580D02*
X122690476Y-214907200D01*
X122690476Y-214907200D02*
X122595238Y-214954819D01*
X122595238Y-214954819D02*
X122357143Y-214954819D01*
X122357143Y-214954819D02*
X122261905Y-214907200D01*
X122261905Y-214907200D02*
X122214286Y-214859580D01*
X106833333Y-206084819D02*
X106500000Y-205608628D01*
X106261905Y-206084819D02*
X106261905Y-205084819D01*
X106261905Y-205084819D02*
X106642857Y-205084819D01*
X106642857Y-205084819D02*
X106738095Y-205132438D01*
X106738095Y-205132438D02*
X106785714Y-205180057D01*
X106785714Y-205180057D02*
X106833333Y-205275295D01*
X106833333Y-205275295D02*
X106833333Y-205418152D01*
X106833333Y-205418152D02*
X106785714Y-205513390D01*
X106785714Y-205513390D02*
X106738095Y-205561009D01*
X106738095Y-205561009D02*
X106642857Y-205608628D01*
X106642857Y-205608628D02*
X106261905Y-205608628D01*
X107214286Y-205180057D02*
X107261905Y-205132438D01*
X107261905Y-205132438D02*
X107357143Y-205084819D01*
X107357143Y-205084819D02*
X107595238Y-205084819D01*
X107595238Y-205084819D02*
X107690476Y-205132438D01*
X107690476Y-205132438D02*
X107738095Y-205180057D01*
X107738095Y-205180057D02*
X107785714Y-205275295D01*
X107785714Y-205275295D02*
X107785714Y-205370533D01*
X107785714Y-205370533D02*
X107738095Y-205513390D01*
X107738095Y-205513390D02*
X107166667Y-206084819D01*
X107166667Y-206084819D02*
X107785714Y-206084819D01*
D12*
X87516190Y-200511073D02*
X87516190Y-201239644D01*
X87516190Y-201239644D02*
X87546428Y-201325358D01*
X87546428Y-201325358D02*
X87576666Y-201368216D01*
X87576666Y-201368216D02*
X87637142Y-201411073D01*
X87637142Y-201411073D02*
X87758095Y-201411073D01*
X87758095Y-201411073D02*
X87818571Y-201368216D01*
X87818571Y-201368216D02*
X87848809Y-201325358D01*
X87848809Y-201325358D02*
X87879047Y-201239644D01*
X87879047Y-201239644D02*
X87879047Y-200511073D01*
X88120952Y-200511073D02*
X88514047Y-200511073D01*
X88514047Y-200511073D02*
X88302380Y-200853930D01*
X88302380Y-200853930D02*
X88393095Y-200853930D01*
X88393095Y-200853930D02*
X88453571Y-200896787D01*
X88453571Y-200896787D02*
X88483809Y-200939644D01*
X88483809Y-200939644D02*
X88514047Y-201025358D01*
X88514047Y-201025358D02*
X88514047Y-201239644D01*
X88514047Y-201239644D02*
X88483809Y-201325358D01*
X88483809Y-201325358D02*
X88453571Y-201368216D01*
X88453571Y-201368216D02*
X88393095Y-201411073D01*
X88393095Y-201411073D02*
X88211666Y-201411073D01*
X88211666Y-201411073D02*
X88151190Y-201368216D01*
X88151190Y-201368216D02*
X88120952Y-201325358D01*
D11*
X60238095Y-216304819D02*
X60238095Y-215304819D01*
X60238095Y-215781009D02*
X60809523Y-215781009D01*
X60809523Y-216304819D02*
X60809523Y-215304819D01*
X61190476Y-215304819D02*
X61809523Y-215304819D01*
X61809523Y-215304819D02*
X61476190Y-215685771D01*
X61476190Y-215685771D02*
X61619047Y-215685771D01*
X61619047Y-215685771D02*
X61714285Y-215733390D01*
X61714285Y-215733390D02*
X61761904Y-215781009D01*
X61761904Y-215781009D02*
X61809523Y-215876247D01*
X61809523Y-215876247D02*
X61809523Y-216114342D01*
X61809523Y-216114342D02*
X61761904Y-216209580D01*
X61761904Y-216209580D02*
X61714285Y-216257200D01*
X61714285Y-216257200D02*
X61619047Y-216304819D01*
X61619047Y-216304819D02*
X61333333Y-216304819D01*
X61333333Y-216304819D02*
X61238095Y-216257200D01*
X61238095Y-216257200D02*
X61190476Y-216209580D01*
X117261905Y-95806819D02*
X117833333Y-95806819D01*
X117547619Y-96806819D02*
X117547619Y-95806819D01*
X118166667Y-96806819D02*
X118166667Y-95806819D01*
X118166667Y-95806819D02*
X118547619Y-95806819D01*
X118547619Y-95806819D02*
X118642857Y-95854438D01*
X118642857Y-95854438D02*
X118690476Y-95902057D01*
X118690476Y-95902057D02*
X118738095Y-95997295D01*
X118738095Y-95997295D02*
X118738095Y-96140152D01*
X118738095Y-96140152D02*
X118690476Y-96235390D01*
X118690476Y-96235390D02*
X118642857Y-96283009D01*
X118642857Y-96283009D02*
X118547619Y-96330628D01*
X118547619Y-96330628D02*
X118166667Y-96330628D01*
X119690476Y-96806819D02*
X119119048Y-96806819D01*
X119404762Y-96806819D02*
X119404762Y-95806819D01*
X119404762Y-95806819D02*
X119309524Y-95949676D01*
X119309524Y-95949676D02*
X119214286Y-96044914D01*
X119214286Y-96044914D02*
X119119048Y-96092533D01*
X120023810Y-95806819D02*
X120642857Y-95806819D01*
X120642857Y-95806819D02*
X120309524Y-96187771D01*
X120309524Y-96187771D02*
X120452381Y-96187771D01*
X120452381Y-96187771D02*
X120547619Y-96235390D01*
X120547619Y-96235390D02*
X120595238Y-96283009D01*
X120595238Y-96283009D02*
X120642857Y-96378247D01*
X120642857Y-96378247D02*
X120642857Y-96616342D01*
X120642857Y-96616342D02*
X120595238Y-96711580D01*
X120595238Y-96711580D02*
X120547619Y-96759200D01*
X120547619Y-96759200D02*
X120452381Y-96806819D01*
X120452381Y-96806819D02*
X120166667Y-96806819D01*
X120166667Y-96806819D02*
X120071429Y-96759200D01*
X120071429Y-96759200D02*
X120023810Y-96711580D01*
X69738095Y-216806819D02*
X70309523Y-216806819D01*
X70023809Y-217806819D02*
X70023809Y-216806819D01*
X70642857Y-217806819D02*
X70642857Y-216806819D01*
X70642857Y-216806819D02*
X71023809Y-216806819D01*
X71023809Y-216806819D02*
X71119047Y-216854438D01*
X71119047Y-216854438D02*
X71166666Y-216902057D01*
X71166666Y-216902057D02*
X71214285Y-216997295D01*
X71214285Y-216997295D02*
X71214285Y-217140152D01*
X71214285Y-217140152D02*
X71166666Y-217235390D01*
X71166666Y-217235390D02*
X71119047Y-217283009D01*
X71119047Y-217283009D02*
X71023809Y-217330628D01*
X71023809Y-217330628D02*
X70642857Y-217330628D01*
X71547619Y-216806819D02*
X72166666Y-216806819D01*
X72166666Y-216806819D02*
X71833333Y-217187771D01*
X71833333Y-217187771D02*
X71976190Y-217187771D01*
X71976190Y-217187771D02*
X72071428Y-217235390D01*
X72071428Y-217235390D02*
X72119047Y-217283009D01*
X72119047Y-217283009D02*
X72166666Y-217378247D01*
X72166666Y-217378247D02*
X72166666Y-217616342D01*
X72166666Y-217616342D02*
X72119047Y-217711580D01*
X72119047Y-217711580D02*
X72071428Y-217759200D01*
X72071428Y-217759200D02*
X71976190Y-217806819D01*
X71976190Y-217806819D02*
X71690476Y-217806819D01*
X71690476Y-217806819D02*
X71595238Y-217759200D01*
X71595238Y-217759200D02*
X71547619Y-217711580D01*
X118833333Y-125084819D02*
X118500000Y-124608628D01*
X118261905Y-125084819D02*
X118261905Y-124084819D01*
X118261905Y-124084819D02*
X118642857Y-124084819D01*
X118642857Y-124084819D02*
X118738095Y-124132438D01*
X118738095Y-124132438D02*
X118785714Y-124180057D01*
X118785714Y-124180057D02*
X118833333Y-124275295D01*
X118833333Y-124275295D02*
X118833333Y-124418152D01*
X118833333Y-124418152D02*
X118785714Y-124513390D01*
X118785714Y-124513390D02*
X118738095Y-124561009D01*
X118738095Y-124561009D02*
X118642857Y-124608628D01*
X118642857Y-124608628D02*
X118261905Y-124608628D01*
X119785714Y-125084819D02*
X119214286Y-125084819D01*
X119500000Y-125084819D02*
X119500000Y-124084819D01*
X119500000Y-124084819D02*
X119404762Y-124227676D01*
X119404762Y-124227676D02*
X119309524Y-124322914D01*
X119309524Y-124322914D02*
X119214286Y-124370533D01*
X99738095Y-198806819D02*
X100309523Y-198806819D01*
X100023809Y-199806819D02*
X100023809Y-198806819D01*
X100642857Y-199806819D02*
X100642857Y-198806819D01*
X100642857Y-198806819D02*
X101023809Y-198806819D01*
X101023809Y-198806819D02*
X101119047Y-198854438D01*
X101119047Y-198854438D02*
X101166666Y-198902057D01*
X101166666Y-198902057D02*
X101214285Y-198997295D01*
X101214285Y-198997295D02*
X101214285Y-199140152D01*
X101214285Y-199140152D02*
X101166666Y-199235390D01*
X101166666Y-199235390D02*
X101119047Y-199283009D01*
X101119047Y-199283009D02*
X101023809Y-199330628D01*
X101023809Y-199330628D02*
X100642857Y-199330628D01*
X101785714Y-199235390D02*
X101690476Y-199187771D01*
X101690476Y-199187771D02*
X101642857Y-199140152D01*
X101642857Y-199140152D02*
X101595238Y-199044914D01*
X101595238Y-199044914D02*
X101595238Y-198997295D01*
X101595238Y-198997295D02*
X101642857Y-198902057D01*
X101642857Y-198902057D02*
X101690476Y-198854438D01*
X101690476Y-198854438D02*
X101785714Y-198806819D01*
X101785714Y-198806819D02*
X101976190Y-198806819D01*
X101976190Y-198806819D02*
X102071428Y-198854438D01*
X102071428Y-198854438D02*
X102119047Y-198902057D01*
X102119047Y-198902057D02*
X102166666Y-198997295D01*
X102166666Y-198997295D02*
X102166666Y-199044914D01*
X102166666Y-199044914D02*
X102119047Y-199140152D01*
X102119047Y-199140152D02*
X102071428Y-199187771D01*
X102071428Y-199187771D02*
X101976190Y-199235390D01*
X101976190Y-199235390D02*
X101785714Y-199235390D01*
X101785714Y-199235390D02*
X101690476Y-199283009D01*
X101690476Y-199283009D02*
X101642857Y-199330628D01*
X101642857Y-199330628D02*
X101595238Y-199425866D01*
X101595238Y-199425866D02*
X101595238Y-199616342D01*
X101595238Y-199616342D02*
X101642857Y-199711580D01*
X101642857Y-199711580D02*
X101690476Y-199759200D01*
X101690476Y-199759200D02*
X101785714Y-199806819D01*
X101785714Y-199806819D02*
X101976190Y-199806819D01*
X101976190Y-199806819D02*
X102071428Y-199759200D01*
X102071428Y-199759200D02*
X102119047Y-199711580D01*
X102119047Y-199711580D02*
X102166666Y-199616342D01*
X102166666Y-199616342D02*
X102166666Y-199425866D01*
X102166666Y-199425866D02*
X102119047Y-199330628D01*
X102119047Y-199330628D02*
X102071428Y-199283009D01*
X102071428Y-199283009D02*
X101976190Y-199235390D01*
X113833333Y-214859580D02*
X113785714Y-214907200D01*
X113785714Y-214907200D02*
X113642857Y-214954819D01*
X113642857Y-214954819D02*
X113547619Y-214954819D01*
X113547619Y-214954819D02*
X113404762Y-214907200D01*
X113404762Y-214907200D02*
X113309524Y-214811961D01*
X113309524Y-214811961D02*
X113261905Y-214716723D01*
X113261905Y-214716723D02*
X113214286Y-214526247D01*
X113214286Y-214526247D02*
X113214286Y-214383390D01*
X113214286Y-214383390D02*
X113261905Y-214192914D01*
X113261905Y-214192914D02*
X113309524Y-214097676D01*
X113309524Y-214097676D02*
X113404762Y-214002438D01*
X113404762Y-214002438D02*
X113547619Y-213954819D01*
X113547619Y-213954819D02*
X113642857Y-213954819D01*
X113642857Y-213954819D02*
X113785714Y-214002438D01*
X113785714Y-214002438D02*
X113833333Y-214050057D01*
X114690476Y-214288152D02*
X114690476Y-214954819D01*
X114452381Y-213907200D02*
X114214286Y-214621485D01*
X114214286Y-214621485D02*
X114833333Y-214621485D01*
X113738095Y-100806819D02*
X114309523Y-100806819D01*
X114023809Y-101806819D02*
X114023809Y-100806819D01*
X114642857Y-101806819D02*
X114642857Y-100806819D01*
X114642857Y-100806819D02*
X115023809Y-100806819D01*
X115023809Y-100806819D02*
X115119047Y-100854438D01*
X115119047Y-100854438D02*
X115166666Y-100902057D01*
X115166666Y-100902057D02*
X115214285Y-100997295D01*
X115214285Y-100997295D02*
X115214285Y-101140152D01*
X115214285Y-101140152D02*
X115166666Y-101235390D01*
X115166666Y-101235390D02*
X115119047Y-101283009D01*
X115119047Y-101283009D02*
X115023809Y-101330628D01*
X115023809Y-101330628D02*
X114642857Y-101330628D01*
X116119047Y-100806819D02*
X115642857Y-100806819D01*
X115642857Y-100806819D02*
X115595238Y-101283009D01*
X115595238Y-101283009D02*
X115642857Y-101235390D01*
X115642857Y-101235390D02*
X115738095Y-101187771D01*
X115738095Y-101187771D02*
X115976190Y-101187771D01*
X115976190Y-101187771D02*
X116071428Y-101235390D01*
X116071428Y-101235390D02*
X116119047Y-101283009D01*
X116119047Y-101283009D02*
X116166666Y-101378247D01*
X116166666Y-101378247D02*
X116166666Y-101616342D01*
X116166666Y-101616342D02*
X116119047Y-101711580D01*
X116119047Y-101711580D02*
X116071428Y-101759200D01*
X116071428Y-101759200D02*
X115976190Y-101806819D01*
X115976190Y-101806819D02*
X115738095Y-101806819D01*
X115738095Y-101806819D02*
X115642857Y-101759200D01*
X115642857Y-101759200D02*
X115595238Y-101711580D01*
X59238095Y-93304819D02*
X59238095Y-92304819D01*
X59238095Y-92781009D02*
X59809523Y-92781009D01*
X59809523Y-93304819D02*
X59809523Y-92304819D01*
X60809523Y-93304819D02*
X60238095Y-93304819D01*
X60523809Y-93304819D02*
X60523809Y-92304819D01*
X60523809Y-92304819D02*
X60428571Y-92447676D01*
X60428571Y-92447676D02*
X60333333Y-92542914D01*
X60333333Y-92542914D02*
X60238095Y-92590533D01*
%TO.C,U1*%
D13*
X129425000Y-91325000D02*
X129425000Y-224125000D01*
X141415000Y-224525000D02*
X129825000Y-224525000D01*
X141415000Y-224525000D02*
X141415000Y-226035000D01*
X141415000Y-226035000D02*
X149635000Y-226035000D01*
X149635000Y-226035000D02*
X149635000Y-224515000D01*
X166815000Y-224525000D02*
X149635000Y-224515000D01*
X166815000Y-226975000D02*
X166815000Y-224525000D01*
X174415000Y-89415000D02*
X182635000Y-89415000D01*
X174415000Y-90925000D02*
X129825000Y-90925000D01*
X174415000Y-90925000D02*
X174415000Y-89415000D01*
X181035000Y-224525000D02*
X181035000Y-226975000D01*
X181035000Y-224525000D02*
X199225000Y-224525000D01*
X181035000Y-226975000D02*
X166815000Y-226975000D01*
X182635000Y-89415000D02*
X182635000Y-90925000D01*
X182635000Y-90925000D02*
X199225000Y-90925000D01*
X199625000Y-224125000D02*
X199625000Y-91325000D01*
X129425000Y-91325000D02*
G75*
G02*
X129825000Y-90925000I399999J1D01*
G01*
X129825000Y-224525000D02*
G75*
G02*
X129425000Y-224125000I-1J399999D01*
G01*
X199225000Y-90925000D02*
G75*
G02*
X199625000Y-91325000I0J-400000D01*
G01*
X199625000Y-224125000D02*
G75*
G02*
X199225000Y-224525000I-400000J0D01*
G01*
%TO.C,TP6*%
X120050000Y-106050000D02*
X121950000Y-106050000D01*
X120050000Y-107950000D02*
X120050000Y-106050000D01*
X121950000Y-106050000D02*
X121950000Y-107950000D01*
X121950000Y-107950000D02*
X120050000Y-107950000D01*
%TO.C,TP1*%
X114050000Y-119050000D02*
X115950000Y-119050000D01*
X114050000Y-120950000D02*
X114050000Y-119050000D01*
X115950000Y-119050000D02*
X115950000Y-120950000D01*
X115950000Y-120950000D02*
X114050000Y-120950000D01*
%TO.C,TP4*%
X114050000Y-200050000D02*
X115950000Y-200050000D01*
X114050000Y-201950000D02*
X114050000Y-200050000D01*
X115950000Y-200050000D02*
X115950000Y-201950000D01*
X115950000Y-201950000D02*
X114050000Y-201950000D01*
%TO.C,TP10*%
X108800000Y-184800000D02*
X111200000Y-184800000D01*
X108800000Y-187200000D02*
X108800000Y-184800000D01*
X111200000Y-184800000D02*
X111200000Y-187200000D01*
X111200000Y-187200000D02*
X108800000Y-187200000D01*
%TO.C,TP7*%
X116050000Y-138050000D02*
X117950000Y-138050000D01*
X116050000Y-139950000D02*
X116050000Y-138050000D01*
X117950000Y-138050000D02*
X117950000Y-139950000D01*
X117950000Y-139950000D02*
X116050000Y-139950000D01*
%TO.C,TP11*%
X101800000Y-184800000D02*
X104200000Y-184800000D01*
X101800000Y-187200000D02*
X101800000Y-184800000D01*
X104200000Y-184800000D02*
X104200000Y-187200000D01*
X104200000Y-187200000D02*
X101800000Y-187200000D01*
%TO.C,TP12*%
X80800000Y-150800000D02*
X83200000Y-150800000D01*
X80800000Y-153200000D02*
X80800000Y-150800000D01*
X83200000Y-150800000D02*
X83200000Y-153200000D01*
X83200000Y-153200000D02*
X80800000Y-153200000D01*
%TO.C,C1*%
X114880000Y-147630000D02*
X120120000Y-147630000D01*
X114880000Y-147967000D02*
X114880000Y-147630000D01*
X114880000Y-150370000D02*
X114880000Y-150033000D01*
X120120000Y-147630000D02*
X120120000Y-147967000D01*
X120120000Y-150033000D02*
X120120000Y-150370000D01*
X120120000Y-150370000D02*
X114880000Y-150370000D01*
%TO.C,TP2*%
X72050000Y-185050000D02*
X73950000Y-185050000D01*
X72050000Y-186950000D02*
X72050000Y-185050000D01*
X73950000Y-185050000D02*
X73950000Y-186950000D01*
X73950000Y-186950000D02*
X72050000Y-186950000D01*
%TO.C,C3*%
X103380000Y-215630000D02*
X108620000Y-215630000D01*
X103380000Y-215967000D02*
X103380000Y-215630000D01*
X103380000Y-218370000D02*
X103380000Y-218033000D01*
X108620000Y-215630000D02*
X108620000Y-215967000D01*
X108620000Y-218033000D02*
X108620000Y-218370000D01*
X108620000Y-218370000D02*
X103380000Y-218370000D01*
%TO.C,TP9*%
X100050000Y-220050000D02*
X101950000Y-220050000D01*
X100050000Y-221950000D02*
X100050000Y-220050000D01*
X101950000Y-220050000D02*
X101950000Y-221950000D01*
X101950000Y-221950000D02*
X100050000Y-221950000D01*
%TO.C,U2*%
D14*
X68650000Y-86490000D02*
X68650000Y-140490000D01*
X68650000Y-140490000D02*
X111650000Y-140490000D01*
X76650000Y-132490000D02*
X77650000Y-132490000D01*
X77150000Y-129490000D02*
X77150000Y-130490000D01*
X77150000Y-131990000D02*
X77150000Y-132990000D01*
X111650000Y-86490000D02*
X68650000Y-86490000D01*
X111650000Y-140490000D02*
X111650000Y-86490000D01*
%TO.C,C2*%
D13*
X114880000Y-153630000D02*
X120120000Y-153630000D01*
X114880000Y-153967000D02*
X114880000Y-153630000D01*
X114880000Y-156370000D02*
X114880000Y-156033000D01*
X120120000Y-153630000D02*
X120120000Y-153967000D01*
X120120000Y-156033000D02*
X120120000Y-156370000D01*
X120120000Y-156370000D02*
X114880000Y-156370000D01*
%TO.C,C5*%
X119380000Y-215630000D02*
X124620000Y-215630000D01*
X119380000Y-215967000D02*
X119380000Y-215630000D01*
X119380000Y-218370000D02*
X119380000Y-218033000D01*
X124620000Y-215630000D02*
X124620000Y-215967000D01*
X124620000Y-218033000D02*
X124620000Y-218370000D01*
X124620000Y-218370000D02*
X119380000Y-218370000D01*
%TO.C,R2*%
X103730000Y-206630000D02*
X110270000Y-206630000D01*
X103730000Y-206960000D02*
X103730000Y-206630000D01*
X103730000Y-209040000D02*
X103730000Y-209370000D01*
X103730000Y-209370000D02*
X110270000Y-209370000D01*
X110270000Y-206630000D02*
X110270000Y-206960000D01*
X110270000Y-209370000D02*
X110270000Y-209040000D01*
%TO.C,U3*%
D14*
X78080000Y-205111000D02*
X78080000Y-222256000D01*
X81095000Y-224161000D02*
X95065000Y-224161000D01*
X83576000Y-225171000D02*
X83576000Y-224161000D01*
X92071270Y-225671000D02*
X84076000Y-225671000D01*
X92575000Y-224161000D02*
X92571270Y-225171300D01*
X95065000Y-203206000D02*
X81095000Y-203206000D01*
X98080000Y-205111000D02*
X98080000Y-222256000D01*
D15*
X96139000Y-223040000D02*
G75*
G02*
X95635000Y-223040000I-252000J0D01*
G01*
X95635000Y-223040000D02*
G75*
G02*
X96139000Y-223040000I252000J0D01*
G01*
X97282000Y-223920000D02*
G75*
G02*
X96778000Y-223920000I-252000J0D01*
G01*
X96778000Y-223920000D02*
G75*
G02*
X97282000Y-223920000I252000J0D01*
G01*
%TO.C,TP13*%
D13*
X118050000Y-97050000D02*
X119950000Y-97050000D01*
X118050000Y-98950000D02*
X118050000Y-97050000D01*
X119950000Y-97050000D02*
X119950000Y-98950000D01*
X119950000Y-98950000D02*
X118050000Y-98950000D01*
%TO.C,TP3*%
X70050000Y-218050000D02*
X71950000Y-218050000D01*
X70050000Y-219950000D02*
X70050000Y-218050000D01*
X71950000Y-218050000D02*
X71950000Y-219950000D01*
X71950000Y-219950000D02*
X70050000Y-219950000D01*
%TO.C,R1*%
X115730000Y-125630000D02*
X122270000Y-125630000D01*
X115730000Y-125960000D02*
X115730000Y-125630000D01*
X115730000Y-128040000D02*
X115730000Y-128370000D01*
X115730000Y-128370000D02*
X122270000Y-128370000D01*
X122270000Y-125630000D02*
X122270000Y-125960000D01*
X122270000Y-128370000D02*
X122270000Y-128040000D01*
%TO.C,TP8*%
X100050000Y-200050000D02*
X101950000Y-200050000D01*
X100050000Y-201950000D02*
X100050000Y-200050000D01*
X101950000Y-200050000D02*
X101950000Y-201950000D01*
X101950000Y-201950000D02*
X100050000Y-201950000D01*
%TO.C,C4*%
X111380000Y-215630000D02*
X116620000Y-215630000D01*
X111380000Y-215967000D02*
X111380000Y-215630000D01*
X111380000Y-218370000D02*
X111380000Y-218033000D01*
X116620000Y-215630000D02*
X116620000Y-215967000D01*
X116620000Y-218033000D02*
X116620000Y-218370000D01*
X116620000Y-218370000D02*
X111380000Y-218370000D01*
%TO.C,TP5*%
X114050000Y-102050000D02*
X115950000Y-102050000D01*
X114050000Y-103950000D02*
X114050000Y-102050000D01*
X115950000Y-102050000D02*
X115950000Y-103950000D01*
X115950000Y-103950000D02*
X114050000Y-103950000D01*
%TD*%
M02*
