%TF.GenerationSoftware,KiCad,Pcbnew,10.0.1*%
%TF.CreationDate,2026-07-13T12:29:38+01:00*%
%TF.ProjectId,Thin-Pod Gateway,5468696e-2d50-46f6-9420-476174657761,0.1*%
%TF.SameCoordinates,Original*%
%TF.FileFunction,Copper,L1,Top*%
%TF.FilePolarity,Positive*%
%FSLAX46Y46*%
G04 Gerber Fmt 4.6, Leading zero omitted, Abs format (unit mm)*
G04 Created by KiCad (PCBNEW 10.0.1) date 2026-07-13 12:29:38*
%MOMM*%
%LPD*%
G01*
G04 APERTURE LIST*
G04 Aperture macros list*
%AMRoundRect*
0 Rectangle with rounded corners*
0 $1 Rounding radius*
0 $2 $3 $4 $5 $6 $7 $8 $9 X,Y pos of 4 corners*
0 Add a 4 corners polygon primitive as box body*
4,1,4,$2,$3,$4,$5,$6,$7,$8,$9,$2,$3,0*
0 Add four circle primitives for the rounded corners*
1,1,$1+$1,$2,$3*
1,1,$1+$1,$4,$5*
1,1,$1+$1,$6,$7*
1,1,$1+$1,$8,$9*
0 Add four rect primitives between the rounded corners*
20,1,$1+$1,$2,$3,$4,$5,0*
20,1,$1+$1,$4,$5,$6,$7,0*
20,1,$1+$1,$6,$7,$8,$9,0*
20,1,$1+$1,$8,$9,$2,$3,0*%
G04 Aperture macros list end*
%TA.AperFunction,Conductor*%
%ADD10C,0.200000*%
%TD*%
%TA.AperFunction,ComponentPad*%
%ADD11C,1.700000*%
%TD*%
%TA.AperFunction,ComponentPad*%
%ADD12R,1.500000X1.500000*%
%TD*%
%TA.AperFunction,ComponentPad*%
%ADD13R,2.000000X2.000000*%
%TD*%
%TA.AperFunction,ComponentPad*%
%ADD14C,1.600000*%
%TD*%
%TA.AperFunction,ComponentPad*%
%ADD15C,1.524000*%
%TD*%
%TA.AperFunction,ComponentPad*%
%ADD16C,5.000000*%
%TD*%
%TA.AperFunction,SMDPad,CuDef*%
%ADD17RoundRect,0.152400X-1.063600X-0.609600X1.063600X-0.609600X1.063600X0.609600X-1.063600X0.609600X0*%
%TD*%
%TA.AperFunction,SMDPad,CuDef*%
%ADD18RoundRect,0.152400X1.063600X0.609600X-1.063600X0.609600X-1.063600X-0.609600X1.063600X-0.609600X0*%
%TD*%
%TA.AperFunction,ViaPad*%
%ADD19C,0.600000*%
%TD*%
G04 APERTURE END LIST*
%TO.N,/SPI5_MOSI*%
D10*
X86000000Y-198000000D02*
X85000000Y-199000000D01*
X93000000Y-198000000D02*
X86000000Y-198000000D01*
X107000000Y-122000000D02*
X98000000Y-122000000D01*
%TO.N,/C6_INT*%
X191000000Y-122000000D02*
X193000000Y-120000000D01*
X191000000Y-126000000D02*
X191000000Y-122000000D01*
X193000000Y-120000000D02*
X196000000Y-120000000D01*
X194000000Y-128000000D02*
X191000000Y-126000000D01*
%TD*%
D11*
%TO.P,U1,1,CN3.01_NC_1*%
%TO.N,GND*%
X132775000Y-122765000D03*
%TO.P,U1,2,CN3.02_OTG1_HSDM_CON_2*%
X135315000Y-122765000D03*
%TO.P,U1,3,CN3.03_PC2_3*%
%TO.N,unconnected-(U1-CN3.03_PC2-Pad3)*%
X132775000Y-125305000D03*
%TO.P,U1,4,CN3.04_OTG1_HSDP_CON_4*%
%TO.N,unconnected-(U1-CN3.04_OTG1_HSDP_CON-Pad4)*%
X135315000Y-125305000D03*
%TO.P,U1,5,CN3.05_VDDIO_5*%
%TO.N,unconnected-(U1-CN3.05_VDDIO-Pad5)*%
X132775000Y-127845000D03*
%TO.P,U1,6,CN3.06_5V_6*%
%TO.N,/5V_GATEWAY*%
X135315000Y-127845000D03*
%TO.P,U1,7,CN3.07_BOOT0_7*%
%TO.N,unconnected-(U1-CN3.07_BOOT0-Pad7)*%
X132775000Y-130385000D03*
%TO.P,U1,8,CN3.08_GND_8*%
%TO.N,GND*%
X135315000Y-130385000D03*
%TO.P,U1,9,CN3.09_PH0_9*%
%TO.N,unconnected-(U1-CN3.09_PH0-Pad9)*%
X132775000Y-132925000D03*
%TO.P,U1,10,CN3.10_VDDIO4_10*%
%TO.N,unconnected-(U1-CN3.10_VDDIO4-Pad10)*%
X135315000Y-132925000D03*
%TO.P,U1,11,CN3.11_PH1_11*%
%TO.N,unconnected-(U1-CN3.11_PH1-Pad11)*%
X132775000Y-135465000D03*
%TO.P,U1,12,CN3.12_IOREF_12*%
%TO.N,unconnected-(U1-CN3.12_IOREF-Pad12)*%
X135315000Y-135465000D03*
%TO.P,U1,13,CN3.13_PC4_13*%
%TO.N,unconnected-(U1-CN3.13_PC4-Pad13)*%
X132775000Y-138005000D03*
%TO.P,U1,14,CN3.14_NRST_14*%
%TO.N,unconnected-(U1-CN3.14_NRST-Pad14)*%
X135315000Y-138005000D03*
%TO.P,U1,15,CN3.15_PC5_15*%
%TO.N,unconnected-(U1-CN3.15_PC5-Pad15)*%
X132775000Y-140545000D03*
%TO.P,U1,16,CN3.16_3V3_16*%
%TO.N,/3V3_GATEWAY*%
X135315000Y-140545000D03*
%TO.P,U1,17,CN3.17_PC0_17*%
%TO.N,unconnected-(U1-CN3.17_PC0-Pad17)*%
X132775000Y-143085000D03*
%TO.P,U1,18,CN3.18_5V_18*%
%TO.N,unconnected-(U1-CN3.18_5V-Pad18)*%
X135315000Y-143085000D03*
%TO.P,U1,19,CN3.19_GND_19*%
%TO.N,GND*%
X132775000Y-145625000D03*
%TO.P,U1,20,CN3.20_GND_20*%
X135315000Y-145625000D03*
%TO.P,U1,21,CN3.21_PE4_21*%
%TO.N,unconnected-(U1-CN3.21_PE4-Pad21)*%
X132775000Y-148165000D03*
%TO.P,U1,22,CN3.22_GND_22*%
%TO.N,GND*%
X135315000Y-148165000D03*
%TO.P,U1,23,CN3.23_PC13_23*%
%TO.N,unconnected-(U1-CN3.23_PC13-Pad23)*%
X132775000Y-150705000D03*
%TO.P,U1,24,CN3.24_VIN_24*%
%TO.N,unconnected-(U1-CN3.24_VIN-Pad24)*%
X135315000Y-150705000D03*
%TO.P,U1,25,CN3.25_PC3_25*%
%TO.N,unconnected-(U1-CN3.25_PC3-Pad25)*%
X132775000Y-153245000D03*
%TO.P,U1,26,CN3.26_PH4_26*%
%TO.N,unconnected-(U1-CN3.26_PH4-Pad26)*%
X135315000Y-153245000D03*
%TO.P,U1,27,CN3.27_PC15_27*%
%TO.N,unconnected-(U1-CN3.27_PC15-Pad27)*%
X132775000Y-155785000D03*
%TO.P,U1,28,CN3.28_PF5_28*%
%TO.N,unconnected-(U1-CN3.28_PF5-Pad28)*%
X135315000Y-155785000D03*
%TO.P,U1,29,CN3.29_PC14_29*%
%TO.N,unconnected-(U1-CN3.29_PC14-Pad29)*%
X132775000Y-158325000D03*
%TO.P,U1,30,CN3.30_PC10_30*%
%TO.N,unconnected-(U1-CN3.30_PC10-Pad30)*%
X135315000Y-158325000D03*
%TO.P,U1,31,CN3.31_VDDIO5_31*%
%TO.N,unconnected-(U1-CN3.31_VDDIO5-Pad31)*%
X132775000Y-160865000D03*
%TO.P,U1,32,CN3.32_PF6_32*%
%TO.N,unconnected-(U1-CN3.32_PF6-Pad32)*%
X135315000Y-160865000D03*
%TO.P,U1,33,CN3.33_VBAT_33*%
%TO.N,unconnected-(U1-CN3.33_VBAT-Pad33)*%
X132775000Y-163405000D03*
%TO.P,U1,34,CN3.34_PA2_34*%
%TO.N,unconnected-(U1-CN3.34_PA2-Pad34)*%
X135315000Y-163405000D03*
%TO.P,U1,35,CN3.35_BOOT1_35*%
%TO.N,unconnected-(U1-CN3.35_BOOT1-Pad35)*%
X132775000Y-165945000D03*
%TO.P,U1,36,CN3.36_PC12_36*%
%TO.N,unconnected-(U1-CN3.36_PC12-Pad36)*%
X135315000Y-165945000D03*
%TO.P,U1,37,CN3.37_PC8_37*%
%TO.N,unconnected-(U1-CN3.37_PC8-Pad37)*%
X132775000Y-168485000D03*
%TO.P,U1,38,CN3.38_PH2_38*%
%TO.N,unconnected-(U1-CN3.38_PH2-Pad38)*%
X135315000Y-168485000D03*
%TO.P,U1,39,CN2.01_PF8_39*%
%TO.N,unconnected-(U1-CN2.01_PF8-Pad39)*%
X132775000Y-171025000D03*
%TO.P,U1,40,CN2.02_NC_PB1_40*%
%TO.N,unconnected-(U1-CN2.02_NC_PB1-Pad40)*%
X135315000Y-171025000D03*
%TO.P,U1,41,CN2.03_PG7_41*%
%TO.N,unconnected-(U1-CN2.03_PG7-Pad41)*%
X132775000Y-173565000D03*
%TO.P,U1,42,CN2.04_PF2_42*%
%TO.N,unconnected-(U1-CN2.04_PF2-Pad42)*%
X135315000Y-173565000D03*
%TO.P,U1,43,CN2.05_NC_43*%
%TO.N,unconnected-(U1-CN2.05_NC-Pad43)*%
X132775000Y-176105000D03*
%TO.P,U1,44,CN2.06_PF1_44*%
%TO.N,unconnected-(U1-CN2.06_PF1-Pad44)*%
X135315000Y-176105000D03*
%TO.P,U1,45,CN2.07_NC_45*%
%TO.N,unconnected-(U1-CN2.07_NC-Pad45)*%
X132775000Y-178645000D03*
%TO.P,U1,46,CN2.08_PF0_46*%
%TO.N,unconnected-(U1-CN2.08_PF0-Pad46)*%
X135315000Y-178645000D03*
%TO.P,U1,47,CN2.09_NC_47*%
%TO.N,unconnected-(U1-CN2.09_NC-Pad47)*%
X132775000Y-181185000D03*
%TO.P,U1,48,CN2.10_PF9_48*%
%TO.N,unconnected-(U1-CN2.10_PF9-Pad48)*%
X135315000Y-181185000D03*
%TO.P,U1,49,CN2.11_GND_49*%
%TO.N,unconnected-(U1-CN2.11_GND-Pad49)*%
X132775000Y-183725000D03*
%TO.P,U1,50,CN2.12_PH5_50*%
%TO.N,unconnected-(U1-CN2.12_PH5-Pad50)*%
X135315000Y-183725000D03*
%TO.P,U1,51,CN2.13_PG5_51*%
%TO.N,unconnected-(U1-CN2.13_PG5-Pad51)*%
X132775000Y-186265000D03*
%TO.P,U1,52,CN2.14_NC_52*%
%TO.N,unconnected-(U1-CN2.14_NC-Pad52)*%
X135315000Y-186265000D03*
%TO.P,U1,53,CN2.15_NC_53*%
%TO.N,unconnected-(U1-CN2.15_NC-Pad53)*%
X132775000Y-188805000D03*
%TO.P,U1,54,CN2.16_NC_PB13_54*%
%TO.N,unconnected-(U1-CN2.16_NC_PB13-Pad54)*%
X135315000Y-188805000D03*
%TO.P,U1,55,CN2.17_PG14_55*%
%TO.N,unconnected-(U1-CN2.17_PG14-Pad55)*%
X132775000Y-191345000D03*
%TO.P,U1,56,CN2.18_PG4_56*%
%TO.N,unconnected-(U1-CN2.18_PG4-Pad56)*%
X135315000Y-191345000D03*
%TO.P,U1,57,CN2.19_NC_57*%
%TO.N,unconnected-(U1-CN2.19_NC-Pad57)*%
X132775000Y-193885000D03*
%TO.P,U1,58,CN2.20_PG6_58*%
%TO.N,unconnected-(U1-CN2.20_PG6-Pad58)*%
X135315000Y-193885000D03*
%TO.P,U1,59,CN2.21_NC_PG12_59*%
%TO.N,unconnected-(U1-CN2.21_NC_PG12-Pad59)*%
X132775000Y-196425000D03*
%TO.P,U1,60,CN2.22_GND_60*%
%TO.N,unconnected-(U1-CN2.22_GND-Pad60)*%
X135315000Y-196425000D03*
%TO.P,U1,61,CN2.23_PG3_61*%
%TO.N,unconnected-(U1-CN2.23_PG3-Pad61)*%
X132775000Y-198965000D03*
%TO.P,U1,62,CN2.24_NC_PG9_62*%
%TO.N,unconnected-(U1-CN2.24_NC_PG9-Pad62)*%
X135315000Y-198965000D03*
%TO.P,U1,63,CN2.25_PC9_63*%
%TO.N,unconnected-(U1-CN2.25_PC9-Pad63)*%
X132775000Y-201505000D03*
%TO.P,U1,64,CN2.26_PB15_64*%
%TO.N,unconnected-(U1-CN2.26_PB15-Pad64)*%
X135315000Y-201505000D03*
%TO.P,U1,65,CN2.27_PC11_65*%
%TO.N,unconnected-(U1-CN2.27_PC11-Pad65)*%
X132775000Y-204045000D03*
%TO.P,U1,66,CN2.28_PC6_66*%
%TO.N,unconnected-(U1-CN2.28_PC6-Pad66)*%
X135315000Y-204045000D03*
%TO.P,U1,67,CN2.29_PH8_67*%
%TO.N,unconnected-(U1-CN2.29_PH8-Pad67)*%
X132775000Y-206585000D03*
%TO.P,U1,68,CN2.30_PH7_68*%
%TO.N,unconnected-(U1-CN2.30_PH7-Pad68)*%
X135315000Y-206585000D03*
%TO.P,U1,69,CN2.31_NC_69*%
%TO.N,unconnected-(U1-CN2.31_NC-Pad69)*%
X132775000Y-209125000D03*
%TO.P,U1,70,CN2.32_PH3_70*%
%TO.N,unconnected-(U1-CN2.32_PH3-Pad70)*%
X135315000Y-209125000D03*
%TO.P,U1,71,SPARE_L1_71*%
%TO.N,GND*%
X132775000Y-211665000D03*
%TO.P,U1,72,SPARE_L2_72*%
X135315000Y-211665000D03*
%TO.P,U1,73,CN15.01_PE12_73*%
X193735000Y-122765000D03*
%TO.P,U1,74,CN15.02_PE6_74*%
X196275000Y-122765000D03*
%TO.P,U1,75,CN15.03_PH9_75*%
%TO.N,unconnected-(U1-CN15.03_PH9-Pad75)*%
X193735000Y-125305000D03*
%TO.P,U1,76,CN15.04_PE5_76*%
%TO.N,unconnected-(U1-CN15.04_PE5-Pad76)*%
X196275000Y-125305000D03*
%TO.P,U1,77,CN15.05_PC1_77*%
%TO.N,/C6_INT*%
X193735000Y-127845000D03*
%TO.P,U1,78,CN15.06_PD6_78*%
%TO.N,unconnected-(U1-CN15.06_PD6-Pad78)*%
X196275000Y-127845000D03*
%TO.P,U1,79,CN15.07_VREFP_79*%
%TO.N,unconnected-(U1-CN15.07_VREFP-Pad79)*%
X193735000Y-130385000D03*
%TO.P,U1,80,CN15.08_5V_STLK_80*%
%TO.N,unconnected-(U1-CN15.08_5V_STLK-Pad80)*%
X196275000Y-130385000D03*
%TO.P,U1,81,CN15.09_GND_81*%
%TO.N,GND*%
X193735000Y-132925000D03*
%TO.P,U1,82,CN15.10_PB2_82*%
%TO.N,unconnected-(U1-CN15.10_PB2-Pad82)*%
X196275000Y-132925000D03*
%TO.P,U1,83,CN15.11_PE15_83*%
%TO.N,/SPI5_SCK*%
X193735000Y-135465000D03*
%TO.P,U1,84,CN15.12_NC_PB3_84*%
%TO.N,unconnected-(U1-CN15.12_NC_PB3-Pad84)*%
X196275000Y-135465000D03*
%TO.P,U1,85,CN15.13_PG1_85*%
%TO.N,/SPI5_MISO*%
X193735000Y-138005000D03*
%TO.P,U1,86,CN15.14_PB8_86*%
%TO.N,unconnected-(U1-CN15.14_PB8-Pad86)*%
X196275000Y-138005000D03*
%TO.P,U1,87,CN15.15_PG2_87*%
%TO.N,/SPI5_MOSI*%
X193735000Y-140545000D03*
%TO.P,U1,88,CN15.16_PB9_88*%
%TO.N,/DWM_IRQ*%
X196275000Y-140545000D03*
%TO.P,U1,89,CN15.17_PA3_89*%
%TO.N,/DWM_CS*%
X193735000Y-143085000D03*
%TO.P,U1,90,CN15.18_PB14_90*%
%TO.N,unconnected-(U1-CN15.18_PB14-Pad90)*%
X196275000Y-143085000D03*
%TO.P,U1,91,CN15.19_PD7_91*%
%TO.N,/C6_CS*%
X193735000Y-145625000D03*
%TO.P,U1,92,CN15.20_GND_92*%
%TO.N,GND*%
X196275000Y-145625000D03*
%TO.P,U1,93,CN15.21_PD12_93*%
%TO.N,unconnected-(U1-CN15.21_PD12-Pad93)*%
X193735000Y-148165000D03*
%TO.P,U1,94,CN15.22_PE7_94*%
%TO.N,unconnected-(U1-CN15.22_PE7-Pad94)*%
X196275000Y-148165000D03*
%TO.P,U1,95,CN15.23_PE11_95*%
%TO.N,unconnected-(U1-CN15.23_PE11-Pad95)*%
X193735000Y-150705000D03*
%TO.P,U1,96,CN15.24_PE1_96*%
%TO.N,unconnected-(U1-CN15.24_PE1-Pad96)*%
X196275000Y-150705000D03*
%TO.P,U1,97,CN15.25_PD5_97*%
%TO.N,unconnected-(U1-CN15.25_PD5-Pad97)*%
X193735000Y-153245000D03*
%TO.P,U1,98,CN15.26_PE14_98*%
%TO.N,unconnected-(U1-CN15.26_PE14-Pad98)*%
X196275000Y-153245000D03*
%TO.P,U1,99,CN15.27_PE10_99*%
%TO.N,unconnected-(U1-CN15.27_PE10-Pad99)*%
X193735000Y-155785000D03*
%TO.P,U1,100,CN15.28_PE13_100*%
%TO.N,unconnected-(U1-CN15.28_PE13-Pad100)*%
X196275000Y-155785000D03*
%TO.P,U1,101,CN15.29_PE0_101*%
%TO.N,unconnected-(U1-CN15.29_PE0-Pad101)*%
X193735000Y-158325000D03*
%TO.P,U1,102,CN15.30_PE2_102*%
%TO.N,unconnected-(U1-CN15.30_PE2-Pad102)*%
X196275000Y-158325000D03*
%TO.P,U1,103,CN15.31_PE9_103*%
%TO.N,unconnected-(U1-CN15.31_PE9-Pad103)*%
X193735000Y-160865000D03*
%TO.P,U1,104,CN15.32_AGND_104*%
%TO.N,unconnected-(U1-CN15.32_AGND-Pad104)*%
X196275000Y-160865000D03*
%TO.P,U1,105,CN15.33_PD0_105*%
%TO.N,/DWM_RESET*%
X193735000Y-163405000D03*
%TO.P,U1,106,CN15.34_PD10_106*%
%TO.N,unconnected-(U1-CN15.34_PD10-Pad106)*%
X196275000Y-163405000D03*
%TO.P,U1,107,CN15.35_PD8_107*%
%TO.N,unconnected-(U1-CN15.35_PD8-Pad107)*%
X193735000Y-165945000D03*
%TO.P,U1,108,CN15.36_PD11_108*%
%TO.N,unconnected-(U1-CN15.36_PD11-Pad108)*%
X196275000Y-165945000D03*
%TO.P,U1,109,CN15.37_PD9_109*%
%TO.N,unconnected-(U1-CN15.37_PD9-Pad109)*%
X193735000Y-168485000D03*
%TO.P,U1,110,CN15.38_PA1_110*%
%TO.N,unconnected-(U1-CN15.38_PA1-Pad110)*%
X196275000Y-168485000D03*
%TO.P,U1,111,CN16.01_GND_111*%
%TO.N,unconnected-(U1-CN16.01_GND-Pad111)*%
X193735000Y-171025000D03*
%TO.P,U1,112,CN16.02_PP1_112*%
%TO.N,unconnected-(U1-CN16.02_PP1-Pad112)*%
X196275000Y-171025000D03*
%TO.P,U1,113,CN16.03_PP0_113*%
%TO.N,unconnected-(U1-CN16.03_PP0-Pad113)*%
X193735000Y-173565000D03*
%TO.P,U1,114,CN16.04_PP2_114*%
%TO.N,unconnected-(U1-CN16.04_PP2-Pad114)*%
X196275000Y-173565000D03*
%TO.P,U1,115,CN16.05_PO0_115*%
%TO.N,unconnected-(U1-CN16.05_PO0-Pad115)*%
X193735000Y-176105000D03*
%TO.P,U1,116,CN16.06_PP3_116*%
%TO.N,unconnected-(U1-CN16.06_PP3-Pad116)*%
X196275000Y-176105000D03*
%TO.P,U1,117,CN16.07_PO1_117*%
%TO.N,unconnected-(U1-CN16.07_PO1-Pad117)*%
X193735000Y-178645000D03*
%TO.P,U1,118,CN16.08_PP4_118*%
%TO.N,unconnected-(U1-CN16.08_PP4-Pad118)*%
X196275000Y-178645000D03*
%TO.P,U1,119,CN16.09_PO2_119*%
%TO.N,unconnected-(U1-CN16.09_PO2-Pad119)*%
X193735000Y-181185000D03*
%TO.P,U1,120,CN16.10_PP5_120*%
%TO.N,unconnected-(U1-CN16.10_PP5-Pad120)*%
X196275000Y-181185000D03*
%TO.P,U1,121,CN16.11_PO3_121*%
%TO.N,unconnected-(U1-CN16.11_PO3-Pad121)*%
X193735000Y-183725000D03*
%TO.P,U1,122,CN16.12_PP6_122*%
%TO.N,unconnected-(U1-CN16.12_PP6-Pad122)*%
X196275000Y-183725000D03*
%TO.P,U1,123,CN16.13_PO4_123*%
%TO.N,unconnected-(U1-CN16.13_PO4-Pad123)*%
X193735000Y-186265000D03*
%TO.P,U1,124,CN16.14_PP7_124*%
%TO.N,unconnected-(U1-CN16.14_PP7-Pad124)*%
X196275000Y-186265000D03*
%TO.P,U1,125,CN16.15_PE8_125*%
%TO.N,unconnected-(U1-CN16.15_PE8-Pad125)*%
X193735000Y-188805000D03*
%TO.P,U1,126,CN16.16_GND_126*%
%TO.N,unconnected-(U1-CN16.16_GND-Pad126)*%
X196275000Y-188805000D03*
%TO.P,U1,127,CN16.17_NC_127*%
%TO.N,unconnected-(U1-CN16.17_NC-Pad127)*%
X193735000Y-191345000D03*
%TO.P,U1,128,CN16.18_PP8_128*%
%TO.N,unconnected-(U1-CN16.18_PP8-Pad128)*%
X196275000Y-191345000D03*
%TO.P,U1,129,CN16.19_PD13_129*%
%TO.N,unconnected-(U1-CN16.19_PD13-Pad129)*%
X193735000Y-193885000D03*
%TO.P,U1,130,CN16.20_PP9_130*%
%TO.N,unconnected-(U1-CN16.20_PP9-Pad130)*%
X196275000Y-193885000D03*
%TO.P,U1,131,CN16.21_PA4_131*%
%TO.N,unconnected-(U1-CN16.21_PA4-Pad131)*%
X193735000Y-196425000D03*
%TO.P,U1,132,CN16.22_PP10_132*%
%TO.N,unconnected-(U1-CN16.22_PP10-Pad132)*%
X196275000Y-196425000D03*
%TO.P,U1,133,CN16.23_PD15_133*%
%TO.N,unconnected-(U1-CN16.23_PD15-Pad133)*%
X193735000Y-198965000D03*
%TO.P,U1,134,CN16.24_PP11_134*%
%TO.N,unconnected-(U1-CN16.24_PP11-Pad134)*%
X196275000Y-198965000D03*
%TO.P,U1,135,CN16.25_GND_135*%
%TO.N,unconnected-(U1-CN16.25_GND-Pad135)*%
X193735000Y-201505000D03*
%TO.P,U1,136,CN16.26_PP12_136*%
%TO.N,unconnected-(U1-CN16.26_PP12-Pad136)*%
X196275000Y-201505000D03*
%TO.P,U1,137,CN16.27_PD3_137*%
%TO.N,unconnected-(U1-CN16.27_PD3-Pad137)*%
X193735000Y-204045000D03*
%TO.P,U1,138,CN16.28_PP13_138*%
%TO.N,unconnected-(U1-CN16.28_PP13-Pad138)*%
X196275000Y-204045000D03*
%TO.P,U1,139,CN16.29_PG13_139*%
%TO.N,unconnected-(U1-CN16.29_PG13-Pad139)*%
X193735000Y-206585000D03*
%TO.P,U1,140,CN16.30_PP14_140*%
%TO.N,unconnected-(U1-CN16.30_PP14-Pad140)*%
X196275000Y-206585000D03*
%TO.P,U1,141,CN16.31_PN12_141*%
%TO.N,unconnected-(U1-CN16.31_PN12-Pad141)*%
X193735000Y-209125000D03*
%TO.P,U1,142,CN16.32_PP15_142*%
%TO.N,unconnected-(U1-CN16.32_PP15-Pad142)*%
X196275000Y-209125000D03*
%TO.P,U1,143,SPARE_R1_143*%
%TO.N,GND*%
X193735000Y-211665000D03*
%TO.P,U1,144,SPARE_R2_144*%
X196275000Y-211665000D03*
%TO.P,U1,145,EXTRA_145_145*%
%TO.N,unconnected-(U1-EXTRA_145-Pad145)*%
X132775000Y-94825000D03*
%TO.P,U1,146,EXTRA_146_146*%
%TO.N,unconnected-(U1-EXTRA_146-Pad146)*%
X132775000Y-97365000D03*
%TO.P,U1,147,EXTRA_147_147*%
%TO.N,unconnected-(U1-EXTRA_147-Pad147)*%
X196275000Y-94825000D03*
%TO.P,U1,148,EXTRA_148_148*%
%TO.N,unconnected-(U1-EXTRA_148-Pad148)*%
X196275000Y-97365000D03*
%TD*%
D12*
%TO.P,TP6,1,1_1*%
%TO.N,/DWM_IRQ*%
X121000000Y-107000000D03*
%TD*%
%TO.P,TP1,1,1_1*%
%TO.N,GND*%
X115000000Y-120000000D03*
%TD*%
%TO.P,TP4,1,1_1*%
%TO.N,/3V3_GATEWAY*%
X115000000Y-201000000D03*
%TD*%
D13*
%TO.P,TP10,1,1_1*%
%TO.N,/SPI5_SCK*%
X110000000Y-186000000D03*
%TD*%
D12*
%TO.P,TP7,1,1_1*%
%TO.N,/DWM_CS*%
X117000000Y-139000000D03*
%TD*%
D13*
%TO.P,TP11,1,1_1*%
%TO.N,/SPI5_MOSI*%
X103000000Y-186000000D03*
%TD*%
%TO.P,TP12,1,1_1*%
%TO.N,/SPI5_MISO*%
X82000000Y-152000000D03*
%TD*%
D14*
%TO.P,C1,1*%
%TO.N,/5V_GATEWAY*%
X115000000Y-149000000D03*
%TO.P,C1,2*%
%TO.N,GND*%
X120000000Y-149000000D03*
%TD*%
D12*
%TO.P,TP2,1,1_1*%
%TO.N,/5V_GATEWAY*%
X73000000Y-186000000D03*
%TD*%
D14*
%TO.P,C3,1*%
%TO.N,/5V_GATEWAY*%
X103500000Y-217000000D03*
%TO.P,C3,2*%
%TO.N,GND*%
X108500000Y-217000000D03*
%TD*%
D12*
%TO.P,TP9,1,1_1*%
%TO.N,/C6_INT*%
X101000000Y-221000000D03*
%TD*%
D15*
%TO.P,U2,J1_1,V_LIPO_BAT_J1_1*%
%TO.N,unconnected-(U2-V_LIPO_BAT-PadJ1_1)*%
X79760000Y-132560000D03*
%TO.P,U2,J1_2,GND_J1_2*%
%TO.N,GND*%
X79760000Y-130020000D03*
%TO.P,U2,J10_1,NC_J10_1*%
%TO.N,unconnected-(U2-NC-PadJ10_1)*%
X107000000Y-99000000D03*
%TO.P,U2,J10_2,VRPI_J10_2*%
%TO.N,/5V_GATEWAY*%
X109540000Y-99000000D03*
%TO.P,U2,J10_3,SDA_RPI_J10_3*%
%TO.N,unconnected-(U2-SDA_RPI-PadJ10_3)*%
X107000000Y-101540000D03*
%TO.P,U2,J10_4,VRPI__1_J10_4*%
%TO.N,unconnected-(U2-VRPI__1-PadJ10_4)*%
X109540000Y-101540000D03*
%TO.P,U2,J10_5,SCL_RPI_J10_5*%
%TO.N,unconnected-(U2-SCL_RPI-PadJ10_5)*%
X107000000Y-104080000D03*
%TO.P,U2,J10_6,GND__1_J10_6*%
%TO.N,GND*%
X109540000Y-104080000D03*
%TO.P,U2,J10_7,NC__1_J10_7*%
%TO.N,unconnected-(U2-NC__1-PadJ10_7)*%
X107000000Y-106620000D03*
%TO.P,U2,J10_8,TXD_J10_8*%
%TO.N,unconnected-(U2-TXD-PadJ10_8)*%
X109540000Y-106620000D03*
%TO.P,U2,J10_9,GND__2_J10_9*%
%TO.N,GND*%
X107000000Y-109160000D03*
%TO.P,U2,J10_10,RXD_RPI/RXD_J10_10*%
%TO.N,unconnected-(U2-RXD_RPI{slash}RXD-PadJ10_10)*%
X109540000Y-109160000D03*
%TO.P,U2,J10_11,NC__2_J10_11*%
%TO.N,unconnected-(U2-NC__2-PadJ10_11)*%
X107000000Y-111700000D03*
%TO.P,U2,J10_12,RESET_J10_12*%
%TO.N,/DWM_RESET*%
X109540000Y-111700000D03*
%TO.P,U2,J10_13,NC__3_J10_13*%
%TO.N,unconnected-(U2-NC__3-PadJ10_13)*%
X107000000Y-114240000D03*
%TO.P,U2,J10_14,GND__3_J10_14*%
%TO.N,GND*%
X109540000Y-114240000D03*
%TO.P,U2,J10_15,GPIO_RPI_J10_15*%
%TO.N,/DWM_IRQ*%
X107000000Y-116780000D03*
%TO.P,U2,J10_16,NC__4_J10_16*%
%TO.N,unconnected-(U2-NC__4-PadJ10_16)*%
X109540000Y-116780000D03*
%TO.P,U2,J10_17,NC__5_J10_17*%
%TO.N,unconnected-(U2-NC__5-PadJ10_17)*%
X107000000Y-119320000D03*
%TO.P,U2,J10_18,NC__6_J10_18*%
%TO.N,unconnected-(U2-NC__6-PadJ10_18)*%
X109540000Y-119320000D03*
%TO.P,U2,J10_19,SPI1_MOSI_J10_19*%
%TO.N,/SPI5_MOSI*%
X107000000Y-121860000D03*
%TO.P,U2,J10_20,GND__4_J10_20*%
%TO.N,GND*%
X109540000Y-121860000D03*
%TO.P,U2,J10_21,SPI1_MISO_J10_21*%
%TO.N,/SPI5_MISO*%
X107000000Y-124400000D03*
%TO.P,U2,J10_22,NC__7_J10_22*%
%TO.N,unconnected-(U2-NC__7-PadJ10_22)*%
X109540000Y-124400000D03*
%TO.P,U2,J10_23,SPI1_CLK_J10_23*%
%TO.N,/SPI5_SCK*%
X107000000Y-126940000D03*
%TO.P,U2,J10_24,CS_RPI_J10_24*%
%TO.N,/DWM_CS*%
X109540000Y-126940000D03*
%TO.P,U2,J10_25,GND__5_J10_25*%
%TO.N,GND*%
X107000000Y-129480000D03*
%TO.P,U2,J10_26,NC__8_J10_26*%
%TO.N,unconnected-(U2-NC__8-PadJ10_26)*%
X109540000Y-129480000D03*
D16*
%TO.P,U2,SH1*%
%TO.N,N/C*%
X107900000Y-90490000D03*
%TO.P,U2,SH2*%
X72400000Y-136490000D03*
%TO.P,U2,SH3*%
X107900000Y-136490000D03*
%TD*%
D14*
%TO.P,C2,1*%
%TO.N,/5V_GATEWAY*%
X115000000Y-155000000D03*
%TO.P,C2,2*%
%TO.N,GND*%
X120000000Y-155000000D03*
%TD*%
%TO.P,C5,1*%
%TO.N,/5V_GATEWAY*%
X119500000Y-217000000D03*
%TO.P,C5,2*%
%TO.N,GND*%
X124500000Y-217000000D03*
%TD*%
%TO.P,R2,1*%
%TO.N,/C6_CS*%
X103190000Y-208000000D03*
%TO.P,R2,2*%
%TO.N,/3V3_GATEWAY*%
X110810000Y-208000000D03*
%TD*%
D17*
%TO.P,U3,1,GPIO0_A0_D0_1*%
%TO.N,unconnected-(U3-GPIO0_A0_D0-Pad1)*%
X96535000Y-221240000D03*
D15*
%TO.N,unconnected-(U3-GPIO0_A0_D0-Pad1)_1*%
X95700000Y-221240000D03*
D17*
%TO.P,U3,2,GPIO1_A1_D1_2*%
%TO.N,unconnected-(U3-GPIO1_A1_D1-Pad2)_1*%
X96535000Y-218700000D03*
D15*
%TO.N,unconnected-(U3-GPIO1_A1_D1-Pad2)*%
X95700000Y-218700000D03*
D17*
%TO.P,U3,3,GPIO2_A2_D2_3*%
%TO.N,/C6_INT*%
X96535000Y-216160000D03*
D15*
X95700000Y-216160000D03*
D17*
%TO.P,U3,4,GPIO21_D3_4*%
%TO.N,/C6_CS*%
X96535000Y-213620000D03*
D15*
X95700000Y-213620000D03*
D17*
%TO.P,U3,5,GPIO22_D4_SDA_5*%
%TO.N,unconnected-(U3-GPIO22_D4_SDA-Pad5)*%
X96535000Y-211080000D03*
D15*
%TO.N,unconnected-(U3-GPIO22_D4_SDA-Pad5)_1*%
X95700000Y-211080000D03*
D17*
%TO.P,U3,6,GPIO23_D5_SCL_6*%
%TO.N,unconnected-(U3-GPIO23_D5_SCL-Pad6)*%
X96535000Y-208540000D03*
D15*
%TO.N,unconnected-(U3-GPIO23_D5_SCL-Pad6)_1*%
X95700000Y-208540000D03*
D17*
%TO.P,U3,7,GPIO16_D6_TX_7*%
%TO.N,unconnected-(U3-GPIO16_D6_TX-Pad7)*%
X96535000Y-206000000D03*
D15*
%TO.N,unconnected-(U3-GPIO16_D6_TX-Pad7)_1*%
X95700000Y-206000000D03*
%TO.P,U3,8,GPIO17_D7_RX_8*%
%TO.N,unconnected-(U3-GPIO17_D7_RX-Pad8)*%
X80460000Y-206000000D03*
D18*
%TO.N,unconnected-(U3-GPIO17_D7_RX-Pad8)_1*%
X79625000Y-206000000D03*
D15*
%TO.P,U3,9,GPIO19_D8_SCK_9*%
%TO.N,/SPI5_SCK*%
X80460000Y-208540000D03*
D18*
X79625000Y-208540000D03*
D15*
%TO.P,U3,10,GPIO20_D9_MISO_10*%
%TO.N,/SPI5_MISO*%
X80460000Y-211080000D03*
D18*
X79625000Y-211080000D03*
D15*
%TO.P,U3,11,GPIO18_D10_MOSI_11*%
%TO.N,/SPI5_MOSI*%
X80460000Y-213620000D03*
D18*
X79625000Y-213620000D03*
D15*
%TO.P,U3,12,3V3_12*%
%TO.N,unconnected-(U3-3V3-Pad12)*%
X80460000Y-216160000D03*
D18*
%TO.N,unconnected-(U3-3V3-Pad12)_1*%
X79625000Y-216160000D03*
D15*
%TO.P,U3,13,GND_13*%
%TO.N,GND*%
X80460000Y-218700000D03*
D18*
X79625000Y-218700000D03*
D15*
%TO.P,U3,14,5V_VBUS_14*%
%TO.N,/5V_GATEWAY*%
X80460000Y-221240000D03*
D18*
X79625000Y-221240000D03*
%TD*%
D12*
%TO.P,TP13,1,1_1*%
%TO.N,/5V_GATEWAY*%
X119000000Y-98000000D03*
%TD*%
%TO.P,TP3,1,1_1*%
%TO.N,GND*%
X71000000Y-219000000D03*
%TD*%
D14*
%TO.P,R1,1*%
%TO.N,/3V3_GATEWAY*%
X115190000Y-127000000D03*
%TO.P,R1,2*%
%TO.N,/DWM_CS*%
X122810000Y-127000000D03*
%TD*%
D12*
%TO.P,TP8,1,1_1*%
%TO.N,/C6_CS*%
X101000000Y-201000000D03*
%TD*%
D14*
%TO.P,C4,1*%
%TO.N,/5V_GATEWAY*%
X111500000Y-217000000D03*
%TO.P,C4,2*%
%TO.N,GND*%
X116500000Y-217000000D03*
%TD*%
D12*
%TO.P,TP5,1,1_1*%
%TO.N,/DWM_RESET*%
X115000000Y-103000000D03*
%TD*%
D19*
%TO.N,GND*%
X84000000Y-129000000D03*
X140000000Y-129000000D03*
%TO.N,/5V_GATEWAY*%
X93000000Y-155000000D03*
X98000000Y-125000000D03*
X98000000Y-117000000D03*
%TO.N,/3V3_GATEWAY*%
X125000000Y-125000000D03*
X136000000Y-120000000D03*
X138000000Y-130000000D03*
%TO.N,/SPI5_SCK*%
X163000000Y-112000000D03*
X117000000Y-132000000D03*
%TO.N,/SPI5_MISO*%
X185000000Y-145000000D03*
%TO.N,/SPI5_MOSI*%
X140000000Y-108000000D03*
X149000000Y-108000000D03*
X96000000Y-188000000D03*
X95000000Y-198000000D03*
X123000000Y-96000000D03*
X123000000Y-102000000D03*
X157500000Y-117500000D03*
%TO.N,/DWM_CS*%
X113000000Y-134000000D03*
X121000000Y-125000000D03*
X113000000Y-129000000D03*
%TO.N,/DWM_RESET*%
X163000000Y-148000000D03*
X114000000Y-111000000D03*
X145000000Y-111000000D03*
%TD*%
%TO.N,GND*%
D10*
X114000000Y-120000000D02*
X115000000Y-120000000D01*
X82980000Y-130020000D02*
X84000000Y-129000000D01*
X74300000Y-218700000D02*
X74000000Y-219000000D01*
X112140000Y-121860000D02*
X114000000Y-120000000D01*
X80460000Y-218700000D02*
X74300000Y-218700000D01*
X109540000Y-121860000D02*
X112140000Y-121860000D01*
X140000000Y-129000000D02*
X136700000Y-129000000D01*
X136700000Y-129000000D02*
X135315000Y-130385000D01*
X71000000Y-219000000D02*
X74000000Y-219000000D01*
X79760000Y-130020000D02*
X82980000Y-130020000D01*
%TO.N,/5V_GATEWAY*%
X103000000Y-109000000D02*
X103000000Y-98000000D01*
X114000000Y-100000000D02*
X110540000Y-100000000D01*
X118500000Y-221500000D02*
X119500000Y-220500000D01*
X103000000Y-98000000D02*
X106000000Y-95000000D01*
X135315000Y-127845000D02*
X142155000Y-127845000D01*
X98000000Y-117000000D02*
X98000000Y-114000000D01*
X99000000Y-149000000D02*
X105000000Y-149000000D01*
X93000000Y-155000000D02*
X99000000Y-149000000D01*
X115000000Y-155000000D02*
X115000000Y-149000000D01*
X110000000Y-221500000D02*
X118500000Y-221500000D01*
X116000000Y-100000000D02*
X117000000Y-100000000D01*
X110000000Y-221500000D02*
X111500000Y-220000000D01*
X98000000Y-114000000D02*
X103000000Y-109000000D01*
X103500000Y-217000000D02*
X105500000Y-217000000D01*
X105000000Y-149000000D02*
X105000000Y-142000000D01*
X105500000Y-217000000D02*
X110000000Y-221500000D01*
X114000000Y-100000000D02*
X116000000Y-100000000D01*
X110540000Y-100000000D02*
X109540000Y-99000000D01*
X114000000Y-97000000D02*
X114000000Y-100000000D01*
X117000000Y-100000000D02*
X119000000Y-98000000D01*
X105000000Y-142000000D02*
X98000000Y-135000000D01*
X98000000Y-135000000D02*
X98000000Y-125000000D01*
X142155000Y-127845000D02*
X143000000Y-127000000D01*
X111500000Y-220000000D02*
X111500000Y-217000000D01*
X143000000Y-101000000D02*
X142000000Y-100000000D01*
X112000000Y-95000000D02*
X114000000Y-97000000D01*
X106000000Y-95000000D02*
X112000000Y-95000000D01*
X143000000Y-127000000D02*
X143000000Y-101000000D01*
X117000000Y-100000000D02*
X142000000Y-100000000D01*
X115000000Y-149000000D02*
X105000000Y-149000000D01*
X119500000Y-220500000D02*
X119500000Y-217000000D01*
%TO.N,/3V3_GATEWAY*%
X110810000Y-205190000D02*
X115000000Y-201000000D01*
X136000000Y-120000000D02*
X130000000Y-120000000D01*
X138000000Y-130000000D02*
X138000000Y-137860000D01*
X120000000Y-208000000D02*
X111210000Y-208000000D01*
X110810000Y-208000000D02*
X110810000Y-205190000D01*
X130000000Y-120000000D02*
X127000000Y-123000000D01*
X138000000Y-137860000D02*
X135315000Y-140545000D01*
X125000000Y-125000000D02*
X127000000Y-123000000D01*
X127000000Y-201000000D02*
X120000000Y-208000000D01*
X127000000Y-123000000D02*
X127000000Y-201000000D01*
%TO.N,/C6_INT*%
X187000000Y-218000000D02*
X194000000Y-218000000D01*
X146000000Y-212000000D02*
X181000000Y-212000000D01*
X181000000Y-212000000D02*
X187000000Y-218000000D01*
X100000000Y-215000000D02*
X102000000Y-215000000D01*
X95700000Y-216160000D02*
X98840000Y-216160000D01*
X102000000Y-215000000D02*
X143000000Y-215000000D01*
X101000000Y-221000000D02*
X101000000Y-216000000D01*
X199000000Y-213000000D02*
X199000000Y-122000000D01*
X98840000Y-216160000D02*
X100000000Y-215000000D01*
X194000000Y-218000000D02*
X199000000Y-213000000D01*
X101000000Y-216000000D02*
X102000000Y-215000000D01*
X197000000Y-120000000D02*
X196000000Y-120000000D01*
X199000000Y-122000000D02*
X197000000Y-120000000D01*
X143000000Y-215000000D02*
X146000000Y-212000000D01*
%TO.N,/SPI5_SCK*%
X110000000Y-186000000D02*
X110000000Y-188000000D01*
X119000000Y-132000000D02*
X122000000Y-135000000D01*
X122000000Y-135000000D02*
X122000000Y-180000000D01*
X75540000Y-208540000D02*
X80460000Y-208540000D01*
X193735000Y-135465000D02*
X192270000Y-134000000D01*
X110000000Y-188000000D02*
X112000000Y-190000000D01*
X180000000Y-134000000D02*
X178000000Y-132000000D01*
X112000000Y-190000000D02*
X78000000Y-190000000D01*
X74000000Y-207000000D02*
X75540000Y-208540000D01*
X103000000Y-130000000D02*
X103000000Y-129000000D01*
X117000000Y-132000000D02*
X105000000Y-132000000D01*
X178000000Y-132000000D02*
X178000000Y-113000000D01*
X103000000Y-129000000D02*
X105060000Y-126940000D01*
X117000000Y-132000000D02*
X119000000Y-132000000D01*
X105060000Y-126940000D02*
X107000000Y-126940000D01*
X105000000Y-132000000D02*
X103000000Y-130000000D01*
X192270000Y-134000000D02*
X180000000Y-134000000D01*
X178000000Y-113000000D02*
X177000000Y-112000000D01*
X74000000Y-194000000D02*
X74000000Y-207000000D01*
X122000000Y-180000000D02*
X112000000Y-190000000D01*
X177000000Y-112000000D02*
X163000000Y-112000000D01*
X78000000Y-190000000D02*
X74000000Y-194000000D01*
%TO.N,/SPI5_MISO*%
X185000000Y-145000000D02*
X191995000Y-138005000D01*
X191995000Y-138005000D02*
X193735000Y-138005000D01*
%TO.N,/SPI5_MOSI*%
X90000000Y-182000000D02*
X90000000Y-130000000D01*
X90000000Y-130000000D02*
X98000000Y-122000000D01*
X95000000Y-198000000D02*
X93000000Y-198000000D01*
X123000000Y-106000000D02*
X125000000Y-108000000D01*
X98000000Y-122000000D02*
X96000000Y-120000000D01*
X121000000Y-94000000D02*
X123000000Y-96000000D01*
X157500000Y-117500000D02*
X149000000Y-109000000D01*
X96000000Y-188000000D02*
X97000000Y-188000000D01*
X125000000Y-108000000D02*
X140000000Y-108000000D01*
X100000000Y-94000000D02*
X121000000Y-94000000D01*
X96000000Y-120000000D02*
X96000000Y-98000000D01*
X84000000Y-200000000D02*
X83000000Y-201000000D01*
X96000000Y-188000000D02*
X90000000Y-182000000D01*
X84000000Y-200000000D02*
X85000000Y-199000000D01*
X80460000Y-213620000D02*
X82380000Y-213620000D01*
X97000000Y-188000000D02*
X99000000Y-186000000D01*
X96000000Y-98000000D02*
X100000000Y-94000000D01*
X82380000Y-213620000D02*
X83000000Y-213000000D01*
X83000000Y-213000000D02*
X83000000Y-201000000D01*
X123000000Y-102000000D02*
X123000000Y-106000000D01*
X149000000Y-109000000D02*
X149000000Y-108000000D01*
X99000000Y-186000000D02*
X103000000Y-186000000D01*
%TO.N,/DWM_CS*%
X109540000Y-126940000D02*
X112060000Y-126940000D01*
X112060000Y-126940000D02*
X113000000Y-126000000D01*
X117000000Y-139000000D02*
X116000000Y-139000000D01*
X113000000Y-136000000D02*
X113000000Y-134000000D01*
X114000000Y-125000000D02*
X121000000Y-125000000D01*
X114000000Y-125000000D02*
X113000000Y-126000000D01*
X113000000Y-129000000D02*
X113000000Y-126000000D01*
X116000000Y-139000000D02*
X113000000Y-136000000D01*
%TO.N,/C6_CS*%
X95700000Y-213620000D02*
X96777630Y-213620000D01*
X101000000Y-208000000D02*
X101000000Y-201000000D01*
X184000000Y-203000000D02*
X179025000Y-207975000D01*
X178975000Y-207975000D02*
X179000000Y-208000000D01*
X145000000Y-208000000D02*
X139000000Y-214000000D01*
X193735000Y-145625000D02*
X191375000Y-145625000D01*
X106000000Y-212000000D02*
X108000000Y-214000000D01*
X179000000Y-208000000D02*
X145000000Y-208000000D01*
X179025000Y-207975000D02*
X178975000Y-207975000D01*
X184000000Y-153000000D02*
X184000000Y-203000000D01*
X103190000Y-208000000D02*
X103190000Y-209190000D01*
X101000000Y-209397630D02*
X101000000Y-208000000D01*
X103190000Y-209190000D02*
X106000000Y-212000000D01*
X101000000Y-208000000D02*
X103190000Y-208000000D01*
X191375000Y-145625000D02*
X184000000Y-153000000D01*
X96777630Y-213620000D02*
X101000000Y-209397630D01*
X139000000Y-214000000D02*
X108000000Y-214000000D01*
%TO.N,/DWM_RESET*%
X111700000Y-111700000D02*
X112400000Y-111000000D01*
X145000000Y-111000000D02*
X147000000Y-111000000D01*
X109540000Y-111700000D02*
X111700000Y-111700000D01*
X112400000Y-111000000D02*
X114000000Y-111000000D01*
X147000000Y-111000000D02*
X163000000Y-127000000D01*
X163000000Y-127000000D02*
X163000000Y-148000000D01*
%TD*%
M02*
