%TF.GenerationSoftware,KiCad,Pcbnew,10.0.1*%
%TF.CreationDate,2026-07-13T12:29:03+01:00*%
%TF.ProjectId,Thin-Pod Gateway,5468696e-2d50-46f6-9420-476174657761,0.1*%
%TF.SameCoordinates,Original*%
%TF.FileFunction,Drillmap*%
%TF.FilePolarity,Positive*%
%FSLAX45Y45*%
G04 Gerber Fmt 4.5, Leading zero omitted, Abs format (unit mm)*
G04 Created by KiCad (PCBNEW 10.0.1) date 2026-07-13 12:29:03*
%MOMM*%
%LPD*%
G01*
G04 APERTURE LIST*
%ADD10C,0.050000*%
%ADD11C,0.200000*%
%ADD12C,0.100000*%
%ADD13C,0.101600*%
%ADD14C,0.300000*%
G04 APERTURE END LIST*
D10*
X5500000Y-8700000D02*
X5500000Y-8700000D01*
G75*
G02*
X5800000Y-8400000I300000J0D01*
G01*
X21200000Y-8400000D01*
G75*
G02*
X21500000Y-8700000I0J-300000D01*
G01*
X21500000Y-22600000D01*
G75*
G02*
X21200000Y-22900000I-300000J0D01*
G01*
X5800000Y-22900000D01*
G75*
G02*
X5500000Y-22600000I0J300000D01*
G01*
X5500000Y-8700000D01*
D11*
D12*
X8385000Y-12885000D02*
X8415000Y-12915000D01*
X8415000Y-12885000D02*
X8385000Y-12915000D01*
X9285000Y-15485000D02*
X9315000Y-15515000D01*
X9315000Y-15485000D02*
X9285000Y-15515000D01*
X9485000Y-19785000D02*
X9515000Y-19815000D01*
X9515000Y-19785000D02*
X9485000Y-19815000D01*
X9585000Y-18785000D02*
X9615000Y-18815000D01*
X9615000Y-18785000D02*
X9585000Y-18815000D01*
X9785000Y-11685000D02*
X9815000Y-11715000D01*
X9815000Y-11685000D02*
X9785000Y-11715000D01*
X9785000Y-12485000D02*
X9815000Y-12515000D01*
X9815000Y-12485000D02*
X9785000Y-12515000D01*
X11285000Y-12885000D02*
X11315000Y-12915000D01*
X11315000Y-12885000D02*
X11285000Y-12915000D01*
X11285000Y-13385000D02*
X11315000Y-13415000D01*
X11315000Y-13385000D02*
X11285000Y-13415000D01*
X11385000Y-11085000D02*
X11415000Y-11115000D01*
X11415000Y-11085000D02*
X11385000Y-11115000D01*
X11685000Y-13185000D02*
X11715000Y-13215000D01*
X11715000Y-13185000D02*
X11685000Y-13215000D01*
X12085000Y-12485000D02*
X12115000Y-12515000D01*
X12115000Y-12485000D02*
X12085000Y-12515000D01*
X12285000Y-9585000D02*
X12315000Y-9615000D01*
X12315000Y-9585000D02*
X12285000Y-9615000D01*
X12285000Y-10185000D02*
X12315000Y-10215000D01*
X12315000Y-10185000D02*
X12285000Y-10215000D01*
X12485000Y-12485000D02*
X12515000Y-12515000D01*
X12515000Y-12485000D02*
X12485000Y-12515000D01*
X13585000Y-11985000D02*
X13615000Y-12015000D01*
X13615000Y-11985000D02*
X13585000Y-12015000D01*
X13785000Y-12985000D02*
X13815000Y-13015000D01*
X13815000Y-12985000D02*
X13785000Y-13015000D01*
X13985000Y-10785000D02*
X14015000Y-10815000D01*
X14015000Y-10785000D02*
X13985000Y-10815000D01*
X13985000Y-12885000D02*
X14015000Y-12915000D01*
X14015000Y-12885000D02*
X13985000Y-12915000D01*
X14485000Y-11085000D02*
X14515000Y-11115000D01*
X14515000Y-11085000D02*
X14485000Y-11115000D01*
X14885000Y-10785000D02*
X14915000Y-10815000D01*
X14915000Y-10785000D02*
X14885000Y-10815000D01*
X15735000Y-11735000D02*
X15765000Y-11765000D01*
X15765000Y-11735000D02*
X15735000Y-11765000D01*
X16285000Y-11185000D02*
X16315000Y-11215000D01*
X16315000Y-11185000D02*
X16285000Y-11215000D01*
X16285000Y-14785000D02*
X16315000Y-14815000D01*
X16315000Y-14785000D02*
X16285000Y-14815000D01*
X18485000Y-14485000D02*
X18515000Y-14515000D01*
X18515000Y-14485000D02*
X18485000Y-14515000D01*
X7135000Y-21900000D02*
G75*
G02*
X7065000Y-21900000I-35000J0D01*
G01*
X7065000Y-21900000D02*
G75*
G02*
X7135000Y-21900000I35000J0D01*
G01*
X7335000Y-18600000D02*
G75*
G02*
X7265000Y-18600000I-35000J0D01*
G01*
X7265000Y-18600000D02*
G75*
G02*
X7335000Y-18600000I35000J0D01*
G01*
X10135000Y-20100000D02*
G75*
G02*
X10065000Y-20100000I-35000J0D01*
G01*
X10065000Y-20100000D02*
G75*
G02*
X10135000Y-20100000I35000J0D01*
G01*
X10135000Y-22100000D02*
G75*
G02*
X10065000Y-22100000I-35000J0D01*
G01*
X10065000Y-22100000D02*
G75*
G02*
X10135000Y-22100000I35000J0D01*
G01*
X11535000Y-10300000D02*
G75*
G02*
X11465000Y-10300000I-35000J0D01*
G01*
X11465000Y-10300000D02*
G75*
G02*
X11535000Y-10300000I35000J0D01*
G01*
X11535000Y-12000000D02*
G75*
G02*
X11465000Y-12000000I-35000J0D01*
G01*
X11465000Y-12000000D02*
G75*
G02*
X11535000Y-12000000I35000J0D01*
G01*
X11535000Y-20100000D02*
G75*
G02*
X11465000Y-20100000I-35000J0D01*
G01*
X11465000Y-20100000D02*
G75*
G02*
X11535000Y-20100000I35000J0D01*
G01*
X11735000Y-13900000D02*
G75*
G02*
X11665000Y-13900000I-35000J0D01*
G01*
X11665000Y-13900000D02*
G75*
G02*
X11735000Y-13900000I35000J0D01*
G01*
X11935000Y-9800000D02*
G75*
G02*
X11865000Y-9800000I-35000J0D01*
G01*
X11865000Y-9800000D02*
G75*
G02*
X11935000Y-9800000I35000J0D01*
G01*
X12135000Y-10700000D02*
G75*
G02*
X12065000Y-10700000I-35000J0D01*
G01*
X12065000Y-10700000D02*
G75*
G02*
X12135000Y-10700000I35000J0D01*
G01*
X10319000Y-20760000D02*
X10319000Y-20840000D01*
X10279000Y-20800000D02*
X10359000Y-20800000D01*
X10350000Y-21660000D02*
X10350000Y-21740000D01*
X10310000Y-21700000D02*
X10390000Y-21700000D01*
X10850000Y-21660000D02*
X10850000Y-21740000D01*
X10810000Y-21700000D02*
X10890000Y-21700000D01*
X11081000Y-20760000D02*
X11081000Y-20840000D01*
X11041000Y-20800000D02*
X11121000Y-20800000D01*
X11150000Y-21660000D02*
X11150000Y-21740000D01*
X11110000Y-21700000D02*
X11190000Y-21700000D01*
X11500000Y-14860000D02*
X11500000Y-14940000D01*
X11460000Y-14900000D02*
X11540000Y-14900000D01*
X11500000Y-15460000D02*
X11500000Y-15540000D01*
X11460000Y-15500000D02*
X11540000Y-15500000D01*
X11519000Y-12660000D02*
X11519000Y-12740000D01*
X11479000Y-12700000D02*
X11559000Y-12700000D01*
X11650000Y-21660000D02*
X11650000Y-21740000D01*
X11610000Y-21700000D02*
X11690000Y-21700000D01*
X11950000Y-21660000D02*
X11950000Y-21740000D01*
X11910000Y-21700000D02*
X11990000Y-21700000D01*
X12000000Y-14860000D02*
X12000000Y-14940000D01*
X11960000Y-14900000D02*
X12040000Y-14900000D01*
X12000000Y-15460000D02*
X12000000Y-15540000D01*
X11960000Y-15500000D02*
X12040000Y-15500000D01*
X12281000Y-12660000D02*
X12281000Y-12740000D01*
X12241000Y-12700000D02*
X12321000Y-12700000D01*
X12450000Y-21660000D02*
X12450000Y-21740000D01*
X12410000Y-21700000D02*
X12490000Y-21700000D01*
X8077431Y-20631431D02*
X8077431Y-20568569D01*
X8014569Y-20568569D01*
X8014569Y-20631431D01*
X8077431Y-20631431D01*
X8077431Y-20885431D02*
X8077431Y-20822569D01*
X8014569Y-20822569D01*
X8014569Y-20885431D01*
X8077431Y-20885431D01*
X8077431Y-21139431D02*
X8077431Y-21076569D01*
X8014569Y-21076569D01*
X8014569Y-21139431D01*
X8077431Y-21139431D01*
X8077431Y-21393431D02*
X8077431Y-21330569D01*
X8014569Y-21330569D01*
X8014569Y-21393431D01*
X8077431Y-21393431D01*
X8077431Y-21647431D02*
X8077431Y-21584569D01*
X8014569Y-21584569D01*
X8014569Y-21647431D01*
X8077431Y-21647431D01*
X8077431Y-21901431D02*
X8077431Y-21838569D01*
X8014569Y-21838569D01*
X8014569Y-21901431D01*
X8077431Y-21901431D01*
X8077431Y-22155431D02*
X8077431Y-22092569D01*
X8014569Y-22092569D01*
X8014569Y-22155431D01*
X8077431Y-22155431D01*
X9601431Y-20631431D02*
X9601431Y-20568569D01*
X9538569Y-20568569D01*
X9538569Y-20631431D01*
X9601431Y-20631431D01*
X9601431Y-20885431D02*
X9601431Y-20822569D01*
X9538569Y-20822569D01*
X9538569Y-20885431D01*
X9601431Y-20885431D01*
X9601431Y-21139431D02*
X9601431Y-21076569D01*
X9538569Y-21076569D01*
X9538569Y-21139431D01*
X9601431Y-21139431D01*
X9601431Y-21393431D02*
X9601431Y-21330569D01*
X9538569Y-21330569D01*
X9538569Y-21393431D01*
X9601431Y-21393431D01*
X9601431Y-21647431D02*
X9601431Y-21584569D01*
X9538569Y-21584569D01*
X9538569Y-21647431D01*
X9601431Y-21647431D01*
X9601431Y-21901431D02*
X9601431Y-21838569D01*
X9538569Y-21838569D01*
X9538569Y-21901431D01*
X9601431Y-21901431D01*
X9601431Y-22155431D02*
X9601431Y-22092569D01*
X9538569Y-22092569D01*
X9538569Y-22155431D01*
X9601431Y-22155431D01*
X8200000Y-15250000D02*
X8250000Y-15200000D01*
X8200000Y-15150000D01*
X8150000Y-15200000D01*
X8200000Y-15250000D01*
X10300000Y-18650000D02*
X10350000Y-18600000D01*
X10300000Y-18550000D01*
X10250000Y-18600000D01*
X10300000Y-18650000D01*
X11000000Y-18650000D02*
X11050000Y-18600000D01*
X11000000Y-18550000D01*
X10950000Y-18600000D01*
X11000000Y-18650000D01*
X13277500Y-9532500D02*
X13327500Y-9482500D01*
X13277500Y-9432500D01*
X13227500Y-9482500D01*
X13277500Y-9532500D01*
X13277500Y-9786500D02*
X13327500Y-9736500D01*
X13277500Y-9686500D01*
X13227500Y-9736500D01*
X13277500Y-9786500D01*
X13277500Y-12326500D02*
X13327500Y-12276500D01*
X13277500Y-12226500D01*
X13227500Y-12276500D01*
X13277500Y-12326500D01*
X13277500Y-12580500D02*
X13327500Y-12530500D01*
X13277500Y-12480500D01*
X13227500Y-12530500D01*
X13277500Y-12580500D01*
X13277500Y-12834500D02*
X13327500Y-12784500D01*
X13277500Y-12734500D01*
X13227500Y-12784500D01*
X13277500Y-12834500D01*
X13277500Y-13088500D02*
X13327500Y-13038500D01*
X13277500Y-12988500D01*
X13227500Y-13038500D01*
X13277500Y-13088500D01*
X13277500Y-13342500D02*
X13327500Y-13292500D01*
X13277500Y-13242500D01*
X13227500Y-13292500D01*
X13277500Y-13342500D01*
X13277500Y-13596500D02*
X13327500Y-13546500D01*
X13277500Y-13496500D01*
X13227500Y-13546500D01*
X13277500Y-13596500D01*
X13277500Y-13850500D02*
X13327500Y-13800500D01*
X13277500Y-13750500D01*
X13227500Y-13800500D01*
X13277500Y-13850500D01*
X13277500Y-14104500D02*
X13327500Y-14054500D01*
X13277500Y-14004500D01*
X13227500Y-14054500D01*
X13277500Y-14104500D01*
X13277500Y-14358500D02*
X13327500Y-14308500D01*
X13277500Y-14258500D01*
X13227500Y-14308500D01*
X13277500Y-14358500D01*
X13277500Y-14612500D02*
X13327500Y-14562500D01*
X13277500Y-14512500D01*
X13227500Y-14562500D01*
X13277500Y-14612500D01*
X13277500Y-14866500D02*
X13327500Y-14816500D01*
X13277500Y-14766500D01*
X13227500Y-14816500D01*
X13277500Y-14866500D01*
X13277500Y-15120500D02*
X13327500Y-15070500D01*
X13277500Y-15020500D01*
X13227500Y-15070500D01*
X13277500Y-15120500D01*
X13277500Y-15374500D02*
X13327500Y-15324500D01*
X13277500Y-15274500D01*
X13227500Y-15324500D01*
X13277500Y-15374500D01*
X13277500Y-15628500D02*
X13327500Y-15578500D01*
X13277500Y-15528500D01*
X13227500Y-15578500D01*
X13277500Y-15628500D01*
X13277500Y-15882500D02*
X13327500Y-15832500D01*
X13277500Y-15782500D01*
X13227500Y-15832500D01*
X13277500Y-15882500D01*
X13277500Y-16136500D02*
X13327500Y-16086500D01*
X13277500Y-16036500D01*
X13227500Y-16086500D01*
X13277500Y-16136500D01*
X13277500Y-16390500D02*
X13327500Y-16340500D01*
X13277500Y-16290500D01*
X13227500Y-16340500D01*
X13277500Y-16390500D01*
X13277500Y-16644500D02*
X13327500Y-16594500D01*
X13277500Y-16544500D01*
X13227500Y-16594500D01*
X13277500Y-16644500D01*
X13277500Y-16898500D02*
X13327500Y-16848500D01*
X13277500Y-16798500D01*
X13227500Y-16848500D01*
X13277500Y-16898500D01*
X13277500Y-17152500D02*
X13327500Y-17102500D01*
X13277500Y-17052500D01*
X13227500Y-17102500D01*
X13277500Y-17152500D01*
X13277500Y-17406500D02*
X13327500Y-17356500D01*
X13277500Y-17306500D01*
X13227500Y-17356500D01*
X13277500Y-17406500D01*
X13277500Y-17660500D02*
X13327500Y-17610500D01*
X13277500Y-17560500D01*
X13227500Y-17610500D01*
X13277500Y-17660500D01*
X13277500Y-17914500D02*
X13327500Y-17864500D01*
X13277500Y-17814500D01*
X13227500Y-17864500D01*
X13277500Y-17914500D01*
X13277500Y-18168500D02*
X13327500Y-18118500D01*
X13277500Y-18068500D01*
X13227500Y-18118500D01*
X13277500Y-18168500D01*
X13277500Y-18422500D02*
X13327500Y-18372500D01*
X13277500Y-18322500D01*
X13227500Y-18372500D01*
X13277500Y-18422500D01*
X13277500Y-18676500D02*
X13327500Y-18626500D01*
X13277500Y-18576500D01*
X13227500Y-18626500D01*
X13277500Y-18676500D01*
X13277500Y-18930500D02*
X13327500Y-18880500D01*
X13277500Y-18830500D01*
X13227500Y-18880500D01*
X13277500Y-18930500D01*
X13277500Y-19184500D02*
X13327500Y-19134500D01*
X13277500Y-19084500D01*
X13227500Y-19134500D01*
X13277500Y-19184500D01*
X13277500Y-19438500D02*
X13327500Y-19388500D01*
X13277500Y-19338500D01*
X13227500Y-19388500D01*
X13277500Y-19438500D01*
X13277500Y-19692500D02*
X13327500Y-19642500D01*
X13277500Y-19592500D01*
X13227500Y-19642500D01*
X13277500Y-19692500D01*
X13277500Y-19946500D02*
X13327500Y-19896500D01*
X13277500Y-19846500D01*
X13227500Y-19896500D01*
X13277500Y-19946500D01*
X13277500Y-20200500D02*
X13327500Y-20150500D01*
X13277500Y-20100500D01*
X13227500Y-20150500D01*
X13277500Y-20200500D01*
X13277500Y-20454500D02*
X13327500Y-20404500D01*
X13277500Y-20354500D01*
X13227500Y-20404500D01*
X13277500Y-20454500D01*
X13277500Y-20708500D02*
X13327500Y-20658500D01*
X13277500Y-20608500D01*
X13227500Y-20658500D01*
X13277500Y-20708500D01*
X13277500Y-20962500D02*
X13327500Y-20912500D01*
X13277500Y-20862500D01*
X13227500Y-20912500D01*
X13277500Y-20962500D01*
X13277500Y-21216500D02*
X13327500Y-21166500D01*
X13277500Y-21116500D01*
X13227500Y-21166500D01*
X13277500Y-21216500D01*
X13531500Y-12326500D02*
X13581500Y-12276500D01*
X13531500Y-12226500D01*
X13481500Y-12276500D01*
X13531500Y-12326500D01*
X13531500Y-12580500D02*
X13581500Y-12530500D01*
X13531500Y-12480500D01*
X13481500Y-12530500D01*
X13531500Y-12580500D01*
X13531500Y-12834500D02*
X13581500Y-12784500D01*
X13531500Y-12734500D01*
X13481500Y-12784500D01*
X13531500Y-12834500D01*
X13531500Y-13088500D02*
X13581500Y-13038500D01*
X13531500Y-12988500D01*
X13481500Y-13038500D01*
X13531500Y-13088500D01*
X13531500Y-13342500D02*
X13581500Y-13292500D01*
X13531500Y-13242500D01*
X13481500Y-13292500D01*
X13531500Y-13342500D01*
X13531500Y-13596500D02*
X13581500Y-13546500D01*
X13531500Y-13496500D01*
X13481500Y-13546500D01*
X13531500Y-13596500D01*
X13531500Y-13850500D02*
X13581500Y-13800500D01*
X13531500Y-13750500D01*
X13481500Y-13800500D01*
X13531500Y-13850500D01*
X13531500Y-14104500D02*
X13581500Y-14054500D01*
X13531500Y-14004500D01*
X13481500Y-14054500D01*
X13531500Y-14104500D01*
X13531500Y-14358500D02*
X13581500Y-14308500D01*
X13531500Y-14258500D01*
X13481500Y-14308500D01*
X13531500Y-14358500D01*
X13531500Y-14612500D02*
X13581500Y-14562500D01*
X13531500Y-14512500D01*
X13481500Y-14562500D01*
X13531500Y-14612500D01*
X13531500Y-14866500D02*
X13581500Y-14816500D01*
X13531500Y-14766500D01*
X13481500Y-14816500D01*
X13531500Y-14866500D01*
X13531500Y-15120500D02*
X13581500Y-15070500D01*
X13531500Y-15020500D01*
X13481500Y-15070500D01*
X13531500Y-15120500D01*
X13531500Y-15374500D02*
X13581500Y-15324500D01*
X13531500Y-15274500D01*
X13481500Y-15324500D01*
X13531500Y-15374500D01*
X13531500Y-15628500D02*
X13581500Y-15578500D01*
X13531500Y-15528500D01*
X13481500Y-15578500D01*
X13531500Y-15628500D01*
X13531500Y-15882500D02*
X13581500Y-15832500D01*
X13531500Y-15782500D01*
X13481500Y-15832500D01*
X13531500Y-15882500D01*
X13531500Y-16136500D02*
X13581500Y-16086500D01*
X13531500Y-16036500D01*
X13481500Y-16086500D01*
X13531500Y-16136500D01*
X13531500Y-16390500D02*
X13581500Y-16340500D01*
X13531500Y-16290500D01*
X13481500Y-16340500D01*
X13531500Y-16390500D01*
X13531500Y-16644500D02*
X13581500Y-16594500D01*
X13531500Y-16544500D01*
X13481500Y-16594500D01*
X13531500Y-16644500D01*
X13531500Y-16898500D02*
X13581500Y-16848500D01*
X13531500Y-16798500D01*
X13481500Y-16848500D01*
X13531500Y-16898500D01*
X13531500Y-17152500D02*
X13581500Y-17102500D01*
X13531500Y-17052500D01*
X13481500Y-17102500D01*
X13531500Y-17152500D01*
X13531500Y-17406500D02*
X13581500Y-17356500D01*
X13531500Y-17306500D01*
X13481500Y-17356500D01*
X13531500Y-17406500D01*
X13531500Y-17660500D02*
X13581500Y-17610500D01*
X13531500Y-17560500D01*
X13481500Y-17610500D01*
X13531500Y-17660500D01*
X13531500Y-17914500D02*
X13581500Y-17864500D01*
X13531500Y-17814500D01*
X13481500Y-17864500D01*
X13531500Y-17914500D01*
X13531500Y-18168500D02*
X13581500Y-18118500D01*
X13531500Y-18068500D01*
X13481500Y-18118500D01*
X13531500Y-18168500D01*
X13531500Y-18422500D02*
X13581500Y-18372500D01*
X13531500Y-18322500D01*
X13481500Y-18372500D01*
X13531500Y-18422500D01*
X13531500Y-18676500D02*
X13581500Y-18626500D01*
X13531500Y-18576500D01*
X13481500Y-18626500D01*
X13531500Y-18676500D01*
X13531500Y-18930500D02*
X13581500Y-18880500D01*
X13531500Y-18830500D01*
X13481500Y-18880500D01*
X13531500Y-18930500D01*
X13531500Y-19184500D02*
X13581500Y-19134500D01*
X13531500Y-19084500D01*
X13481500Y-19134500D01*
X13531500Y-19184500D01*
X13531500Y-19438500D02*
X13581500Y-19388500D01*
X13531500Y-19338500D01*
X13481500Y-19388500D01*
X13531500Y-19438500D01*
X13531500Y-19692500D02*
X13581500Y-19642500D01*
X13531500Y-19592500D01*
X13481500Y-19642500D01*
X13531500Y-19692500D01*
X13531500Y-19946500D02*
X13581500Y-19896500D01*
X13531500Y-19846500D01*
X13481500Y-19896500D01*
X13531500Y-19946500D01*
X13531500Y-20200500D02*
X13581500Y-20150500D01*
X13531500Y-20100500D01*
X13481500Y-20150500D01*
X13531500Y-20200500D01*
X13531500Y-20454500D02*
X13581500Y-20404500D01*
X13531500Y-20354500D01*
X13481500Y-20404500D01*
X13531500Y-20454500D01*
X13531500Y-20708500D02*
X13581500Y-20658500D01*
X13531500Y-20608500D01*
X13481500Y-20658500D01*
X13531500Y-20708500D01*
X13531500Y-20962500D02*
X13581500Y-20912500D01*
X13531500Y-20862500D01*
X13481500Y-20912500D01*
X13531500Y-20962500D01*
X13531500Y-21216500D02*
X13581500Y-21166500D01*
X13531500Y-21116500D01*
X13481500Y-21166500D01*
X13531500Y-21216500D01*
X19373500Y-12326500D02*
X19423500Y-12276500D01*
X19373500Y-12226500D01*
X19323500Y-12276500D01*
X19373500Y-12326500D01*
X19373500Y-12580500D02*
X19423500Y-12530500D01*
X19373500Y-12480500D01*
X19323500Y-12530500D01*
X19373500Y-12580500D01*
X19373500Y-12834500D02*
X19423500Y-12784500D01*
X19373500Y-12734500D01*
X19323500Y-12784500D01*
X19373500Y-12834500D01*
X19373500Y-13088500D02*
X19423500Y-13038500D01*
X19373500Y-12988500D01*
X19323500Y-13038500D01*
X19373500Y-13088500D01*
X19373500Y-13342500D02*
X19423500Y-13292500D01*
X19373500Y-13242500D01*
X19323500Y-13292500D01*
X19373500Y-13342500D01*
X19373500Y-13596500D02*
X19423500Y-13546500D01*
X19373500Y-13496500D01*
X19323500Y-13546500D01*
X19373500Y-13596500D01*
X19373500Y-13850500D02*
X19423500Y-13800500D01*
X19373500Y-13750500D01*
X19323500Y-13800500D01*
X19373500Y-13850500D01*
X19373500Y-14104500D02*
X19423500Y-14054500D01*
X19373500Y-14004500D01*
X19323500Y-14054500D01*
X19373500Y-14104500D01*
X19373500Y-14358500D02*
X19423500Y-14308500D01*
X19373500Y-14258500D01*
X19323500Y-14308500D01*
X19373500Y-14358500D01*
X19373500Y-14612500D02*
X19423500Y-14562500D01*
X19373500Y-14512500D01*
X19323500Y-14562500D01*
X19373500Y-14612500D01*
X19373500Y-14866500D02*
X19423500Y-14816500D01*
X19373500Y-14766500D01*
X19323500Y-14816500D01*
X19373500Y-14866500D01*
X19373500Y-15120500D02*
X19423500Y-15070500D01*
X19373500Y-15020500D01*
X19323500Y-15070500D01*
X19373500Y-15120500D01*
X19373500Y-15374500D02*
X19423500Y-15324500D01*
X19373500Y-15274500D01*
X19323500Y-15324500D01*
X19373500Y-15374500D01*
X19373500Y-15628500D02*
X19423500Y-15578500D01*
X19373500Y-15528500D01*
X19323500Y-15578500D01*
X19373500Y-15628500D01*
X19373500Y-15882500D02*
X19423500Y-15832500D01*
X19373500Y-15782500D01*
X19323500Y-15832500D01*
X19373500Y-15882500D01*
X19373500Y-16136500D02*
X19423500Y-16086500D01*
X19373500Y-16036500D01*
X19323500Y-16086500D01*
X19373500Y-16136500D01*
X19373500Y-16390500D02*
X19423500Y-16340500D01*
X19373500Y-16290500D01*
X19323500Y-16340500D01*
X19373500Y-16390500D01*
X19373500Y-16644500D02*
X19423500Y-16594500D01*
X19373500Y-16544500D01*
X19323500Y-16594500D01*
X19373500Y-16644500D01*
X19373500Y-16898500D02*
X19423500Y-16848500D01*
X19373500Y-16798500D01*
X19323500Y-16848500D01*
X19373500Y-16898500D01*
X19373500Y-17152500D02*
X19423500Y-17102500D01*
X19373500Y-17052500D01*
X19323500Y-17102500D01*
X19373500Y-17152500D01*
X19373500Y-17406500D02*
X19423500Y-17356500D01*
X19373500Y-17306500D01*
X19323500Y-17356500D01*
X19373500Y-17406500D01*
X19373500Y-17660500D02*
X19423500Y-17610500D01*
X19373500Y-17560500D01*
X19323500Y-17610500D01*
X19373500Y-17660500D01*
X19373500Y-17914500D02*
X19423500Y-17864500D01*
X19373500Y-17814500D01*
X19323500Y-17864500D01*
X19373500Y-17914500D01*
X19373500Y-18168500D02*
X19423500Y-18118500D01*
X19373500Y-18068500D01*
X19323500Y-18118500D01*
X19373500Y-18168500D01*
X19373500Y-18422500D02*
X19423500Y-18372500D01*
X19373500Y-18322500D01*
X19323500Y-18372500D01*
X19373500Y-18422500D01*
X19373500Y-18676500D02*
X19423500Y-18626500D01*
X19373500Y-18576500D01*
X19323500Y-18626500D01*
X19373500Y-18676500D01*
X19373500Y-18930500D02*
X19423500Y-18880500D01*
X19373500Y-18830500D01*
X19323500Y-18880500D01*
X19373500Y-18930500D01*
X19373500Y-19184500D02*
X19423500Y-19134500D01*
X19373500Y-19084500D01*
X19323500Y-19134500D01*
X19373500Y-19184500D01*
X19373500Y-19438500D02*
X19423500Y-19388500D01*
X19373500Y-19338500D01*
X19323500Y-19388500D01*
X19373500Y-19438500D01*
X19373500Y-19692500D02*
X19423500Y-19642500D01*
X19373500Y-19592500D01*
X19323500Y-19642500D01*
X19373500Y-19692500D01*
X19373500Y-19946500D02*
X19423500Y-19896500D01*
X19373500Y-19846500D01*
X19323500Y-19896500D01*
X19373500Y-19946500D01*
X19373500Y-20200500D02*
X19423500Y-20150500D01*
X19373500Y-20100500D01*
X19323500Y-20150500D01*
X19373500Y-20200500D01*
X19373500Y-20454500D02*
X19423500Y-20404500D01*
X19373500Y-20354500D01*
X19323500Y-20404500D01*
X19373500Y-20454500D01*
X19373500Y-20708500D02*
X19423500Y-20658500D01*
X19373500Y-20608500D01*
X19323500Y-20658500D01*
X19373500Y-20708500D01*
X19373500Y-20962500D02*
X19423500Y-20912500D01*
X19373500Y-20862500D01*
X19323500Y-20912500D01*
X19373500Y-20962500D01*
X19373500Y-21216500D02*
X19423500Y-21166500D01*
X19373500Y-21116500D01*
X19323500Y-21166500D01*
X19373500Y-21216500D01*
X19627500Y-9532500D02*
X19677500Y-9482500D01*
X19627500Y-9432500D01*
X19577500Y-9482500D01*
X19627500Y-9532500D01*
X19627500Y-9786500D02*
X19677500Y-9736500D01*
X19627500Y-9686500D01*
X19577500Y-9736500D01*
X19627500Y-9786500D01*
X19627500Y-12326500D02*
X19677500Y-12276500D01*
X19627500Y-12226500D01*
X19577500Y-12276500D01*
X19627500Y-12326500D01*
X19627500Y-12580500D02*
X19677500Y-12530500D01*
X19627500Y-12480500D01*
X19577500Y-12530500D01*
X19627500Y-12580500D01*
X19627500Y-12834500D02*
X19677500Y-12784500D01*
X19627500Y-12734500D01*
X19577500Y-12784500D01*
X19627500Y-12834500D01*
X19627500Y-13088500D02*
X19677500Y-13038500D01*
X19627500Y-12988500D01*
X19577500Y-13038500D01*
X19627500Y-13088500D01*
X19627500Y-13342500D02*
X19677500Y-13292500D01*
X19627500Y-13242500D01*
X19577500Y-13292500D01*
X19627500Y-13342500D01*
X19627500Y-13596500D02*
X19677500Y-13546500D01*
X19627500Y-13496500D01*
X19577500Y-13546500D01*
X19627500Y-13596500D01*
X19627500Y-13850500D02*
X19677500Y-13800500D01*
X19627500Y-13750500D01*
X19577500Y-13800500D01*
X19627500Y-13850500D01*
X19627500Y-14104500D02*
X19677500Y-14054500D01*
X19627500Y-14004500D01*
X19577500Y-14054500D01*
X19627500Y-14104500D01*
X19627500Y-14358500D02*
X19677500Y-14308500D01*
X19627500Y-14258500D01*
X19577500Y-14308500D01*
X19627500Y-14358500D01*
X19627500Y-14612500D02*
X19677500Y-14562500D01*
X19627500Y-14512500D01*
X19577500Y-14562500D01*
X19627500Y-14612500D01*
X19627500Y-14866500D02*
X19677500Y-14816500D01*
X19627500Y-14766500D01*
X19577500Y-14816500D01*
X19627500Y-14866500D01*
X19627500Y-15120500D02*
X19677500Y-15070500D01*
X19627500Y-15020500D01*
X19577500Y-15070500D01*
X19627500Y-15120500D01*
X19627500Y-15374500D02*
X19677500Y-15324500D01*
X19627500Y-15274500D01*
X19577500Y-15324500D01*
X19627500Y-15374500D01*
X19627500Y-15628500D02*
X19677500Y-15578500D01*
X19627500Y-15528500D01*
X19577500Y-15578500D01*
X19627500Y-15628500D01*
X19627500Y-15882500D02*
X19677500Y-15832500D01*
X19627500Y-15782500D01*
X19577500Y-15832500D01*
X19627500Y-15882500D01*
X19627500Y-16136500D02*
X19677500Y-16086500D01*
X19627500Y-16036500D01*
X19577500Y-16086500D01*
X19627500Y-16136500D01*
X19627500Y-16390500D02*
X19677500Y-16340500D01*
X19627500Y-16290500D01*
X19577500Y-16340500D01*
X19627500Y-16390500D01*
X19627500Y-16644500D02*
X19677500Y-16594500D01*
X19627500Y-16544500D01*
X19577500Y-16594500D01*
X19627500Y-16644500D01*
X19627500Y-16898500D02*
X19677500Y-16848500D01*
X19627500Y-16798500D01*
X19577500Y-16848500D01*
X19627500Y-16898500D01*
X19627500Y-17152500D02*
X19677500Y-17102500D01*
X19627500Y-17052500D01*
X19577500Y-17102500D01*
X19627500Y-17152500D01*
X19627500Y-17406500D02*
X19677500Y-17356500D01*
X19627500Y-17306500D01*
X19577500Y-17356500D01*
X19627500Y-17406500D01*
X19627500Y-17660500D02*
X19677500Y-17610500D01*
X19627500Y-17560500D01*
X19577500Y-17610500D01*
X19627500Y-17660500D01*
X19627500Y-17914500D02*
X19677500Y-17864500D01*
X19627500Y-17814500D01*
X19577500Y-17864500D01*
X19627500Y-17914500D01*
X19627500Y-18168500D02*
X19677500Y-18118500D01*
X19627500Y-18068500D01*
X19577500Y-18118500D01*
X19627500Y-18168500D01*
X19627500Y-18422500D02*
X19677500Y-18372500D01*
X19627500Y-18322500D01*
X19577500Y-18372500D01*
X19627500Y-18422500D01*
X19627500Y-18676500D02*
X19677500Y-18626500D01*
X19627500Y-18576500D01*
X19577500Y-18626500D01*
X19627500Y-18676500D01*
X19627500Y-18930500D02*
X19677500Y-18880500D01*
X19627500Y-18830500D01*
X19577500Y-18880500D01*
X19627500Y-18930500D01*
X19627500Y-19184500D02*
X19677500Y-19134500D01*
X19627500Y-19084500D01*
X19577500Y-19134500D01*
X19627500Y-19184500D01*
X19627500Y-19438500D02*
X19677500Y-19388500D01*
X19627500Y-19338500D01*
X19577500Y-19388500D01*
X19627500Y-19438500D01*
X19627500Y-19692500D02*
X19677500Y-19642500D01*
X19627500Y-19592500D01*
X19577500Y-19642500D01*
X19627500Y-19692500D01*
X19627500Y-19946500D02*
X19677500Y-19896500D01*
X19627500Y-19846500D01*
X19577500Y-19896500D01*
X19627500Y-19946500D01*
X19627500Y-20200500D02*
X19677500Y-20150500D01*
X19627500Y-20100500D01*
X19577500Y-20150500D01*
X19627500Y-20200500D01*
X19627500Y-20454500D02*
X19677500Y-20404500D01*
X19627500Y-20354500D01*
X19577500Y-20404500D01*
X19627500Y-20454500D01*
X19627500Y-20708500D02*
X19677500Y-20658500D01*
X19627500Y-20608500D01*
X19577500Y-20658500D01*
X19627500Y-20708500D01*
X19627500Y-20962500D02*
X19677500Y-20912500D01*
X19627500Y-20862500D01*
X19577500Y-20912500D01*
X19627500Y-20962500D01*
X19627500Y-21216500D02*
X19677500Y-21166500D01*
X19627500Y-21116500D01*
X19577500Y-21166500D01*
X19627500Y-21216500D01*
D13*
X7925200Y-12951200D02*
X8026800Y-13052800D01*
X8026800Y-12951200D02*
X7925200Y-13052800D01*
X8026800Y-13002000D02*
G75*
G02*
X7925200Y-13002000I-50800J0D01*
G01*
X7925200Y-13002000D02*
G75*
G02*
X8026800Y-13002000I50800J0D01*
G01*
X7925200Y-13205200D02*
X8026800Y-13306800D01*
X8026800Y-13205200D02*
X7925200Y-13306800D01*
X8026800Y-13256000D02*
G75*
G02*
X7925200Y-13256000I-50800J0D01*
G01*
X7925200Y-13256000D02*
G75*
G02*
X8026800Y-13256000I50800J0D01*
G01*
X10649200Y-9849200D02*
X10750800Y-9950800D01*
X10750800Y-9849200D02*
X10649200Y-9950800D01*
X10750800Y-9900000D02*
G75*
G02*
X10649200Y-9900000I-50800J0D01*
G01*
X10649200Y-9900000D02*
G75*
G02*
X10750800Y-9900000I50800J0D01*
G01*
X10649200Y-10103200D02*
X10750800Y-10204800D01*
X10750800Y-10103200D02*
X10649200Y-10204800D01*
X10750800Y-10154000D02*
G75*
G02*
X10649200Y-10154000I-50800J0D01*
G01*
X10649200Y-10154000D02*
G75*
G02*
X10750800Y-10154000I50800J0D01*
G01*
X10649200Y-10357200D02*
X10750800Y-10458800D01*
X10750800Y-10357200D02*
X10649200Y-10458800D01*
X10750800Y-10408000D02*
G75*
G02*
X10649200Y-10408000I-50800J0D01*
G01*
X10649200Y-10408000D02*
G75*
G02*
X10750800Y-10408000I50800J0D01*
G01*
X10649200Y-10611200D02*
X10750800Y-10712800D01*
X10750800Y-10611200D02*
X10649200Y-10712800D01*
X10750800Y-10662000D02*
G75*
G02*
X10649200Y-10662000I-50800J0D01*
G01*
X10649200Y-10662000D02*
G75*
G02*
X10750800Y-10662000I50800J0D01*
G01*
X10649200Y-10865200D02*
X10750800Y-10966800D01*
X10750800Y-10865200D02*
X10649200Y-10966800D01*
X10750800Y-10916000D02*
G75*
G02*
X10649200Y-10916000I-50800J0D01*
G01*
X10649200Y-10916000D02*
G75*
G02*
X10750800Y-10916000I50800J0D01*
G01*
X10649200Y-11119200D02*
X10750800Y-11220800D01*
X10750800Y-11119200D02*
X10649200Y-11220800D01*
X10750800Y-11170000D02*
G75*
G02*
X10649200Y-11170000I-50800J0D01*
G01*
X10649200Y-11170000D02*
G75*
G02*
X10750800Y-11170000I50800J0D01*
G01*
X10649200Y-11373200D02*
X10750800Y-11474800D01*
X10750800Y-11373200D02*
X10649200Y-11474800D01*
X10750800Y-11424000D02*
G75*
G02*
X10649200Y-11424000I-50800J0D01*
G01*
X10649200Y-11424000D02*
G75*
G02*
X10750800Y-11424000I50800J0D01*
G01*
X10649200Y-11627200D02*
X10750800Y-11728800D01*
X10750800Y-11627200D02*
X10649200Y-11728800D01*
X10750800Y-11678000D02*
G75*
G02*
X10649200Y-11678000I-50800J0D01*
G01*
X10649200Y-11678000D02*
G75*
G02*
X10750800Y-11678000I50800J0D01*
G01*
X10649200Y-11881200D02*
X10750800Y-11982800D01*
X10750800Y-11881200D02*
X10649200Y-11982800D01*
X10750800Y-11932000D02*
G75*
G02*
X10649200Y-11932000I-50800J0D01*
G01*
X10649200Y-11932000D02*
G75*
G02*
X10750800Y-11932000I50800J0D01*
G01*
X10649200Y-12135200D02*
X10750800Y-12236800D01*
X10750800Y-12135200D02*
X10649200Y-12236800D01*
X10750800Y-12186000D02*
G75*
G02*
X10649200Y-12186000I-50800J0D01*
G01*
X10649200Y-12186000D02*
G75*
G02*
X10750800Y-12186000I50800J0D01*
G01*
X10649200Y-12389200D02*
X10750800Y-12490800D01*
X10750800Y-12389200D02*
X10649200Y-12490800D01*
X10750800Y-12440000D02*
G75*
G02*
X10649200Y-12440000I-50800J0D01*
G01*
X10649200Y-12440000D02*
G75*
G02*
X10750800Y-12440000I50800J0D01*
G01*
X10649200Y-12643200D02*
X10750800Y-12744800D01*
X10750800Y-12643200D02*
X10649200Y-12744800D01*
X10750800Y-12694000D02*
G75*
G02*
X10649200Y-12694000I-50800J0D01*
G01*
X10649200Y-12694000D02*
G75*
G02*
X10750800Y-12694000I50800J0D01*
G01*
X10649200Y-12897200D02*
X10750800Y-12998800D01*
X10750800Y-12897200D02*
X10649200Y-12998800D01*
X10750800Y-12948000D02*
G75*
G02*
X10649200Y-12948000I-50800J0D01*
G01*
X10649200Y-12948000D02*
G75*
G02*
X10750800Y-12948000I50800J0D01*
G01*
X10903200Y-9849200D02*
X11004800Y-9950800D01*
X11004800Y-9849200D02*
X10903200Y-9950800D01*
X11004800Y-9900000D02*
G75*
G02*
X10903200Y-9900000I-50800J0D01*
G01*
X10903200Y-9900000D02*
G75*
G02*
X11004800Y-9900000I50800J0D01*
G01*
X10903200Y-10103200D02*
X11004800Y-10204800D01*
X11004800Y-10103200D02*
X10903200Y-10204800D01*
X11004800Y-10154000D02*
G75*
G02*
X10903200Y-10154000I-50800J0D01*
G01*
X10903200Y-10154000D02*
G75*
G02*
X11004800Y-10154000I50800J0D01*
G01*
X10903200Y-10357200D02*
X11004800Y-10458800D01*
X11004800Y-10357200D02*
X10903200Y-10458800D01*
X11004800Y-10408000D02*
G75*
G02*
X10903200Y-10408000I-50800J0D01*
G01*
X10903200Y-10408000D02*
G75*
G02*
X11004800Y-10408000I50800J0D01*
G01*
X10903200Y-10611200D02*
X11004800Y-10712800D01*
X11004800Y-10611200D02*
X10903200Y-10712800D01*
X11004800Y-10662000D02*
G75*
G02*
X10903200Y-10662000I-50800J0D01*
G01*
X10903200Y-10662000D02*
G75*
G02*
X11004800Y-10662000I50800J0D01*
G01*
X10903200Y-10865200D02*
X11004800Y-10966800D01*
X11004800Y-10865200D02*
X10903200Y-10966800D01*
X11004800Y-10916000D02*
G75*
G02*
X10903200Y-10916000I-50800J0D01*
G01*
X10903200Y-10916000D02*
G75*
G02*
X11004800Y-10916000I50800J0D01*
G01*
X10903200Y-11119200D02*
X11004800Y-11220800D01*
X11004800Y-11119200D02*
X10903200Y-11220800D01*
X11004800Y-11170000D02*
G75*
G02*
X10903200Y-11170000I-50800J0D01*
G01*
X10903200Y-11170000D02*
G75*
G02*
X11004800Y-11170000I50800J0D01*
G01*
X10903200Y-11373200D02*
X11004800Y-11474800D01*
X11004800Y-11373200D02*
X10903200Y-11474800D01*
X11004800Y-11424000D02*
G75*
G02*
X10903200Y-11424000I-50800J0D01*
G01*
X10903200Y-11424000D02*
G75*
G02*
X11004800Y-11424000I50800J0D01*
G01*
X10903200Y-11627200D02*
X11004800Y-11728800D01*
X11004800Y-11627200D02*
X10903200Y-11728800D01*
X11004800Y-11678000D02*
G75*
G02*
X10903200Y-11678000I-50800J0D01*
G01*
X10903200Y-11678000D02*
G75*
G02*
X11004800Y-11678000I50800J0D01*
G01*
X10903200Y-11881200D02*
X11004800Y-11982800D01*
X11004800Y-11881200D02*
X10903200Y-11982800D01*
X11004800Y-11932000D02*
G75*
G02*
X10903200Y-11932000I-50800J0D01*
G01*
X10903200Y-11932000D02*
G75*
G02*
X11004800Y-11932000I50800J0D01*
G01*
X10903200Y-12135200D02*
X11004800Y-12236800D01*
X11004800Y-12135200D02*
X10903200Y-12236800D01*
X11004800Y-12186000D02*
G75*
G02*
X10903200Y-12186000I-50800J0D01*
G01*
X10903200Y-12186000D02*
G75*
G02*
X11004800Y-12186000I50800J0D01*
G01*
X10903200Y-12389200D02*
X11004800Y-12490800D01*
X11004800Y-12389200D02*
X10903200Y-12490800D01*
X11004800Y-12440000D02*
G75*
G02*
X10903200Y-12440000I-50800J0D01*
G01*
X10903200Y-12440000D02*
G75*
G02*
X11004800Y-12440000I50800J0D01*
G01*
X10903200Y-12643200D02*
X11004800Y-12744800D01*
X11004800Y-12643200D02*
X10903200Y-12744800D01*
X11004800Y-12694000D02*
G75*
G02*
X10903200Y-12694000I-50800J0D01*
G01*
X10903200Y-12694000D02*
G75*
G02*
X11004800Y-12694000I50800J0D01*
G01*
X10903200Y-12897200D02*
X11004800Y-12998800D01*
X11004800Y-12897200D02*
X10903200Y-12998800D01*
X11004800Y-12948000D02*
G75*
G02*
X10903200Y-12948000I-50800J0D01*
G01*
X10903200Y-12948000D02*
G75*
G02*
X11004800Y-12948000I50800J0D01*
G01*
D14*
X7090000Y-13499000D02*
X7390000Y-13799000D01*
X7390000Y-13499000D02*
X7090000Y-13799000D01*
X7240000Y-13499000D02*
X7240000Y-13799000D01*
X7090000Y-13649000D02*
X7390000Y-13649000D01*
X10640000Y-8899000D02*
X10940000Y-9199000D01*
X10940000Y-8899000D02*
X10640000Y-9199000D01*
X10790000Y-8899000D02*
X10790000Y-9199000D01*
X10640000Y-9049000D02*
X10940000Y-9049000D01*
X10640000Y-13499000D02*
X10940000Y-13799000D01*
X10940000Y-13499000D02*
X10640000Y-13799000D01*
X10790000Y-13499000D02*
X10790000Y-13799000D01*
X10640000Y-13649000D02*
X10940000Y-13649000D01*
D11*
X5758277Y-23213984D02*
X5758277Y-23013984D01*
X5758277Y-23013984D02*
X5805896Y-23013984D01*
X5805896Y-23013984D02*
X5834467Y-23023508D01*
X5834467Y-23023508D02*
X5853515Y-23042555D01*
X5853515Y-23042555D02*
X5863039Y-23061603D01*
X5863039Y-23061603D02*
X5872562Y-23099698D01*
X5872562Y-23099698D02*
X5872562Y-23128269D01*
X5872562Y-23128269D02*
X5863039Y-23166365D01*
X5863039Y-23166365D02*
X5853515Y-23185412D01*
X5853515Y-23185412D02*
X5834467Y-23204460D01*
X5834467Y-23204460D02*
X5805896Y-23213984D01*
X5805896Y-23213984D02*
X5758277Y-23213984D01*
X5958277Y-23213984D02*
X5958277Y-23080650D01*
X5958277Y-23118746D02*
X5967801Y-23099698D01*
X5967801Y-23099698D02*
X5977324Y-23090174D01*
X5977324Y-23090174D02*
X5996372Y-23080650D01*
X5996372Y-23080650D02*
X6015420Y-23080650D01*
X6082086Y-23213984D02*
X6082086Y-23080650D01*
X6082086Y-23013984D02*
X6072562Y-23023508D01*
X6072562Y-23023508D02*
X6082086Y-23033031D01*
X6082086Y-23033031D02*
X6091610Y-23023508D01*
X6091610Y-23023508D02*
X6082086Y-23013984D01*
X6082086Y-23013984D02*
X6082086Y-23033031D01*
X6205896Y-23213984D02*
X6186848Y-23204460D01*
X6186848Y-23204460D02*
X6177324Y-23185412D01*
X6177324Y-23185412D02*
X6177324Y-23013984D01*
X6310658Y-23213984D02*
X6291610Y-23204460D01*
X6291610Y-23204460D02*
X6282086Y-23185412D01*
X6282086Y-23185412D02*
X6282086Y-23013984D01*
X6539229Y-23213984D02*
X6539229Y-23013984D01*
X6539229Y-23013984D02*
X6605896Y-23156841D01*
X6605896Y-23156841D02*
X6672562Y-23013984D01*
X6672562Y-23013984D02*
X6672562Y-23213984D01*
X6853515Y-23213984D02*
X6853515Y-23109222D01*
X6853515Y-23109222D02*
X6843991Y-23090174D01*
X6843991Y-23090174D02*
X6824943Y-23080650D01*
X6824943Y-23080650D02*
X6786848Y-23080650D01*
X6786848Y-23080650D02*
X6767801Y-23090174D01*
X6853515Y-23204460D02*
X6834467Y-23213984D01*
X6834467Y-23213984D02*
X6786848Y-23213984D01*
X6786848Y-23213984D02*
X6767801Y-23204460D01*
X6767801Y-23204460D02*
X6758277Y-23185412D01*
X6758277Y-23185412D02*
X6758277Y-23166365D01*
X6758277Y-23166365D02*
X6767801Y-23147317D01*
X6767801Y-23147317D02*
X6786848Y-23137793D01*
X6786848Y-23137793D02*
X6834467Y-23137793D01*
X6834467Y-23137793D02*
X6853515Y-23128269D01*
X6948753Y-23080650D02*
X6948753Y-23280650D01*
X6948753Y-23090174D02*
X6967801Y-23080650D01*
X6967801Y-23080650D02*
X7005896Y-23080650D01*
X7005896Y-23080650D02*
X7024943Y-23090174D01*
X7024943Y-23090174D02*
X7034467Y-23099698D01*
X7034467Y-23099698D02*
X7043991Y-23118746D01*
X7043991Y-23118746D02*
X7043991Y-23175888D01*
X7043991Y-23175888D02*
X7034467Y-23194936D01*
X7034467Y-23194936D02*
X7024943Y-23204460D01*
X7024943Y-23204460D02*
X7005896Y-23213984D01*
X7005896Y-23213984D02*
X6967801Y-23213984D01*
X6967801Y-23213984D02*
X6948753Y-23204460D01*
X7129705Y-23194936D02*
X7139229Y-23204460D01*
X7139229Y-23204460D02*
X7129705Y-23213984D01*
X7129705Y-23213984D02*
X7120182Y-23204460D01*
X7120182Y-23204460D02*
X7129705Y-23194936D01*
X7129705Y-23194936D02*
X7129705Y-23213984D01*
X7129705Y-23090174D02*
X7139229Y-23099698D01*
X7139229Y-23099698D02*
X7129705Y-23109222D01*
X7129705Y-23109222D02*
X7120182Y-23099698D01*
X7120182Y-23099698D02*
X7129705Y-23090174D01*
X7129705Y-23090174D02*
X7129705Y-23109222D01*
D12*
X5467500Y-23527500D02*
X5497500Y-23557500D01*
X5497500Y-23527500D02*
X5467500Y-23557500D01*
D11*
X5796372Y-23433984D02*
X5815420Y-23433984D01*
X5815420Y-23433984D02*
X5834467Y-23443508D01*
X5834467Y-23443508D02*
X5843991Y-23453031D01*
X5843991Y-23453031D02*
X5853515Y-23472079D01*
X5853515Y-23472079D02*
X5863039Y-23510174D01*
X5863039Y-23510174D02*
X5863039Y-23557793D01*
X5863039Y-23557793D02*
X5853515Y-23595888D01*
X5853515Y-23595888D02*
X5843991Y-23614936D01*
X5843991Y-23614936D02*
X5834467Y-23624460D01*
X5834467Y-23624460D02*
X5815420Y-23633984D01*
X5815420Y-23633984D02*
X5796372Y-23633984D01*
X5796372Y-23633984D02*
X5777324Y-23624460D01*
X5777324Y-23624460D02*
X5767801Y-23614936D01*
X5767801Y-23614936D02*
X5758277Y-23595888D01*
X5758277Y-23595888D02*
X5748753Y-23557793D01*
X5748753Y-23557793D02*
X5748753Y-23510174D01*
X5748753Y-23510174D02*
X5758277Y-23472079D01*
X5758277Y-23472079D02*
X5767801Y-23453031D01*
X5767801Y-23453031D02*
X5777324Y-23443508D01*
X5777324Y-23443508D02*
X5796372Y-23433984D01*
X5948753Y-23614936D02*
X5958277Y-23624460D01*
X5958277Y-23624460D02*
X5948753Y-23633984D01*
X5948753Y-23633984D02*
X5939229Y-23624460D01*
X5939229Y-23624460D02*
X5948753Y-23614936D01*
X5948753Y-23614936D02*
X5948753Y-23633984D01*
X6024943Y-23433984D02*
X6148753Y-23433984D01*
X6148753Y-23433984D02*
X6082086Y-23510174D01*
X6082086Y-23510174D02*
X6110658Y-23510174D01*
X6110658Y-23510174D02*
X6129705Y-23519698D01*
X6129705Y-23519698D02*
X6139229Y-23529222D01*
X6139229Y-23529222D02*
X6148753Y-23548269D01*
X6148753Y-23548269D02*
X6148753Y-23595888D01*
X6148753Y-23595888D02*
X6139229Y-23614936D01*
X6139229Y-23614936D02*
X6129705Y-23624460D01*
X6129705Y-23624460D02*
X6110658Y-23633984D01*
X6110658Y-23633984D02*
X6053515Y-23633984D01*
X6053515Y-23633984D02*
X6034467Y-23624460D01*
X6034467Y-23624460D02*
X6024943Y-23614936D01*
X6272562Y-23433984D02*
X6291610Y-23433984D01*
X6291610Y-23433984D02*
X6310658Y-23443508D01*
X6310658Y-23443508D02*
X6320182Y-23453031D01*
X6320182Y-23453031D02*
X6329705Y-23472079D01*
X6329705Y-23472079D02*
X6339229Y-23510174D01*
X6339229Y-23510174D02*
X6339229Y-23557793D01*
X6339229Y-23557793D02*
X6329705Y-23595888D01*
X6329705Y-23595888D02*
X6320182Y-23614936D01*
X6320182Y-23614936D02*
X6310658Y-23624460D01*
X6310658Y-23624460D02*
X6291610Y-23633984D01*
X6291610Y-23633984D02*
X6272562Y-23633984D01*
X6272562Y-23633984D02*
X6253515Y-23624460D01*
X6253515Y-23624460D02*
X6243991Y-23614936D01*
X6243991Y-23614936D02*
X6234467Y-23595888D01*
X6234467Y-23595888D02*
X6224943Y-23557793D01*
X6224943Y-23557793D02*
X6224943Y-23510174D01*
X6224943Y-23510174D02*
X6234467Y-23472079D01*
X6234467Y-23472079D02*
X6243991Y-23453031D01*
X6243991Y-23453031D02*
X6253515Y-23443508D01*
X6253515Y-23443508D02*
X6272562Y-23433984D01*
X6463039Y-23433984D02*
X6482086Y-23433984D01*
X6482086Y-23433984D02*
X6501134Y-23443508D01*
X6501134Y-23443508D02*
X6510658Y-23453031D01*
X6510658Y-23453031D02*
X6520182Y-23472079D01*
X6520182Y-23472079D02*
X6529705Y-23510174D01*
X6529705Y-23510174D02*
X6529705Y-23557793D01*
X6529705Y-23557793D02*
X6520182Y-23595888D01*
X6520182Y-23595888D02*
X6510658Y-23614936D01*
X6510658Y-23614936D02*
X6501134Y-23624460D01*
X6501134Y-23624460D02*
X6482086Y-23633984D01*
X6482086Y-23633984D02*
X6463039Y-23633984D01*
X6463039Y-23633984D02*
X6443991Y-23624460D01*
X6443991Y-23624460D02*
X6434467Y-23614936D01*
X6434467Y-23614936D02*
X6424943Y-23595888D01*
X6424943Y-23595888D02*
X6415420Y-23557793D01*
X6415420Y-23557793D02*
X6415420Y-23510174D01*
X6415420Y-23510174D02*
X6424943Y-23472079D01*
X6424943Y-23472079D02*
X6434467Y-23453031D01*
X6434467Y-23453031D02*
X6443991Y-23443508D01*
X6443991Y-23443508D02*
X6463039Y-23433984D01*
X6615420Y-23633984D02*
X6615420Y-23500650D01*
X6615420Y-23519698D02*
X6624943Y-23510174D01*
X6624943Y-23510174D02*
X6643991Y-23500650D01*
X6643991Y-23500650D02*
X6672563Y-23500650D01*
X6672563Y-23500650D02*
X6691610Y-23510174D01*
X6691610Y-23510174D02*
X6701134Y-23529222D01*
X6701134Y-23529222D02*
X6701134Y-23633984D01*
X6701134Y-23529222D02*
X6710658Y-23510174D01*
X6710658Y-23510174D02*
X6729705Y-23500650D01*
X6729705Y-23500650D02*
X6758277Y-23500650D01*
X6758277Y-23500650D02*
X6777324Y-23510174D01*
X6777324Y-23510174D02*
X6786848Y-23529222D01*
X6786848Y-23529222D02*
X6786848Y-23633984D01*
X6882086Y-23633984D02*
X6882086Y-23500650D01*
X6882086Y-23519698D02*
X6891610Y-23510174D01*
X6891610Y-23510174D02*
X6910658Y-23500650D01*
X6910658Y-23500650D02*
X6939229Y-23500650D01*
X6939229Y-23500650D02*
X6958277Y-23510174D01*
X6958277Y-23510174D02*
X6967801Y-23529222D01*
X6967801Y-23529222D02*
X6967801Y-23633984D01*
X6967801Y-23529222D02*
X6977324Y-23510174D01*
X6977324Y-23510174D02*
X6996372Y-23500650D01*
X6996372Y-23500650D02*
X7024943Y-23500650D01*
X7024943Y-23500650D02*
X7043991Y-23510174D01*
X7043991Y-23510174D02*
X7053515Y-23529222D01*
X7053515Y-23529222D02*
X7053515Y-23633984D01*
X7443991Y-23424460D02*
X7272563Y-23681603D01*
X7701134Y-23433984D02*
X7720182Y-23433984D01*
X7720182Y-23433984D02*
X7739229Y-23443508D01*
X7739229Y-23443508D02*
X7748753Y-23453031D01*
X7748753Y-23453031D02*
X7758277Y-23472079D01*
X7758277Y-23472079D02*
X7767801Y-23510174D01*
X7767801Y-23510174D02*
X7767801Y-23557793D01*
X7767801Y-23557793D02*
X7758277Y-23595888D01*
X7758277Y-23595888D02*
X7748753Y-23614936D01*
X7748753Y-23614936D02*
X7739229Y-23624460D01*
X7739229Y-23624460D02*
X7720182Y-23633984D01*
X7720182Y-23633984D02*
X7701134Y-23633984D01*
X7701134Y-23633984D02*
X7682086Y-23624460D01*
X7682086Y-23624460D02*
X7672563Y-23614936D01*
X7672563Y-23614936D02*
X7663039Y-23595888D01*
X7663039Y-23595888D02*
X7653515Y-23557793D01*
X7653515Y-23557793D02*
X7653515Y-23510174D01*
X7653515Y-23510174D02*
X7663039Y-23472079D01*
X7663039Y-23472079D02*
X7672563Y-23453031D01*
X7672563Y-23453031D02*
X7682086Y-23443508D01*
X7682086Y-23443508D02*
X7701134Y-23433984D01*
X7853515Y-23614936D02*
X7863039Y-23624460D01*
X7863039Y-23624460D02*
X7853515Y-23633984D01*
X7853515Y-23633984D02*
X7843991Y-23624460D01*
X7843991Y-23624460D02*
X7853515Y-23614936D01*
X7853515Y-23614936D02*
X7853515Y-23633984D01*
X7986848Y-23433984D02*
X8005896Y-23433984D01*
X8005896Y-23433984D02*
X8024944Y-23443508D01*
X8024944Y-23443508D02*
X8034467Y-23453031D01*
X8034467Y-23453031D02*
X8043991Y-23472079D01*
X8043991Y-23472079D02*
X8053515Y-23510174D01*
X8053515Y-23510174D02*
X8053515Y-23557793D01*
X8053515Y-23557793D02*
X8043991Y-23595888D01*
X8043991Y-23595888D02*
X8034467Y-23614936D01*
X8034467Y-23614936D02*
X8024944Y-23624460D01*
X8024944Y-23624460D02*
X8005896Y-23633984D01*
X8005896Y-23633984D02*
X7986848Y-23633984D01*
X7986848Y-23633984D02*
X7967801Y-23624460D01*
X7967801Y-23624460D02*
X7958277Y-23614936D01*
X7958277Y-23614936D02*
X7948753Y-23595888D01*
X7948753Y-23595888D02*
X7939229Y-23557793D01*
X7939229Y-23557793D02*
X7939229Y-23510174D01*
X7939229Y-23510174D02*
X7948753Y-23472079D01*
X7948753Y-23472079D02*
X7958277Y-23453031D01*
X7958277Y-23453031D02*
X7967801Y-23443508D01*
X7967801Y-23443508D02*
X7986848Y-23433984D01*
X8243991Y-23633984D02*
X8129706Y-23633984D01*
X8186848Y-23633984D02*
X8186848Y-23433984D01*
X8186848Y-23433984D02*
X8167801Y-23462555D01*
X8167801Y-23462555D02*
X8148753Y-23481603D01*
X8148753Y-23481603D02*
X8129706Y-23491127D01*
X8434468Y-23633984D02*
X8320182Y-23633984D01*
X8377325Y-23633984D02*
X8377325Y-23433984D01*
X8377325Y-23433984D02*
X8358277Y-23462555D01*
X8358277Y-23462555D02*
X8339229Y-23481603D01*
X8339229Y-23481603D02*
X8320182Y-23491127D01*
X8548753Y-23519698D02*
X8529706Y-23510174D01*
X8529706Y-23510174D02*
X8520182Y-23500650D01*
X8520182Y-23500650D02*
X8510658Y-23481603D01*
X8510658Y-23481603D02*
X8510658Y-23472079D01*
X8510658Y-23472079D02*
X8520182Y-23453031D01*
X8520182Y-23453031D02*
X8529706Y-23443508D01*
X8529706Y-23443508D02*
X8548753Y-23433984D01*
X8548753Y-23433984D02*
X8586849Y-23433984D01*
X8586849Y-23433984D02*
X8605896Y-23443508D01*
X8605896Y-23443508D02*
X8615420Y-23453031D01*
X8615420Y-23453031D02*
X8624944Y-23472079D01*
X8624944Y-23472079D02*
X8624944Y-23481603D01*
X8624944Y-23481603D02*
X8615420Y-23500650D01*
X8615420Y-23500650D02*
X8605896Y-23510174D01*
X8605896Y-23510174D02*
X8586849Y-23519698D01*
X8586849Y-23519698D02*
X8548753Y-23519698D01*
X8548753Y-23519698D02*
X8529706Y-23529222D01*
X8529706Y-23529222D02*
X8520182Y-23538746D01*
X8520182Y-23538746D02*
X8510658Y-23557793D01*
X8510658Y-23557793D02*
X8510658Y-23595888D01*
X8510658Y-23595888D02*
X8520182Y-23614936D01*
X8520182Y-23614936D02*
X8529706Y-23624460D01*
X8529706Y-23624460D02*
X8548753Y-23633984D01*
X8548753Y-23633984D02*
X8586849Y-23633984D01*
X8586849Y-23633984D02*
X8605896Y-23624460D01*
X8605896Y-23624460D02*
X8615420Y-23614936D01*
X8615420Y-23614936D02*
X8624944Y-23595888D01*
X8624944Y-23595888D02*
X8624944Y-23557793D01*
X8624944Y-23557793D02*
X8615420Y-23538746D01*
X8615420Y-23538746D02*
X8605896Y-23529222D01*
X8605896Y-23529222D02*
X8586849Y-23519698D01*
X8701134Y-23433984D02*
X8701134Y-23472079D01*
X8777325Y-23433984D02*
X8777325Y-23472079D01*
X9072563Y-23710174D02*
X9063039Y-23700650D01*
X9063039Y-23700650D02*
X9043991Y-23672079D01*
X9043991Y-23672079D02*
X9034468Y-23653031D01*
X9034468Y-23653031D02*
X9024944Y-23624460D01*
X9024944Y-23624460D02*
X9015420Y-23576841D01*
X9015420Y-23576841D02*
X9015420Y-23538746D01*
X9015420Y-23538746D02*
X9024944Y-23491127D01*
X9024944Y-23491127D02*
X9034468Y-23462555D01*
X9034468Y-23462555D02*
X9043991Y-23443508D01*
X9043991Y-23443508D02*
X9063039Y-23414936D01*
X9063039Y-23414936D02*
X9072563Y-23405412D01*
X9139230Y-23453031D02*
X9148753Y-23443508D01*
X9148753Y-23443508D02*
X9167801Y-23433984D01*
X9167801Y-23433984D02*
X9215420Y-23433984D01*
X9215420Y-23433984D02*
X9234468Y-23443508D01*
X9234468Y-23443508D02*
X9243991Y-23453031D01*
X9243991Y-23453031D02*
X9253515Y-23472079D01*
X9253515Y-23472079D02*
X9253515Y-23491127D01*
X9253515Y-23491127D02*
X9243991Y-23519698D01*
X9243991Y-23519698D02*
X9129706Y-23633984D01*
X9129706Y-23633984D02*
X9253515Y-23633984D01*
X9424944Y-23500650D02*
X9424944Y-23633984D01*
X9377325Y-23424460D02*
X9329706Y-23567317D01*
X9329706Y-23567317D02*
X9453515Y-23567317D01*
X9682087Y-23633984D02*
X9682087Y-23433984D01*
X9767801Y-23633984D02*
X9767801Y-23529222D01*
X9767801Y-23529222D02*
X9758277Y-23510174D01*
X9758277Y-23510174D02*
X9739230Y-23500650D01*
X9739230Y-23500650D02*
X9710658Y-23500650D01*
X9710658Y-23500650D02*
X9691611Y-23510174D01*
X9691611Y-23510174D02*
X9682087Y-23519698D01*
X9891611Y-23633984D02*
X9872563Y-23624460D01*
X9872563Y-23624460D02*
X9863039Y-23614936D01*
X9863039Y-23614936D02*
X9853515Y-23595888D01*
X9853515Y-23595888D02*
X9853515Y-23538746D01*
X9853515Y-23538746D02*
X9863039Y-23519698D01*
X9863039Y-23519698D02*
X9872563Y-23510174D01*
X9872563Y-23510174D02*
X9891611Y-23500650D01*
X9891611Y-23500650D02*
X9920182Y-23500650D01*
X9920182Y-23500650D02*
X9939230Y-23510174D01*
X9939230Y-23510174D02*
X9948753Y-23519698D01*
X9948753Y-23519698D02*
X9958277Y-23538746D01*
X9958277Y-23538746D02*
X9958277Y-23595888D01*
X9958277Y-23595888D02*
X9948753Y-23614936D01*
X9948753Y-23614936D02*
X9939230Y-23624460D01*
X9939230Y-23624460D02*
X9920182Y-23633984D01*
X9920182Y-23633984D02*
X9891611Y-23633984D01*
X10072563Y-23633984D02*
X10053515Y-23624460D01*
X10053515Y-23624460D02*
X10043992Y-23605412D01*
X10043992Y-23605412D02*
X10043992Y-23433984D01*
X10224944Y-23624460D02*
X10205896Y-23633984D01*
X10205896Y-23633984D02*
X10167801Y-23633984D01*
X10167801Y-23633984D02*
X10148753Y-23624460D01*
X10148753Y-23624460D02*
X10139230Y-23605412D01*
X10139230Y-23605412D02*
X10139230Y-23529222D01*
X10139230Y-23529222D02*
X10148753Y-23510174D01*
X10148753Y-23510174D02*
X10167801Y-23500650D01*
X10167801Y-23500650D02*
X10205896Y-23500650D01*
X10205896Y-23500650D02*
X10224944Y-23510174D01*
X10224944Y-23510174D02*
X10234468Y-23529222D01*
X10234468Y-23529222D02*
X10234468Y-23548269D01*
X10234468Y-23548269D02*
X10139230Y-23567317D01*
X10310658Y-23624460D02*
X10329706Y-23633984D01*
X10329706Y-23633984D02*
X10367801Y-23633984D01*
X10367801Y-23633984D02*
X10386849Y-23624460D01*
X10386849Y-23624460D02*
X10396373Y-23605412D01*
X10396373Y-23605412D02*
X10396373Y-23595888D01*
X10396373Y-23595888D02*
X10386849Y-23576841D01*
X10386849Y-23576841D02*
X10367801Y-23567317D01*
X10367801Y-23567317D02*
X10339230Y-23567317D01*
X10339230Y-23567317D02*
X10320182Y-23557793D01*
X10320182Y-23557793D02*
X10310658Y-23538746D01*
X10310658Y-23538746D02*
X10310658Y-23529222D01*
X10310658Y-23529222D02*
X10320182Y-23510174D01*
X10320182Y-23510174D02*
X10339230Y-23500650D01*
X10339230Y-23500650D02*
X10367801Y-23500650D01*
X10367801Y-23500650D02*
X10386849Y-23510174D01*
X10463039Y-23710174D02*
X10472563Y-23700650D01*
X10472563Y-23700650D02*
X10491611Y-23672079D01*
X10491611Y-23672079D02*
X10501134Y-23653031D01*
X10501134Y-23653031D02*
X10510658Y-23624460D01*
X10510658Y-23624460D02*
X10520182Y-23576841D01*
X10520182Y-23576841D02*
X10520182Y-23538746D01*
X10520182Y-23538746D02*
X10510658Y-23491127D01*
X10510658Y-23491127D02*
X10501134Y-23462555D01*
X10501134Y-23462555D02*
X10491611Y-23443508D01*
X10491611Y-23443508D02*
X10472563Y-23414936D01*
X10472563Y-23414936D02*
X10463039Y-23405412D01*
D12*
X5497500Y-23806500D02*
G75*
G02*
X5427500Y-23806500I-35000J0D01*
G01*
X5427500Y-23806500D02*
G75*
G02*
X5497500Y-23806500I35000J0D01*
G01*
D11*
X5796372Y-23697984D02*
X5815420Y-23697984D01*
X5815420Y-23697984D02*
X5834467Y-23707508D01*
X5834467Y-23707508D02*
X5843991Y-23717031D01*
X5843991Y-23717031D02*
X5853515Y-23736079D01*
X5853515Y-23736079D02*
X5863039Y-23774174D01*
X5863039Y-23774174D02*
X5863039Y-23821793D01*
X5863039Y-23821793D02*
X5853515Y-23859888D01*
X5853515Y-23859888D02*
X5843991Y-23878936D01*
X5843991Y-23878936D02*
X5834467Y-23888460D01*
X5834467Y-23888460D02*
X5815420Y-23897984D01*
X5815420Y-23897984D02*
X5796372Y-23897984D01*
X5796372Y-23897984D02*
X5777324Y-23888460D01*
X5777324Y-23888460D02*
X5767801Y-23878936D01*
X5767801Y-23878936D02*
X5758277Y-23859888D01*
X5758277Y-23859888D02*
X5748753Y-23821793D01*
X5748753Y-23821793D02*
X5748753Y-23774174D01*
X5748753Y-23774174D02*
X5758277Y-23736079D01*
X5758277Y-23736079D02*
X5767801Y-23717031D01*
X5767801Y-23717031D02*
X5777324Y-23707508D01*
X5777324Y-23707508D02*
X5796372Y-23697984D01*
X5948753Y-23878936D02*
X5958277Y-23888460D01*
X5958277Y-23888460D02*
X5948753Y-23897984D01*
X5948753Y-23897984D02*
X5939229Y-23888460D01*
X5939229Y-23888460D02*
X5948753Y-23878936D01*
X5948753Y-23878936D02*
X5948753Y-23897984D01*
X6024943Y-23697984D02*
X6158277Y-23697984D01*
X6158277Y-23697984D02*
X6072562Y-23897984D01*
X6272562Y-23697984D02*
X6291610Y-23697984D01*
X6291610Y-23697984D02*
X6310658Y-23707508D01*
X6310658Y-23707508D02*
X6320182Y-23717031D01*
X6320182Y-23717031D02*
X6329705Y-23736079D01*
X6329705Y-23736079D02*
X6339229Y-23774174D01*
X6339229Y-23774174D02*
X6339229Y-23821793D01*
X6339229Y-23821793D02*
X6329705Y-23859888D01*
X6329705Y-23859888D02*
X6320182Y-23878936D01*
X6320182Y-23878936D02*
X6310658Y-23888460D01*
X6310658Y-23888460D02*
X6291610Y-23897984D01*
X6291610Y-23897984D02*
X6272562Y-23897984D01*
X6272562Y-23897984D02*
X6253515Y-23888460D01*
X6253515Y-23888460D02*
X6243991Y-23878936D01*
X6243991Y-23878936D02*
X6234467Y-23859888D01*
X6234467Y-23859888D02*
X6224943Y-23821793D01*
X6224943Y-23821793D02*
X6224943Y-23774174D01*
X6224943Y-23774174D02*
X6234467Y-23736079D01*
X6234467Y-23736079D02*
X6243991Y-23717031D01*
X6243991Y-23717031D02*
X6253515Y-23707508D01*
X6253515Y-23707508D02*
X6272562Y-23697984D01*
X6463039Y-23697984D02*
X6482086Y-23697984D01*
X6482086Y-23697984D02*
X6501134Y-23707508D01*
X6501134Y-23707508D02*
X6510658Y-23717031D01*
X6510658Y-23717031D02*
X6520182Y-23736079D01*
X6520182Y-23736079D02*
X6529705Y-23774174D01*
X6529705Y-23774174D02*
X6529705Y-23821793D01*
X6529705Y-23821793D02*
X6520182Y-23859888D01*
X6520182Y-23859888D02*
X6510658Y-23878936D01*
X6510658Y-23878936D02*
X6501134Y-23888460D01*
X6501134Y-23888460D02*
X6482086Y-23897984D01*
X6482086Y-23897984D02*
X6463039Y-23897984D01*
X6463039Y-23897984D02*
X6443991Y-23888460D01*
X6443991Y-23888460D02*
X6434467Y-23878936D01*
X6434467Y-23878936D02*
X6424943Y-23859888D01*
X6424943Y-23859888D02*
X6415420Y-23821793D01*
X6415420Y-23821793D02*
X6415420Y-23774174D01*
X6415420Y-23774174D02*
X6424943Y-23736079D01*
X6424943Y-23736079D02*
X6434467Y-23717031D01*
X6434467Y-23717031D02*
X6443991Y-23707508D01*
X6443991Y-23707508D02*
X6463039Y-23697984D01*
X6615420Y-23897984D02*
X6615420Y-23764650D01*
X6615420Y-23783698D02*
X6624943Y-23774174D01*
X6624943Y-23774174D02*
X6643991Y-23764650D01*
X6643991Y-23764650D02*
X6672563Y-23764650D01*
X6672563Y-23764650D02*
X6691610Y-23774174D01*
X6691610Y-23774174D02*
X6701134Y-23793222D01*
X6701134Y-23793222D02*
X6701134Y-23897984D01*
X6701134Y-23793222D02*
X6710658Y-23774174D01*
X6710658Y-23774174D02*
X6729705Y-23764650D01*
X6729705Y-23764650D02*
X6758277Y-23764650D01*
X6758277Y-23764650D02*
X6777324Y-23774174D01*
X6777324Y-23774174D02*
X6786848Y-23793222D01*
X6786848Y-23793222D02*
X6786848Y-23897984D01*
X6882086Y-23897984D02*
X6882086Y-23764650D01*
X6882086Y-23783698D02*
X6891610Y-23774174D01*
X6891610Y-23774174D02*
X6910658Y-23764650D01*
X6910658Y-23764650D02*
X6939229Y-23764650D01*
X6939229Y-23764650D02*
X6958277Y-23774174D01*
X6958277Y-23774174D02*
X6967801Y-23793222D01*
X6967801Y-23793222D02*
X6967801Y-23897984D01*
X6967801Y-23793222D02*
X6977324Y-23774174D01*
X6977324Y-23774174D02*
X6996372Y-23764650D01*
X6996372Y-23764650D02*
X7024943Y-23764650D01*
X7024943Y-23764650D02*
X7043991Y-23774174D01*
X7043991Y-23774174D02*
X7053515Y-23793222D01*
X7053515Y-23793222D02*
X7053515Y-23897984D01*
X7443991Y-23688460D02*
X7272563Y-23945603D01*
X7701134Y-23697984D02*
X7720182Y-23697984D01*
X7720182Y-23697984D02*
X7739229Y-23707508D01*
X7739229Y-23707508D02*
X7748753Y-23717031D01*
X7748753Y-23717031D02*
X7758277Y-23736079D01*
X7758277Y-23736079D02*
X7767801Y-23774174D01*
X7767801Y-23774174D02*
X7767801Y-23821793D01*
X7767801Y-23821793D02*
X7758277Y-23859888D01*
X7758277Y-23859888D02*
X7748753Y-23878936D01*
X7748753Y-23878936D02*
X7739229Y-23888460D01*
X7739229Y-23888460D02*
X7720182Y-23897984D01*
X7720182Y-23897984D02*
X7701134Y-23897984D01*
X7701134Y-23897984D02*
X7682086Y-23888460D01*
X7682086Y-23888460D02*
X7672563Y-23878936D01*
X7672563Y-23878936D02*
X7663039Y-23859888D01*
X7663039Y-23859888D02*
X7653515Y-23821793D01*
X7653515Y-23821793D02*
X7653515Y-23774174D01*
X7653515Y-23774174D02*
X7663039Y-23736079D01*
X7663039Y-23736079D02*
X7672563Y-23717031D01*
X7672563Y-23717031D02*
X7682086Y-23707508D01*
X7682086Y-23707508D02*
X7701134Y-23697984D01*
X7853515Y-23878936D02*
X7863039Y-23888460D01*
X7863039Y-23888460D02*
X7853515Y-23897984D01*
X7853515Y-23897984D02*
X7843991Y-23888460D01*
X7843991Y-23888460D02*
X7853515Y-23878936D01*
X7853515Y-23878936D02*
X7853515Y-23897984D01*
X7986848Y-23697984D02*
X8005896Y-23697984D01*
X8005896Y-23697984D02*
X8024944Y-23707508D01*
X8024944Y-23707508D02*
X8034467Y-23717031D01*
X8034467Y-23717031D02*
X8043991Y-23736079D01*
X8043991Y-23736079D02*
X8053515Y-23774174D01*
X8053515Y-23774174D02*
X8053515Y-23821793D01*
X8053515Y-23821793D02*
X8043991Y-23859888D01*
X8043991Y-23859888D02*
X8034467Y-23878936D01*
X8034467Y-23878936D02*
X8024944Y-23888460D01*
X8024944Y-23888460D02*
X8005896Y-23897984D01*
X8005896Y-23897984D02*
X7986848Y-23897984D01*
X7986848Y-23897984D02*
X7967801Y-23888460D01*
X7967801Y-23888460D02*
X7958277Y-23878936D01*
X7958277Y-23878936D02*
X7948753Y-23859888D01*
X7948753Y-23859888D02*
X7939229Y-23821793D01*
X7939229Y-23821793D02*
X7939229Y-23774174D01*
X7939229Y-23774174D02*
X7948753Y-23736079D01*
X7948753Y-23736079D02*
X7958277Y-23717031D01*
X7958277Y-23717031D02*
X7967801Y-23707508D01*
X7967801Y-23707508D02*
X7986848Y-23697984D01*
X8129706Y-23717031D02*
X8139229Y-23707508D01*
X8139229Y-23707508D02*
X8158277Y-23697984D01*
X8158277Y-23697984D02*
X8205896Y-23697984D01*
X8205896Y-23697984D02*
X8224944Y-23707508D01*
X8224944Y-23707508D02*
X8234467Y-23717031D01*
X8234467Y-23717031D02*
X8243991Y-23736079D01*
X8243991Y-23736079D02*
X8243991Y-23755127D01*
X8243991Y-23755127D02*
X8234467Y-23783698D01*
X8234467Y-23783698D02*
X8120182Y-23897984D01*
X8120182Y-23897984D02*
X8243991Y-23897984D01*
X8310658Y-23697984D02*
X8443991Y-23697984D01*
X8443991Y-23697984D02*
X8358277Y-23897984D01*
X8605896Y-23697984D02*
X8567801Y-23697984D01*
X8567801Y-23697984D02*
X8548753Y-23707508D01*
X8548753Y-23707508D02*
X8539229Y-23717031D01*
X8539229Y-23717031D02*
X8520182Y-23745603D01*
X8520182Y-23745603D02*
X8510658Y-23783698D01*
X8510658Y-23783698D02*
X8510658Y-23859888D01*
X8510658Y-23859888D02*
X8520182Y-23878936D01*
X8520182Y-23878936D02*
X8529706Y-23888460D01*
X8529706Y-23888460D02*
X8548753Y-23897984D01*
X8548753Y-23897984D02*
X8586849Y-23897984D01*
X8586849Y-23897984D02*
X8605896Y-23888460D01*
X8605896Y-23888460D02*
X8615420Y-23878936D01*
X8615420Y-23878936D02*
X8624944Y-23859888D01*
X8624944Y-23859888D02*
X8624944Y-23812269D01*
X8624944Y-23812269D02*
X8615420Y-23793222D01*
X8615420Y-23793222D02*
X8605896Y-23783698D01*
X8605896Y-23783698D02*
X8586849Y-23774174D01*
X8586849Y-23774174D02*
X8548753Y-23774174D01*
X8548753Y-23774174D02*
X8529706Y-23783698D01*
X8529706Y-23783698D02*
X8520182Y-23793222D01*
X8520182Y-23793222D02*
X8510658Y-23812269D01*
X8701134Y-23697984D02*
X8701134Y-23736079D01*
X8777325Y-23697984D02*
X8777325Y-23736079D01*
X9072563Y-23974174D02*
X9063039Y-23964650D01*
X9063039Y-23964650D02*
X9043991Y-23936079D01*
X9043991Y-23936079D02*
X9034468Y-23917031D01*
X9034468Y-23917031D02*
X9024944Y-23888460D01*
X9024944Y-23888460D02*
X9015420Y-23840841D01*
X9015420Y-23840841D02*
X9015420Y-23802746D01*
X9015420Y-23802746D02*
X9024944Y-23755127D01*
X9024944Y-23755127D02*
X9034468Y-23726555D01*
X9034468Y-23726555D02*
X9043991Y-23707508D01*
X9043991Y-23707508D02*
X9063039Y-23678936D01*
X9063039Y-23678936D02*
X9072563Y-23669412D01*
X9253515Y-23897984D02*
X9139230Y-23897984D01*
X9196372Y-23897984D02*
X9196372Y-23697984D01*
X9196372Y-23697984D02*
X9177325Y-23726555D01*
X9177325Y-23726555D02*
X9158277Y-23745603D01*
X9158277Y-23745603D02*
X9139230Y-23755127D01*
X9377325Y-23697984D02*
X9396372Y-23697984D01*
X9396372Y-23697984D02*
X9415420Y-23707508D01*
X9415420Y-23707508D02*
X9424944Y-23717031D01*
X9424944Y-23717031D02*
X9434468Y-23736079D01*
X9434468Y-23736079D02*
X9443991Y-23774174D01*
X9443991Y-23774174D02*
X9443991Y-23821793D01*
X9443991Y-23821793D02*
X9434468Y-23859888D01*
X9434468Y-23859888D02*
X9424944Y-23878936D01*
X9424944Y-23878936D02*
X9415420Y-23888460D01*
X9415420Y-23888460D02*
X9396372Y-23897984D01*
X9396372Y-23897984D02*
X9377325Y-23897984D01*
X9377325Y-23897984D02*
X9358277Y-23888460D01*
X9358277Y-23888460D02*
X9348753Y-23878936D01*
X9348753Y-23878936D02*
X9339230Y-23859888D01*
X9339230Y-23859888D02*
X9329706Y-23821793D01*
X9329706Y-23821793D02*
X9329706Y-23774174D01*
X9329706Y-23774174D02*
X9339230Y-23736079D01*
X9339230Y-23736079D02*
X9348753Y-23717031D01*
X9348753Y-23717031D02*
X9358277Y-23707508D01*
X9358277Y-23707508D02*
X9377325Y-23697984D01*
X9682087Y-23897984D02*
X9682087Y-23697984D01*
X9767801Y-23897984D02*
X9767801Y-23793222D01*
X9767801Y-23793222D02*
X9758277Y-23774174D01*
X9758277Y-23774174D02*
X9739230Y-23764650D01*
X9739230Y-23764650D02*
X9710658Y-23764650D01*
X9710658Y-23764650D02*
X9691611Y-23774174D01*
X9691611Y-23774174D02*
X9682087Y-23783698D01*
X9891611Y-23897984D02*
X9872563Y-23888460D01*
X9872563Y-23888460D02*
X9863039Y-23878936D01*
X9863039Y-23878936D02*
X9853515Y-23859888D01*
X9853515Y-23859888D02*
X9853515Y-23802746D01*
X9853515Y-23802746D02*
X9863039Y-23783698D01*
X9863039Y-23783698D02*
X9872563Y-23774174D01*
X9872563Y-23774174D02*
X9891611Y-23764650D01*
X9891611Y-23764650D02*
X9920182Y-23764650D01*
X9920182Y-23764650D02*
X9939230Y-23774174D01*
X9939230Y-23774174D02*
X9948753Y-23783698D01*
X9948753Y-23783698D02*
X9958277Y-23802746D01*
X9958277Y-23802746D02*
X9958277Y-23859888D01*
X9958277Y-23859888D02*
X9948753Y-23878936D01*
X9948753Y-23878936D02*
X9939230Y-23888460D01*
X9939230Y-23888460D02*
X9920182Y-23897984D01*
X9920182Y-23897984D02*
X9891611Y-23897984D01*
X10072563Y-23897984D02*
X10053515Y-23888460D01*
X10053515Y-23888460D02*
X10043992Y-23869412D01*
X10043992Y-23869412D02*
X10043992Y-23697984D01*
X10224944Y-23888460D02*
X10205896Y-23897984D01*
X10205896Y-23897984D02*
X10167801Y-23897984D01*
X10167801Y-23897984D02*
X10148753Y-23888460D01*
X10148753Y-23888460D02*
X10139230Y-23869412D01*
X10139230Y-23869412D02*
X10139230Y-23793222D01*
X10139230Y-23793222D02*
X10148753Y-23774174D01*
X10148753Y-23774174D02*
X10167801Y-23764650D01*
X10167801Y-23764650D02*
X10205896Y-23764650D01*
X10205896Y-23764650D02*
X10224944Y-23774174D01*
X10224944Y-23774174D02*
X10234468Y-23793222D01*
X10234468Y-23793222D02*
X10234468Y-23812269D01*
X10234468Y-23812269D02*
X10139230Y-23831317D01*
X10310658Y-23888460D02*
X10329706Y-23897984D01*
X10329706Y-23897984D02*
X10367801Y-23897984D01*
X10367801Y-23897984D02*
X10386849Y-23888460D01*
X10386849Y-23888460D02*
X10396373Y-23869412D01*
X10396373Y-23869412D02*
X10396373Y-23859888D01*
X10396373Y-23859888D02*
X10386849Y-23840841D01*
X10386849Y-23840841D02*
X10367801Y-23831317D01*
X10367801Y-23831317D02*
X10339230Y-23831317D01*
X10339230Y-23831317D02*
X10320182Y-23821793D01*
X10320182Y-23821793D02*
X10310658Y-23802746D01*
X10310658Y-23802746D02*
X10310658Y-23793222D01*
X10310658Y-23793222D02*
X10320182Y-23774174D01*
X10320182Y-23774174D02*
X10339230Y-23764650D01*
X10339230Y-23764650D02*
X10367801Y-23764650D01*
X10367801Y-23764650D02*
X10386849Y-23774174D01*
X10463039Y-23974174D02*
X10472563Y-23964650D01*
X10472563Y-23964650D02*
X10491611Y-23936079D01*
X10491611Y-23936079D02*
X10501134Y-23917031D01*
X10501134Y-23917031D02*
X10510658Y-23888460D01*
X10510658Y-23888460D02*
X10520182Y-23840841D01*
X10520182Y-23840841D02*
X10520182Y-23802746D01*
X10520182Y-23802746D02*
X10510658Y-23755127D01*
X10510658Y-23755127D02*
X10501134Y-23726555D01*
X10501134Y-23726555D02*
X10491611Y-23707508D01*
X10491611Y-23707508D02*
X10472563Y-23678936D01*
X10472563Y-23678936D02*
X10463039Y-23669412D01*
D12*
X5457500Y-24030500D02*
X5457500Y-24110500D01*
X5417500Y-24070500D02*
X5497500Y-24070500D01*
D11*
X5796372Y-23961984D02*
X5815420Y-23961984D01*
X5815420Y-23961984D02*
X5834467Y-23971508D01*
X5834467Y-23971508D02*
X5843991Y-23981031D01*
X5843991Y-23981031D02*
X5853515Y-24000079D01*
X5853515Y-24000079D02*
X5863039Y-24038174D01*
X5863039Y-24038174D02*
X5863039Y-24085793D01*
X5863039Y-24085793D02*
X5853515Y-24123888D01*
X5853515Y-24123888D02*
X5843991Y-24142936D01*
X5843991Y-24142936D02*
X5834467Y-24152460D01*
X5834467Y-24152460D02*
X5815420Y-24161984D01*
X5815420Y-24161984D02*
X5796372Y-24161984D01*
X5796372Y-24161984D02*
X5777324Y-24152460D01*
X5777324Y-24152460D02*
X5767801Y-24142936D01*
X5767801Y-24142936D02*
X5758277Y-24123888D01*
X5758277Y-24123888D02*
X5748753Y-24085793D01*
X5748753Y-24085793D02*
X5748753Y-24038174D01*
X5748753Y-24038174D02*
X5758277Y-24000079D01*
X5758277Y-24000079D02*
X5767801Y-23981031D01*
X5767801Y-23981031D02*
X5777324Y-23971508D01*
X5777324Y-23971508D02*
X5796372Y-23961984D01*
X5948753Y-24142936D02*
X5958277Y-24152460D01*
X5958277Y-24152460D02*
X5948753Y-24161984D01*
X5948753Y-24161984D02*
X5939229Y-24152460D01*
X5939229Y-24152460D02*
X5948753Y-24142936D01*
X5948753Y-24142936D02*
X5948753Y-24161984D01*
X6072562Y-24047698D02*
X6053515Y-24038174D01*
X6053515Y-24038174D02*
X6043991Y-24028650D01*
X6043991Y-24028650D02*
X6034467Y-24009603D01*
X6034467Y-24009603D02*
X6034467Y-24000079D01*
X6034467Y-24000079D02*
X6043991Y-23981031D01*
X6043991Y-23981031D02*
X6053515Y-23971508D01*
X6053515Y-23971508D02*
X6072562Y-23961984D01*
X6072562Y-23961984D02*
X6110658Y-23961984D01*
X6110658Y-23961984D02*
X6129705Y-23971508D01*
X6129705Y-23971508D02*
X6139229Y-23981031D01*
X6139229Y-23981031D02*
X6148753Y-24000079D01*
X6148753Y-24000079D02*
X6148753Y-24009603D01*
X6148753Y-24009603D02*
X6139229Y-24028650D01*
X6139229Y-24028650D02*
X6129705Y-24038174D01*
X6129705Y-24038174D02*
X6110658Y-24047698D01*
X6110658Y-24047698D02*
X6072562Y-24047698D01*
X6072562Y-24047698D02*
X6053515Y-24057222D01*
X6053515Y-24057222D02*
X6043991Y-24066746D01*
X6043991Y-24066746D02*
X6034467Y-24085793D01*
X6034467Y-24085793D02*
X6034467Y-24123888D01*
X6034467Y-24123888D02*
X6043991Y-24142936D01*
X6043991Y-24142936D02*
X6053515Y-24152460D01*
X6053515Y-24152460D02*
X6072562Y-24161984D01*
X6072562Y-24161984D02*
X6110658Y-24161984D01*
X6110658Y-24161984D02*
X6129705Y-24152460D01*
X6129705Y-24152460D02*
X6139229Y-24142936D01*
X6139229Y-24142936D02*
X6148753Y-24123888D01*
X6148753Y-24123888D02*
X6148753Y-24085793D01*
X6148753Y-24085793D02*
X6139229Y-24066746D01*
X6139229Y-24066746D02*
X6129705Y-24057222D01*
X6129705Y-24057222D02*
X6110658Y-24047698D01*
X6272562Y-23961984D02*
X6291610Y-23961984D01*
X6291610Y-23961984D02*
X6310658Y-23971508D01*
X6310658Y-23971508D02*
X6320182Y-23981031D01*
X6320182Y-23981031D02*
X6329705Y-24000079D01*
X6329705Y-24000079D02*
X6339229Y-24038174D01*
X6339229Y-24038174D02*
X6339229Y-24085793D01*
X6339229Y-24085793D02*
X6329705Y-24123888D01*
X6329705Y-24123888D02*
X6320182Y-24142936D01*
X6320182Y-24142936D02*
X6310658Y-24152460D01*
X6310658Y-24152460D02*
X6291610Y-24161984D01*
X6291610Y-24161984D02*
X6272562Y-24161984D01*
X6272562Y-24161984D02*
X6253515Y-24152460D01*
X6253515Y-24152460D02*
X6243991Y-24142936D01*
X6243991Y-24142936D02*
X6234467Y-24123888D01*
X6234467Y-24123888D02*
X6224943Y-24085793D01*
X6224943Y-24085793D02*
X6224943Y-24038174D01*
X6224943Y-24038174D02*
X6234467Y-24000079D01*
X6234467Y-24000079D02*
X6243991Y-23981031D01*
X6243991Y-23981031D02*
X6253515Y-23971508D01*
X6253515Y-23971508D02*
X6272562Y-23961984D01*
X6463039Y-23961984D02*
X6482086Y-23961984D01*
X6482086Y-23961984D02*
X6501134Y-23971508D01*
X6501134Y-23971508D02*
X6510658Y-23981031D01*
X6510658Y-23981031D02*
X6520182Y-24000079D01*
X6520182Y-24000079D02*
X6529705Y-24038174D01*
X6529705Y-24038174D02*
X6529705Y-24085793D01*
X6529705Y-24085793D02*
X6520182Y-24123888D01*
X6520182Y-24123888D02*
X6510658Y-24142936D01*
X6510658Y-24142936D02*
X6501134Y-24152460D01*
X6501134Y-24152460D02*
X6482086Y-24161984D01*
X6482086Y-24161984D02*
X6463039Y-24161984D01*
X6463039Y-24161984D02*
X6443991Y-24152460D01*
X6443991Y-24152460D02*
X6434467Y-24142936D01*
X6434467Y-24142936D02*
X6424943Y-24123888D01*
X6424943Y-24123888D02*
X6415420Y-24085793D01*
X6415420Y-24085793D02*
X6415420Y-24038174D01*
X6415420Y-24038174D02*
X6424943Y-24000079D01*
X6424943Y-24000079D02*
X6434467Y-23981031D01*
X6434467Y-23981031D02*
X6443991Y-23971508D01*
X6443991Y-23971508D02*
X6463039Y-23961984D01*
X6615420Y-24161984D02*
X6615420Y-24028650D01*
X6615420Y-24047698D02*
X6624943Y-24038174D01*
X6624943Y-24038174D02*
X6643991Y-24028650D01*
X6643991Y-24028650D02*
X6672563Y-24028650D01*
X6672563Y-24028650D02*
X6691610Y-24038174D01*
X6691610Y-24038174D02*
X6701134Y-24057222D01*
X6701134Y-24057222D02*
X6701134Y-24161984D01*
X6701134Y-24057222D02*
X6710658Y-24038174D01*
X6710658Y-24038174D02*
X6729705Y-24028650D01*
X6729705Y-24028650D02*
X6758277Y-24028650D01*
X6758277Y-24028650D02*
X6777324Y-24038174D01*
X6777324Y-24038174D02*
X6786848Y-24057222D01*
X6786848Y-24057222D02*
X6786848Y-24161984D01*
X6882086Y-24161984D02*
X6882086Y-24028650D01*
X6882086Y-24047698D02*
X6891610Y-24038174D01*
X6891610Y-24038174D02*
X6910658Y-24028650D01*
X6910658Y-24028650D02*
X6939229Y-24028650D01*
X6939229Y-24028650D02*
X6958277Y-24038174D01*
X6958277Y-24038174D02*
X6967801Y-24057222D01*
X6967801Y-24057222D02*
X6967801Y-24161984D01*
X6967801Y-24057222D02*
X6977324Y-24038174D01*
X6977324Y-24038174D02*
X6996372Y-24028650D01*
X6996372Y-24028650D02*
X7024943Y-24028650D01*
X7024943Y-24028650D02*
X7043991Y-24038174D01*
X7043991Y-24038174D02*
X7053515Y-24057222D01*
X7053515Y-24057222D02*
X7053515Y-24161984D01*
X7443991Y-23952460D02*
X7272563Y-24209603D01*
X7701134Y-23961984D02*
X7720182Y-23961984D01*
X7720182Y-23961984D02*
X7739229Y-23971508D01*
X7739229Y-23971508D02*
X7748753Y-23981031D01*
X7748753Y-23981031D02*
X7758277Y-24000079D01*
X7758277Y-24000079D02*
X7767801Y-24038174D01*
X7767801Y-24038174D02*
X7767801Y-24085793D01*
X7767801Y-24085793D02*
X7758277Y-24123888D01*
X7758277Y-24123888D02*
X7748753Y-24142936D01*
X7748753Y-24142936D02*
X7739229Y-24152460D01*
X7739229Y-24152460D02*
X7720182Y-24161984D01*
X7720182Y-24161984D02*
X7701134Y-24161984D01*
X7701134Y-24161984D02*
X7682086Y-24152460D01*
X7682086Y-24152460D02*
X7672563Y-24142936D01*
X7672563Y-24142936D02*
X7663039Y-24123888D01*
X7663039Y-24123888D02*
X7653515Y-24085793D01*
X7653515Y-24085793D02*
X7653515Y-24038174D01*
X7653515Y-24038174D02*
X7663039Y-24000079D01*
X7663039Y-24000079D02*
X7672563Y-23981031D01*
X7672563Y-23981031D02*
X7682086Y-23971508D01*
X7682086Y-23971508D02*
X7701134Y-23961984D01*
X7853515Y-24142936D02*
X7863039Y-24152460D01*
X7863039Y-24152460D02*
X7853515Y-24161984D01*
X7853515Y-24161984D02*
X7843991Y-24152460D01*
X7843991Y-24152460D02*
X7853515Y-24142936D01*
X7853515Y-24142936D02*
X7853515Y-24161984D01*
X7986848Y-23961984D02*
X8005896Y-23961984D01*
X8005896Y-23961984D02*
X8024944Y-23971508D01*
X8024944Y-23971508D02*
X8034467Y-23981031D01*
X8034467Y-23981031D02*
X8043991Y-24000079D01*
X8043991Y-24000079D02*
X8053515Y-24038174D01*
X8053515Y-24038174D02*
X8053515Y-24085793D01*
X8053515Y-24085793D02*
X8043991Y-24123888D01*
X8043991Y-24123888D02*
X8034467Y-24142936D01*
X8034467Y-24142936D02*
X8024944Y-24152460D01*
X8024944Y-24152460D02*
X8005896Y-24161984D01*
X8005896Y-24161984D02*
X7986848Y-24161984D01*
X7986848Y-24161984D02*
X7967801Y-24152460D01*
X7967801Y-24152460D02*
X7958277Y-24142936D01*
X7958277Y-24142936D02*
X7948753Y-24123888D01*
X7948753Y-24123888D02*
X7939229Y-24085793D01*
X7939229Y-24085793D02*
X7939229Y-24038174D01*
X7939229Y-24038174D02*
X7948753Y-24000079D01*
X7948753Y-24000079D02*
X7958277Y-23981031D01*
X7958277Y-23981031D02*
X7967801Y-23971508D01*
X7967801Y-23971508D02*
X7986848Y-23961984D01*
X8120182Y-23961984D02*
X8243991Y-23961984D01*
X8243991Y-23961984D02*
X8177325Y-24038174D01*
X8177325Y-24038174D02*
X8205896Y-24038174D01*
X8205896Y-24038174D02*
X8224944Y-24047698D01*
X8224944Y-24047698D02*
X8234467Y-24057222D01*
X8234467Y-24057222D02*
X8243991Y-24076269D01*
X8243991Y-24076269D02*
X8243991Y-24123888D01*
X8243991Y-24123888D02*
X8234467Y-24142936D01*
X8234467Y-24142936D02*
X8224944Y-24152460D01*
X8224944Y-24152460D02*
X8205896Y-24161984D01*
X8205896Y-24161984D02*
X8148753Y-24161984D01*
X8148753Y-24161984D02*
X8129706Y-24152460D01*
X8129706Y-24152460D02*
X8120182Y-24142936D01*
X8434468Y-24161984D02*
X8320182Y-24161984D01*
X8377325Y-24161984D02*
X8377325Y-23961984D01*
X8377325Y-23961984D02*
X8358277Y-23990555D01*
X8358277Y-23990555D02*
X8339229Y-24009603D01*
X8339229Y-24009603D02*
X8320182Y-24019127D01*
X8615420Y-23961984D02*
X8520182Y-23961984D01*
X8520182Y-23961984D02*
X8510658Y-24057222D01*
X8510658Y-24057222D02*
X8520182Y-24047698D01*
X8520182Y-24047698D02*
X8539229Y-24038174D01*
X8539229Y-24038174D02*
X8586849Y-24038174D01*
X8586849Y-24038174D02*
X8605896Y-24047698D01*
X8605896Y-24047698D02*
X8615420Y-24057222D01*
X8615420Y-24057222D02*
X8624944Y-24076269D01*
X8624944Y-24076269D02*
X8624944Y-24123888D01*
X8624944Y-24123888D02*
X8615420Y-24142936D01*
X8615420Y-24142936D02*
X8605896Y-24152460D01*
X8605896Y-24152460D02*
X8586849Y-24161984D01*
X8586849Y-24161984D02*
X8539229Y-24161984D01*
X8539229Y-24161984D02*
X8520182Y-24152460D01*
X8520182Y-24152460D02*
X8510658Y-24142936D01*
X8701134Y-23961984D02*
X8701134Y-24000079D01*
X8777325Y-23961984D02*
X8777325Y-24000079D01*
X9072563Y-24238174D02*
X9063039Y-24228650D01*
X9063039Y-24228650D02*
X9043991Y-24200079D01*
X9043991Y-24200079D02*
X9034468Y-24181031D01*
X9034468Y-24181031D02*
X9024944Y-24152460D01*
X9024944Y-24152460D02*
X9015420Y-24104841D01*
X9015420Y-24104841D02*
X9015420Y-24066746D01*
X9015420Y-24066746D02*
X9024944Y-24019127D01*
X9024944Y-24019127D02*
X9034468Y-23990555D01*
X9034468Y-23990555D02*
X9043991Y-23971508D01*
X9043991Y-23971508D02*
X9063039Y-23942936D01*
X9063039Y-23942936D02*
X9072563Y-23933412D01*
X9253515Y-24161984D02*
X9139230Y-24161984D01*
X9196372Y-24161984D02*
X9196372Y-23961984D01*
X9196372Y-23961984D02*
X9177325Y-23990555D01*
X9177325Y-23990555D02*
X9158277Y-24009603D01*
X9158277Y-24009603D02*
X9139230Y-24019127D01*
X9424944Y-24028650D02*
X9424944Y-24161984D01*
X9377325Y-23952460D02*
X9329706Y-24095317D01*
X9329706Y-24095317D02*
X9453515Y-24095317D01*
X9682087Y-24161984D02*
X9682087Y-23961984D01*
X9767801Y-24161984D02*
X9767801Y-24057222D01*
X9767801Y-24057222D02*
X9758277Y-24038174D01*
X9758277Y-24038174D02*
X9739230Y-24028650D01*
X9739230Y-24028650D02*
X9710658Y-24028650D01*
X9710658Y-24028650D02*
X9691611Y-24038174D01*
X9691611Y-24038174D02*
X9682087Y-24047698D01*
X9891611Y-24161984D02*
X9872563Y-24152460D01*
X9872563Y-24152460D02*
X9863039Y-24142936D01*
X9863039Y-24142936D02*
X9853515Y-24123888D01*
X9853515Y-24123888D02*
X9853515Y-24066746D01*
X9853515Y-24066746D02*
X9863039Y-24047698D01*
X9863039Y-24047698D02*
X9872563Y-24038174D01*
X9872563Y-24038174D02*
X9891611Y-24028650D01*
X9891611Y-24028650D02*
X9920182Y-24028650D01*
X9920182Y-24028650D02*
X9939230Y-24038174D01*
X9939230Y-24038174D02*
X9948753Y-24047698D01*
X9948753Y-24047698D02*
X9958277Y-24066746D01*
X9958277Y-24066746D02*
X9958277Y-24123888D01*
X9958277Y-24123888D02*
X9948753Y-24142936D01*
X9948753Y-24142936D02*
X9939230Y-24152460D01*
X9939230Y-24152460D02*
X9920182Y-24161984D01*
X9920182Y-24161984D02*
X9891611Y-24161984D01*
X10072563Y-24161984D02*
X10053515Y-24152460D01*
X10053515Y-24152460D02*
X10043992Y-24133412D01*
X10043992Y-24133412D02*
X10043992Y-23961984D01*
X10224944Y-24152460D02*
X10205896Y-24161984D01*
X10205896Y-24161984D02*
X10167801Y-24161984D01*
X10167801Y-24161984D02*
X10148753Y-24152460D01*
X10148753Y-24152460D02*
X10139230Y-24133412D01*
X10139230Y-24133412D02*
X10139230Y-24057222D01*
X10139230Y-24057222D02*
X10148753Y-24038174D01*
X10148753Y-24038174D02*
X10167801Y-24028650D01*
X10167801Y-24028650D02*
X10205896Y-24028650D01*
X10205896Y-24028650D02*
X10224944Y-24038174D01*
X10224944Y-24038174D02*
X10234468Y-24057222D01*
X10234468Y-24057222D02*
X10234468Y-24076269D01*
X10234468Y-24076269D02*
X10139230Y-24095317D01*
X10310658Y-24152460D02*
X10329706Y-24161984D01*
X10329706Y-24161984D02*
X10367801Y-24161984D01*
X10367801Y-24161984D02*
X10386849Y-24152460D01*
X10386849Y-24152460D02*
X10396373Y-24133412D01*
X10396373Y-24133412D02*
X10396373Y-24123888D01*
X10396373Y-24123888D02*
X10386849Y-24104841D01*
X10386849Y-24104841D02*
X10367801Y-24095317D01*
X10367801Y-24095317D02*
X10339230Y-24095317D01*
X10339230Y-24095317D02*
X10320182Y-24085793D01*
X10320182Y-24085793D02*
X10310658Y-24066746D01*
X10310658Y-24066746D02*
X10310658Y-24057222D01*
X10310658Y-24057222D02*
X10320182Y-24038174D01*
X10320182Y-24038174D02*
X10339230Y-24028650D01*
X10339230Y-24028650D02*
X10367801Y-24028650D01*
X10367801Y-24028650D02*
X10386849Y-24038174D01*
X10463039Y-24238174D02*
X10472563Y-24228650D01*
X10472563Y-24228650D02*
X10491611Y-24200079D01*
X10491611Y-24200079D02*
X10501134Y-24181031D01*
X10501134Y-24181031D02*
X10510658Y-24152460D01*
X10510658Y-24152460D02*
X10520182Y-24104841D01*
X10520182Y-24104841D02*
X10520182Y-24066746D01*
X10520182Y-24066746D02*
X10510658Y-24019127D01*
X10510658Y-24019127D02*
X10501134Y-23990555D01*
X10501134Y-23990555D02*
X10491611Y-23971508D01*
X10491611Y-23971508D02*
X10472563Y-23942936D01*
X10472563Y-23942936D02*
X10463039Y-23933412D01*
D12*
X5484481Y-24365931D02*
X5484481Y-24303069D01*
X5421619Y-24303069D01*
X5421619Y-24365931D01*
X5484481Y-24365931D01*
D11*
X5796372Y-24225984D02*
X5815420Y-24225984D01*
X5815420Y-24225984D02*
X5834467Y-24235508D01*
X5834467Y-24235508D02*
X5843991Y-24245031D01*
X5843991Y-24245031D02*
X5853515Y-24264079D01*
X5853515Y-24264079D02*
X5863039Y-24302174D01*
X5863039Y-24302174D02*
X5863039Y-24349793D01*
X5863039Y-24349793D02*
X5853515Y-24387888D01*
X5853515Y-24387888D02*
X5843991Y-24406936D01*
X5843991Y-24406936D02*
X5834467Y-24416460D01*
X5834467Y-24416460D02*
X5815420Y-24425984D01*
X5815420Y-24425984D02*
X5796372Y-24425984D01*
X5796372Y-24425984D02*
X5777324Y-24416460D01*
X5777324Y-24416460D02*
X5767801Y-24406936D01*
X5767801Y-24406936D02*
X5758277Y-24387888D01*
X5758277Y-24387888D02*
X5748753Y-24349793D01*
X5748753Y-24349793D02*
X5748753Y-24302174D01*
X5748753Y-24302174D02*
X5758277Y-24264079D01*
X5758277Y-24264079D02*
X5767801Y-24245031D01*
X5767801Y-24245031D02*
X5777324Y-24235508D01*
X5777324Y-24235508D02*
X5796372Y-24225984D01*
X5948753Y-24406936D02*
X5958277Y-24416460D01*
X5958277Y-24416460D02*
X5948753Y-24425984D01*
X5948753Y-24425984D02*
X5939229Y-24416460D01*
X5939229Y-24416460D02*
X5948753Y-24406936D01*
X5948753Y-24406936D02*
X5948753Y-24425984D01*
X6072562Y-24311698D02*
X6053515Y-24302174D01*
X6053515Y-24302174D02*
X6043991Y-24292650D01*
X6043991Y-24292650D02*
X6034467Y-24273603D01*
X6034467Y-24273603D02*
X6034467Y-24264079D01*
X6034467Y-24264079D02*
X6043991Y-24245031D01*
X6043991Y-24245031D02*
X6053515Y-24235508D01*
X6053515Y-24235508D02*
X6072562Y-24225984D01*
X6072562Y-24225984D02*
X6110658Y-24225984D01*
X6110658Y-24225984D02*
X6129705Y-24235508D01*
X6129705Y-24235508D02*
X6139229Y-24245031D01*
X6139229Y-24245031D02*
X6148753Y-24264079D01*
X6148753Y-24264079D02*
X6148753Y-24273603D01*
X6148753Y-24273603D02*
X6139229Y-24292650D01*
X6139229Y-24292650D02*
X6129705Y-24302174D01*
X6129705Y-24302174D02*
X6110658Y-24311698D01*
X6110658Y-24311698D02*
X6072562Y-24311698D01*
X6072562Y-24311698D02*
X6053515Y-24321222D01*
X6053515Y-24321222D02*
X6043991Y-24330746D01*
X6043991Y-24330746D02*
X6034467Y-24349793D01*
X6034467Y-24349793D02*
X6034467Y-24387888D01*
X6034467Y-24387888D02*
X6043991Y-24406936D01*
X6043991Y-24406936D02*
X6053515Y-24416460D01*
X6053515Y-24416460D02*
X6072562Y-24425984D01*
X6072562Y-24425984D02*
X6110658Y-24425984D01*
X6110658Y-24425984D02*
X6129705Y-24416460D01*
X6129705Y-24416460D02*
X6139229Y-24406936D01*
X6139229Y-24406936D02*
X6148753Y-24387888D01*
X6148753Y-24387888D02*
X6148753Y-24349793D01*
X6148753Y-24349793D02*
X6139229Y-24330746D01*
X6139229Y-24330746D02*
X6129705Y-24321222D01*
X6129705Y-24321222D02*
X6110658Y-24311698D01*
X6263039Y-24311698D02*
X6243991Y-24302174D01*
X6243991Y-24302174D02*
X6234467Y-24292650D01*
X6234467Y-24292650D02*
X6224943Y-24273603D01*
X6224943Y-24273603D02*
X6224943Y-24264079D01*
X6224943Y-24264079D02*
X6234467Y-24245031D01*
X6234467Y-24245031D02*
X6243991Y-24235508D01*
X6243991Y-24235508D02*
X6263039Y-24225984D01*
X6263039Y-24225984D02*
X6301134Y-24225984D01*
X6301134Y-24225984D02*
X6320182Y-24235508D01*
X6320182Y-24235508D02*
X6329705Y-24245031D01*
X6329705Y-24245031D02*
X6339229Y-24264079D01*
X6339229Y-24264079D02*
X6339229Y-24273603D01*
X6339229Y-24273603D02*
X6329705Y-24292650D01*
X6329705Y-24292650D02*
X6320182Y-24302174D01*
X6320182Y-24302174D02*
X6301134Y-24311698D01*
X6301134Y-24311698D02*
X6263039Y-24311698D01*
X6263039Y-24311698D02*
X6243991Y-24321222D01*
X6243991Y-24321222D02*
X6234467Y-24330746D01*
X6234467Y-24330746D02*
X6224943Y-24349793D01*
X6224943Y-24349793D02*
X6224943Y-24387888D01*
X6224943Y-24387888D02*
X6234467Y-24406936D01*
X6234467Y-24406936D02*
X6243991Y-24416460D01*
X6243991Y-24416460D02*
X6263039Y-24425984D01*
X6263039Y-24425984D02*
X6301134Y-24425984D01*
X6301134Y-24425984D02*
X6320182Y-24416460D01*
X6320182Y-24416460D02*
X6329705Y-24406936D01*
X6329705Y-24406936D02*
X6339229Y-24387888D01*
X6339229Y-24387888D02*
X6339229Y-24349793D01*
X6339229Y-24349793D02*
X6329705Y-24330746D01*
X6329705Y-24330746D02*
X6320182Y-24321222D01*
X6320182Y-24321222D02*
X6301134Y-24311698D01*
X6434467Y-24425984D02*
X6472562Y-24425984D01*
X6472562Y-24425984D02*
X6491610Y-24416460D01*
X6491610Y-24416460D02*
X6501134Y-24406936D01*
X6501134Y-24406936D02*
X6520182Y-24378365D01*
X6520182Y-24378365D02*
X6529705Y-24340269D01*
X6529705Y-24340269D02*
X6529705Y-24264079D01*
X6529705Y-24264079D02*
X6520182Y-24245031D01*
X6520182Y-24245031D02*
X6510658Y-24235508D01*
X6510658Y-24235508D02*
X6491610Y-24225984D01*
X6491610Y-24225984D02*
X6453515Y-24225984D01*
X6453515Y-24225984D02*
X6434467Y-24235508D01*
X6434467Y-24235508D02*
X6424943Y-24245031D01*
X6424943Y-24245031D02*
X6415420Y-24264079D01*
X6415420Y-24264079D02*
X6415420Y-24311698D01*
X6415420Y-24311698D02*
X6424943Y-24330746D01*
X6424943Y-24330746D02*
X6434467Y-24340269D01*
X6434467Y-24340269D02*
X6453515Y-24349793D01*
X6453515Y-24349793D02*
X6491610Y-24349793D01*
X6491610Y-24349793D02*
X6510658Y-24340269D01*
X6510658Y-24340269D02*
X6520182Y-24330746D01*
X6520182Y-24330746D02*
X6529705Y-24311698D01*
X6615420Y-24425984D02*
X6615420Y-24292650D01*
X6615420Y-24311698D02*
X6624943Y-24302174D01*
X6624943Y-24302174D02*
X6643991Y-24292650D01*
X6643991Y-24292650D02*
X6672563Y-24292650D01*
X6672563Y-24292650D02*
X6691610Y-24302174D01*
X6691610Y-24302174D02*
X6701134Y-24321222D01*
X6701134Y-24321222D02*
X6701134Y-24425984D01*
X6701134Y-24321222D02*
X6710658Y-24302174D01*
X6710658Y-24302174D02*
X6729705Y-24292650D01*
X6729705Y-24292650D02*
X6758277Y-24292650D01*
X6758277Y-24292650D02*
X6777324Y-24302174D01*
X6777324Y-24302174D02*
X6786848Y-24321222D01*
X6786848Y-24321222D02*
X6786848Y-24425984D01*
X6882086Y-24425984D02*
X6882086Y-24292650D01*
X6882086Y-24311698D02*
X6891610Y-24302174D01*
X6891610Y-24302174D02*
X6910658Y-24292650D01*
X6910658Y-24292650D02*
X6939229Y-24292650D01*
X6939229Y-24292650D02*
X6958277Y-24302174D01*
X6958277Y-24302174D02*
X6967801Y-24321222D01*
X6967801Y-24321222D02*
X6967801Y-24425984D01*
X6967801Y-24321222D02*
X6977324Y-24302174D01*
X6977324Y-24302174D02*
X6996372Y-24292650D01*
X6996372Y-24292650D02*
X7024943Y-24292650D01*
X7024943Y-24292650D02*
X7043991Y-24302174D01*
X7043991Y-24302174D02*
X7053515Y-24321222D01*
X7053515Y-24321222D02*
X7053515Y-24425984D01*
X7443991Y-24216460D02*
X7272563Y-24473603D01*
X7701134Y-24225984D02*
X7720182Y-24225984D01*
X7720182Y-24225984D02*
X7739229Y-24235508D01*
X7739229Y-24235508D02*
X7748753Y-24245031D01*
X7748753Y-24245031D02*
X7758277Y-24264079D01*
X7758277Y-24264079D02*
X7767801Y-24302174D01*
X7767801Y-24302174D02*
X7767801Y-24349793D01*
X7767801Y-24349793D02*
X7758277Y-24387888D01*
X7758277Y-24387888D02*
X7748753Y-24406936D01*
X7748753Y-24406936D02*
X7739229Y-24416460D01*
X7739229Y-24416460D02*
X7720182Y-24425984D01*
X7720182Y-24425984D02*
X7701134Y-24425984D01*
X7701134Y-24425984D02*
X7682086Y-24416460D01*
X7682086Y-24416460D02*
X7672563Y-24406936D01*
X7672563Y-24406936D02*
X7663039Y-24387888D01*
X7663039Y-24387888D02*
X7653515Y-24349793D01*
X7653515Y-24349793D02*
X7653515Y-24302174D01*
X7653515Y-24302174D02*
X7663039Y-24264079D01*
X7663039Y-24264079D02*
X7672563Y-24245031D01*
X7672563Y-24245031D02*
X7682086Y-24235508D01*
X7682086Y-24235508D02*
X7701134Y-24225984D01*
X7853515Y-24406936D02*
X7863039Y-24416460D01*
X7863039Y-24416460D02*
X7853515Y-24425984D01*
X7853515Y-24425984D02*
X7843991Y-24416460D01*
X7843991Y-24416460D02*
X7853515Y-24406936D01*
X7853515Y-24406936D02*
X7853515Y-24425984D01*
X7986848Y-24225984D02*
X8005896Y-24225984D01*
X8005896Y-24225984D02*
X8024944Y-24235508D01*
X8024944Y-24235508D02*
X8034467Y-24245031D01*
X8034467Y-24245031D02*
X8043991Y-24264079D01*
X8043991Y-24264079D02*
X8053515Y-24302174D01*
X8053515Y-24302174D02*
X8053515Y-24349793D01*
X8053515Y-24349793D02*
X8043991Y-24387888D01*
X8043991Y-24387888D02*
X8034467Y-24406936D01*
X8034467Y-24406936D02*
X8024944Y-24416460D01*
X8024944Y-24416460D02*
X8005896Y-24425984D01*
X8005896Y-24425984D02*
X7986848Y-24425984D01*
X7986848Y-24425984D02*
X7967801Y-24416460D01*
X7967801Y-24416460D02*
X7958277Y-24406936D01*
X7958277Y-24406936D02*
X7948753Y-24387888D01*
X7948753Y-24387888D02*
X7939229Y-24349793D01*
X7939229Y-24349793D02*
X7939229Y-24302174D01*
X7939229Y-24302174D02*
X7948753Y-24264079D01*
X7948753Y-24264079D02*
X7958277Y-24245031D01*
X7958277Y-24245031D02*
X7967801Y-24235508D01*
X7967801Y-24235508D02*
X7986848Y-24225984D01*
X8120182Y-24225984D02*
X8243991Y-24225984D01*
X8243991Y-24225984D02*
X8177325Y-24302174D01*
X8177325Y-24302174D02*
X8205896Y-24302174D01*
X8205896Y-24302174D02*
X8224944Y-24311698D01*
X8224944Y-24311698D02*
X8234467Y-24321222D01*
X8234467Y-24321222D02*
X8243991Y-24340269D01*
X8243991Y-24340269D02*
X8243991Y-24387888D01*
X8243991Y-24387888D02*
X8234467Y-24406936D01*
X8234467Y-24406936D02*
X8224944Y-24416460D01*
X8224944Y-24416460D02*
X8205896Y-24425984D01*
X8205896Y-24425984D02*
X8148753Y-24425984D01*
X8148753Y-24425984D02*
X8129706Y-24416460D01*
X8129706Y-24416460D02*
X8120182Y-24406936D01*
X8424944Y-24225984D02*
X8329706Y-24225984D01*
X8329706Y-24225984D02*
X8320182Y-24321222D01*
X8320182Y-24321222D02*
X8329706Y-24311698D01*
X8329706Y-24311698D02*
X8348753Y-24302174D01*
X8348753Y-24302174D02*
X8396372Y-24302174D01*
X8396372Y-24302174D02*
X8415420Y-24311698D01*
X8415420Y-24311698D02*
X8424944Y-24321222D01*
X8424944Y-24321222D02*
X8434468Y-24340269D01*
X8434468Y-24340269D02*
X8434468Y-24387888D01*
X8434468Y-24387888D02*
X8424944Y-24406936D01*
X8424944Y-24406936D02*
X8415420Y-24416460D01*
X8415420Y-24416460D02*
X8396372Y-24425984D01*
X8396372Y-24425984D02*
X8348753Y-24425984D01*
X8348753Y-24425984D02*
X8329706Y-24416460D01*
X8329706Y-24416460D02*
X8320182Y-24406936D01*
X8558277Y-24225984D02*
X8577325Y-24225984D01*
X8577325Y-24225984D02*
X8596372Y-24235508D01*
X8596372Y-24235508D02*
X8605896Y-24245031D01*
X8605896Y-24245031D02*
X8615420Y-24264079D01*
X8615420Y-24264079D02*
X8624944Y-24302174D01*
X8624944Y-24302174D02*
X8624944Y-24349793D01*
X8624944Y-24349793D02*
X8615420Y-24387888D01*
X8615420Y-24387888D02*
X8605896Y-24406936D01*
X8605896Y-24406936D02*
X8596372Y-24416460D01*
X8596372Y-24416460D02*
X8577325Y-24425984D01*
X8577325Y-24425984D02*
X8558277Y-24425984D01*
X8558277Y-24425984D02*
X8539229Y-24416460D01*
X8539229Y-24416460D02*
X8529706Y-24406936D01*
X8529706Y-24406936D02*
X8520182Y-24387888D01*
X8520182Y-24387888D02*
X8510658Y-24349793D01*
X8510658Y-24349793D02*
X8510658Y-24302174D01*
X8510658Y-24302174D02*
X8520182Y-24264079D01*
X8520182Y-24264079D02*
X8529706Y-24245031D01*
X8529706Y-24245031D02*
X8539229Y-24235508D01*
X8539229Y-24235508D02*
X8558277Y-24225984D01*
X8701134Y-24225984D02*
X8701134Y-24264079D01*
X8777325Y-24225984D02*
X8777325Y-24264079D01*
X9072563Y-24502174D02*
X9063039Y-24492650D01*
X9063039Y-24492650D02*
X9043991Y-24464079D01*
X9043991Y-24464079D02*
X9034468Y-24445031D01*
X9034468Y-24445031D02*
X9024944Y-24416460D01*
X9024944Y-24416460D02*
X9015420Y-24368841D01*
X9015420Y-24368841D02*
X9015420Y-24330746D01*
X9015420Y-24330746D02*
X9024944Y-24283127D01*
X9024944Y-24283127D02*
X9034468Y-24254555D01*
X9034468Y-24254555D02*
X9043991Y-24235508D01*
X9043991Y-24235508D02*
X9063039Y-24206936D01*
X9063039Y-24206936D02*
X9072563Y-24197412D01*
X9253515Y-24425984D02*
X9139230Y-24425984D01*
X9196372Y-24425984D02*
X9196372Y-24225984D01*
X9196372Y-24225984D02*
X9177325Y-24254555D01*
X9177325Y-24254555D02*
X9158277Y-24273603D01*
X9158277Y-24273603D02*
X9139230Y-24283127D01*
X9424944Y-24292650D02*
X9424944Y-24425984D01*
X9377325Y-24216460D02*
X9329706Y-24359317D01*
X9329706Y-24359317D02*
X9453515Y-24359317D01*
X9682087Y-24425984D02*
X9682087Y-24225984D01*
X9767801Y-24425984D02*
X9767801Y-24321222D01*
X9767801Y-24321222D02*
X9758277Y-24302174D01*
X9758277Y-24302174D02*
X9739230Y-24292650D01*
X9739230Y-24292650D02*
X9710658Y-24292650D01*
X9710658Y-24292650D02*
X9691611Y-24302174D01*
X9691611Y-24302174D02*
X9682087Y-24311698D01*
X9891611Y-24425984D02*
X9872563Y-24416460D01*
X9872563Y-24416460D02*
X9863039Y-24406936D01*
X9863039Y-24406936D02*
X9853515Y-24387888D01*
X9853515Y-24387888D02*
X9853515Y-24330746D01*
X9853515Y-24330746D02*
X9863039Y-24311698D01*
X9863039Y-24311698D02*
X9872563Y-24302174D01*
X9872563Y-24302174D02*
X9891611Y-24292650D01*
X9891611Y-24292650D02*
X9920182Y-24292650D01*
X9920182Y-24292650D02*
X9939230Y-24302174D01*
X9939230Y-24302174D02*
X9948753Y-24311698D01*
X9948753Y-24311698D02*
X9958277Y-24330746D01*
X9958277Y-24330746D02*
X9958277Y-24387888D01*
X9958277Y-24387888D02*
X9948753Y-24406936D01*
X9948753Y-24406936D02*
X9939230Y-24416460D01*
X9939230Y-24416460D02*
X9920182Y-24425984D01*
X9920182Y-24425984D02*
X9891611Y-24425984D01*
X10072563Y-24425984D02*
X10053515Y-24416460D01*
X10053515Y-24416460D02*
X10043992Y-24397412D01*
X10043992Y-24397412D02*
X10043992Y-24225984D01*
X10224944Y-24416460D02*
X10205896Y-24425984D01*
X10205896Y-24425984D02*
X10167801Y-24425984D01*
X10167801Y-24425984D02*
X10148753Y-24416460D01*
X10148753Y-24416460D02*
X10139230Y-24397412D01*
X10139230Y-24397412D02*
X10139230Y-24321222D01*
X10139230Y-24321222D02*
X10148753Y-24302174D01*
X10148753Y-24302174D02*
X10167801Y-24292650D01*
X10167801Y-24292650D02*
X10205896Y-24292650D01*
X10205896Y-24292650D02*
X10224944Y-24302174D01*
X10224944Y-24302174D02*
X10234468Y-24321222D01*
X10234468Y-24321222D02*
X10234468Y-24340269D01*
X10234468Y-24340269D02*
X10139230Y-24359317D01*
X10310658Y-24416460D02*
X10329706Y-24425984D01*
X10329706Y-24425984D02*
X10367801Y-24425984D01*
X10367801Y-24425984D02*
X10386849Y-24416460D01*
X10386849Y-24416460D02*
X10396373Y-24397412D01*
X10396373Y-24397412D02*
X10396373Y-24387888D01*
X10396373Y-24387888D02*
X10386849Y-24368841D01*
X10386849Y-24368841D02*
X10367801Y-24359317D01*
X10367801Y-24359317D02*
X10339230Y-24359317D01*
X10339230Y-24359317D02*
X10320182Y-24349793D01*
X10320182Y-24349793D02*
X10310658Y-24330746D01*
X10310658Y-24330746D02*
X10310658Y-24321222D01*
X10310658Y-24321222D02*
X10320182Y-24302174D01*
X10320182Y-24302174D02*
X10339230Y-24292650D01*
X10339230Y-24292650D02*
X10367801Y-24292650D01*
X10367801Y-24292650D02*
X10386849Y-24302174D01*
X10463039Y-24502174D02*
X10472563Y-24492650D01*
X10472563Y-24492650D02*
X10491611Y-24464079D01*
X10491611Y-24464079D02*
X10501134Y-24445031D01*
X10501134Y-24445031D02*
X10510658Y-24416460D01*
X10510658Y-24416460D02*
X10520182Y-24368841D01*
X10520182Y-24368841D02*
X10520182Y-24330746D01*
X10520182Y-24330746D02*
X10510658Y-24283127D01*
X10510658Y-24283127D02*
X10501134Y-24254555D01*
X10501134Y-24254555D02*
X10491611Y-24235508D01*
X10491611Y-24235508D02*
X10472563Y-24206936D01*
X10472563Y-24206936D02*
X10463039Y-24197412D01*
D12*
X5447500Y-24648500D02*
X5497500Y-24598500D01*
X5447500Y-24548500D01*
X5397500Y-24598500D01*
X5447500Y-24648500D01*
D11*
X5863039Y-24689984D02*
X5748753Y-24689984D01*
X5805896Y-24689984D02*
X5805896Y-24489984D01*
X5805896Y-24489984D02*
X5786848Y-24518555D01*
X5786848Y-24518555D02*
X5767801Y-24537603D01*
X5767801Y-24537603D02*
X5748753Y-24547127D01*
X5948753Y-24670936D02*
X5958277Y-24680460D01*
X5958277Y-24680460D02*
X5948753Y-24689984D01*
X5948753Y-24689984D02*
X5939229Y-24680460D01*
X5939229Y-24680460D02*
X5948753Y-24670936D01*
X5948753Y-24670936D02*
X5948753Y-24689984D01*
X6082086Y-24489984D02*
X6101134Y-24489984D01*
X6101134Y-24489984D02*
X6120182Y-24499508D01*
X6120182Y-24499508D02*
X6129705Y-24509031D01*
X6129705Y-24509031D02*
X6139229Y-24528079D01*
X6139229Y-24528079D02*
X6148753Y-24566174D01*
X6148753Y-24566174D02*
X6148753Y-24613793D01*
X6148753Y-24613793D02*
X6139229Y-24651888D01*
X6139229Y-24651888D02*
X6129705Y-24670936D01*
X6129705Y-24670936D02*
X6120182Y-24680460D01*
X6120182Y-24680460D02*
X6101134Y-24689984D01*
X6101134Y-24689984D02*
X6082086Y-24689984D01*
X6082086Y-24689984D02*
X6063039Y-24680460D01*
X6063039Y-24680460D02*
X6053515Y-24670936D01*
X6053515Y-24670936D02*
X6043991Y-24651888D01*
X6043991Y-24651888D02*
X6034467Y-24613793D01*
X6034467Y-24613793D02*
X6034467Y-24566174D01*
X6034467Y-24566174D02*
X6043991Y-24528079D01*
X6043991Y-24528079D02*
X6053515Y-24509031D01*
X6053515Y-24509031D02*
X6063039Y-24499508D01*
X6063039Y-24499508D02*
X6082086Y-24489984D01*
X6272562Y-24489984D02*
X6291610Y-24489984D01*
X6291610Y-24489984D02*
X6310658Y-24499508D01*
X6310658Y-24499508D02*
X6320182Y-24509031D01*
X6320182Y-24509031D02*
X6329705Y-24528079D01*
X6329705Y-24528079D02*
X6339229Y-24566174D01*
X6339229Y-24566174D02*
X6339229Y-24613793D01*
X6339229Y-24613793D02*
X6329705Y-24651888D01*
X6329705Y-24651888D02*
X6320182Y-24670936D01*
X6320182Y-24670936D02*
X6310658Y-24680460D01*
X6310658Y-24680460D02*
X6291610Y-24689984D01*
X6291610Y-24689984D02*
X6272562Y-24689984D01*
X6272562Y-24689984D02*
X6253515Y-24680460D01*
X6253515Y-24680460D02*
X6243991Y-24670936D01*
X6243991Y-24670936D02*
X6234467Y-24651888D01*
X6234467Y-24651888D02*
X6224943Y-24613793D01*
X6224943Y-24613793D02*
X6224943Y-24566174D01*
X6224943Y-24566174D02*
X6234467Y-24528079D01*
X6234467Y-24528079D02*
X6243991Y-24509031D01*
X6243991Y-24509031D02*
X6253515Y-24499508D01*
X6253515Y-24499508D02*
X6272562Y-24489984D01*
X6463039Y-24489984D02*
X6482086Y-24489984D01*
X6482086Y-24489984D02*
X6501134Y-24499508D01*
X6501134Y-24499508D02*
X6510658Y-24509031D01*
X6510658Y-24509031D02*
X6520182Y-24528079D01*
X6520182Y-24528079D02*
X6529705Y-24566174D01*
X6529705Y-24566174D02*
X6529705Y-24613793D01*
X6529705Y-24613793D02*
X6520182Y-24651888D01*
X6520182Y-24651888D02*
X6510658Y-24670936D01*
X6510658Y-24670936D02*
X6501134Y-24680460D01*
X6501134Y-24680460D02*
X6482086Y-24689984D01*
X6482086Y-24689984D02*
X6463039Y-24689984D01*
X6463039Y-24689984D02*
X6443991Y-24680460D01*
X6443991Y-24680460D02*
X6434467Y-24670936D01*
X6434467Y-24670936D02*
X6424943Y-24651888D01*
X6424943Y-24651888D02*
X6415420Y-24613793D01*
X6415420Y-24613793D02*
X6415420Y-24566174D01*
X6415420Y-24566174D02*
X6424943Y-24528079D01*
X6424943Y-24528079D02*
X6434467Y-24509031D01*
X6434467Y-24509031D02*
X6443991Y-24499508D01*
X6443991Y-24499508D02*
X6463039Y-24489984D01*
X6615420Y-24689984D02*
X6615420Y-24556650D01*
X6615420Y-24575698D02*
X6624943Y-24566174D01*
X6624943Y-24566174D02*
X6643991Y-24556650D01*
X6643991Y-24556650D02*
X6672563Y-24556650D01*
X6672563Y-24556650D02*
X6691610Y-24566174D01*
X6691610Y-24566174D02*
X6701134Y-24585222D01*
X6701134Y-24585222D02*
X6701134Y-24689984D01*
X6701134Y-24585222D02*
X6710658Y-24566174D01*
X6710658Y-24566174D02*
X6729705Y-24556650D01*
X6729705Y-24556650D02*
X6758277Y-24556650D01*
X6758277Y-24556650D02*
X6777324Y-24566174D01*
X6777324Y-24566174D02*
X6786848Y-24585222D01*
X6786848Y-24585222D02*
X6786848Y-24689984D01*
X6882086Y-24689984D02*
X6882086Y-24556650D01*
X6882086Y-24575698D02*
X6891610Y-24566174D01*
X6891610Y-24566174D02*
X6910658Y-24556650D01*
X6910658Y-24556650D02*
X6939229Y-24556650D01*
X6939229Y-24556650D02*
X6958277Y-24566174D01*
X6958277Y-24566174D02*
X6967801Y-24585222D01*
X6967801Y-24585222D02*
X6967801Y-24689984D01*
X6967801Y-24585222D02*
X6977324Y-24566174D01*
X6977324Y-24566174D02*
X6996372Y-24556650D01*
X6996372Y-24556650D02*
X7024943Y-24556650D01*
X7024943Y-24556650D02*
X7043991Y-24566174D01*
X7043991Y-24566174D02*
X7053515Y-24585222D01*
X7053515Y-24585222D02*
X7053515Y-24689984D01*
X7443991Y-24480460D02*
X7272563Y-24737603D01*
X7701134Y-24489984D02*
X7720182Y-24489984D01*
X7720182Y-24489984D02*
X7739229Y-24499508D01*
X7739229Y-24499508D02*
X7748753Y-24509031D01*
X7748753Y-24509031D02*
X7758277Y-24528079D01*
X7758277Y-24528079D02*
X7767801Y-24566174D01*
X7767801Y-24566174D02*
X7767801Y-24613793D01*
X7767801Y-24613793D02*
X7758277Y-24651888D01*
X7758277Y-24651888D02*
X7748753Y-24670936D01*
X7748753Y-24670936D02*
X7739229Y-24680460D01*
X7739229Y-24680460D02*
X7720182Y-24689984D01*
X7720182Y-24689984D02*
X7701134Y-24689984D01*
X7701134Y-24689984D02*
X7682086Y-24680460D01*
X7682086Y-24680460D02*
X7672563Y-24670936D01*
X7672563Y-24670936D02*
X7663039Y-24651888D01*
X7663039Y-24651888D02*
X7653515Y-24613793D01*
X7653515Y-24613793D02*
X7653515Y-24566174D01*
X7653515Y-24566174D02*
X7663039Y-24528079D01*
X7663039Y-24528079D02*
X7672563Y-24509031D01*
X7672563Y-24509031D02*
X7682086Y-24499508D01*
X7682086Y-24499508D02*
X7701134Y-24489984D01*
X7853515Y-24670936D02*
X7863039Y-24680460D01*
X7863039Y-24680460D02*
X7853515Y-24689984D01*
X7853515Y-24689984D02*
X7843991Y-24680460D01*
X7843991Y-24680460D02*
X7853515Y-24670936D01*
X7853515Y-24670936D02*
X7853515Y-24689984D01*
X7986848Y-24489984D02*
X8005896Y-24489984D01*
X8005896Y-24489984D02*
X8024944Y-24499508D01*
X8024944Y-24499508D02*
X8034467Y-24509031D01*
X8034467Y-24509031D02*
X8043991Y-24528079D01*
X8043991Y-24528079D02*
X8053515Y-24566174D01*
X8053515Y-24566174D02*
X8053515Y-24613793D01*
X8053515Y-24613793D02*
X8043991Y-24651888D01*
X8043991Y-24651888D02*
X8034467Y-24670936D01*
X8034467Y-24670936D02*
X8024944Y-24680460D01*
X8024944Y-24680460D02*
X8005896Y-24689984D01*
X8005896Y-24689984D02*
X7986848Y-24689984D01*
X7986848Y-24689984D02*
X7967801Y-24680460D01*
X7967801Y-24680460D02*
X7958277Y-24670936D01*
X7958277Y-24670936D02*
X7948753Y-24651888D01*
X7948753Y-24651888D02*
X7939229Y-24613793D01*
X7939229Y-24613793D02*
X7939229Y-24566174D01*
X7939229Y-24566174D02*
X7948753Y-24528079D01*
X7948753Y-24528079D02*
X7958277Y-24509031D01*
X7958277Y-24509031D02*
X7967801Y-24499508D01*
X7967801Y-24499508D02*
X7986848Y-24489984D01*
X8120182Y-24489984D02*
X8243991Y-24489984D01*
X8243991Y-24489984D02*
X8177325Y-24566174D01*
X8177325Y-24566174D02*
X8205896Y-24566174D01*
X8205896Y-24566174D02*
X8224944Y-24575698D01*
X8224944Y-24575698D02*
X8234467Y-24585222D01*
X8234467Y-24585222D02*
X8243991Y-24604269D01*
X8243991Y-24604269D02*
X8243991Y-24651888D01*
X8243991Y-24651888D02*
X8234467Y-24670936D01*
X8234467Y-24670936D02*
X8224944Y-24680460D01*
X8224944Y-24680460D02*
X8205896Y-24689984D01*
X8205896Y-24689984D02*
X8148753Y-24689984D01*
X8148753Y-24689984D02*
X8129706Y-24680460D01*
X8129706Y-24680460D02*
X8120182Y-24670936D01*
X8339229Y-24689984D02*
X8377325Y-24689984D01*
X8377325Y-24689984D02*
X8396372Y-24680460D01*
X8396372Y-24680460D02*
X8405896Y-24670936D01*
X8405896Y-24670936D02*
X8424944Y-24642365D01*
X8424944Y-24642365D02*
X8434468Y-24604269D01*
X8434468Y-24604269D02*
X8434468Y-24528079D01*
X8434468Y-24528079D02*
X8424944Y-24509031D01*
X8424944Y-24509031D02*
X8415420Y-24499508D01*
X8415420Y-24499508D02*
X8396372Y-24489984D01*
X8396372Y-24489984D02*
X8358277Y-24489984D01*
X8358277Y-24489984D02*
X8339229Y-24499508D01*
X8339229Y-24499508D02*
X8329706Y-24509031D01*
X8329706Y-24509031D02*
X8320182Y-24528079D01*
X8320182Y-24528079D02*
X8320182Y-24575698D01*
X8320182Y-24575698D02*
X8329706Y-24594746D01*
X8329706Y-24594746D02*
X8339229Y-24604269D01*
X8339229Y-24604269D02*
X8358277Y-24613793D01*
X8358277Y-24613793D02*
X8396372Y-24613793D01*
X8396372Y-24613793D02*
X8415420Y-24604269D01*
X8415420Y-24604269D02*
X8424944Y-24594746D01*
X8424944Y-24594746D02*
X8434468Y-24575698D01*
X8605896Y-24556650D02*
X8605896Y-24689984D01*
X8558277Y-24480460D02*
X8510658Y-24623317D01*
X8510658Y-24623317D02*
X8634468Y-24623317D01*
X8701134Y-24489984D02*
X8701134Y-24528079D01*
X8777325Y-24489984D02*
X8777325Y-24528079D01*
X9072563Y-24766174D02*
X9063039Y-24756650D01*
X9063039Y-24756650D02*
X9043991Y-24728079D01*
X9043991Y-24728079D02*
X9034468Y-24709031D01*
X9034468Y-24709031D02*
X9024944Y-24680460D01*
X9024944Y-24680460D02*
X9015420Y-24632841D01*
X9015420Y-24632841D02*
X9015420Y-24594746D01*
X9015420Y-24594746D02*
X9024944Y-24547127D01*
X9024944Y-24547127D02*
X9034468Y-24518555D01*
X9034468Y-24518555D02*
X9043991Y-24499508D01*
X9043991Y-24499508D02*
X9063039Y-24470936D01*
X9063039Y-24470936D02*
X9072563Y-24461412D01*
X9253515Y-24689984D02*
X9139230Y-24689984D01*
X9196372Y-24689984D02*
X9196372Y-24489984D01*
X9196372Y-24489984D02*
X9177325Y-24518555D01*
X9177325Y-24518555D02*
X9158277Y-24537603D01*
X9158277Y-24537603D02*
X9139230Y-24547127D01*
X9434468Y-24489984D02*
X9339230Y-24489984D01*
X9339230Y-24489984D02*
X9329706Y-24585222D01*
X9329706Y-24585222D02*
X9339230Y-24575698D01*
X9339230Y-24575698D02*
X9358277Y-24566174D01*
X9358277Y-24566174D02*
X9405896Y-24566174D01*
X9405896Y-24566174D02*
X9424944Y-24575698D01*
X9424944Y-24575698D02*
X9434468Y-24585222D01*
X9434468Y-24585222D02*
X9443991Y-24604269D01*
X9443991Y-24604269D02*
X9443991Y-24651888D01*
X9443991Y-24651888D02*
X9434468Y-24670936D01*
X9434468Y-24670936D02*
X9424944Y-24680460D01*
X9424944Y-24680460D02*
X9405896Y-24689984D01*
X9405896Y-24689984D02*
X9358277Y-24689984D01*
X9358277Y-24689984D02*
X9339230Y-24680460D01*
X9339230Y-24680460D02*
X9329706Y-24670936D01*
X9634468Y-24689984D02*
X9520182Y-24689984D01*
X9577325Y-24689984D02*
X9577325Y-24489984D01*
X9577325Y-24489984D02*
X9558277Y-24518555D01*
X9558277Y-24518555D02*
X9539230Y-24537603D01*
X9539230Y-24537603D02*
X9520182Y-24547127D01*
X9872563Y-24689984D02*
X9872563Y-24489984D01*
X9958277Y-24689984D02*
X9958277Y-24585222D01*
X9958277Y-24585222D02*
X9948753Y-24566174D01*
X9948753Y-24566174D02*
X9929706Y-24556650D01*
X9929706Y-24556650D02*
X9901134Y-24556650D01*
X9901134Y-24556650D02*
X9882087Y-24566174D01*
X9882087Y-24566174D02*
X9872563Y-24575698D01*
X10082087Y-24689984D02*
X10063039Y-24680460D01*
X10063039Y-24680460D02*
X10053515Y-24670936D01*
X10053515Y-24670936D02*
X10043992Y-24651888D01*
X10043992Y-24651888D02*
X10043992Y-24594746D01*
X10043992Y-24594746D02*
X10053515Y-24575698D01*
X10053515Y-24575698D02*
X10063039Y-24566174D01*
X10063039Y-24566174D02*
X10082087Y-24556650D01*
X10082087Y-24556650D02*
X10110658Y-24556650D01*
X10110658Y-24556650D02*
X10129706Y-24566174D01*
X10129706Y-24566174D02*
X10139230Y-24575698D01*
X10139230Y-24575698D02*
X10148753Y-24594746D01*
X10148753Y-24594746D02*
X10148753Y-24651888D01*
X10148753Y-24651888D02*
X10139230Y-24670936D01*
X10139230Y-24670936D02*
X10129706Y-24680460D01*
X10129706Y-24680460D02*
X10110658Y-24689984D01*
X10110658Y-24689984D02*
X10082087Y-24689984D01*
X10263039Y-24689984D02*
X10243992Y-24680460D01*
X10243992Y-24680460D02*
X10234468Y-24661412D01*
X10234468Y-24661412D02*
X10234468Y-24489984D01*
X10415420Y-24680460D02*
X10396373Y-24689984D01*
X10396373Y-24689984D02*
X10358277Y-24689984D01*
X10358277Y-24689984D02*
X10339230Y-24680460D01*
X10339230Y-24680460D02*
X10329706Y-24661412D01*
X10329706Y-24661412D02*
X10329706Y-24585222D01*
X10329706Y-24585222D02*
X10339230Y-24566174D01*
X10339230Y-24566174D02*
X10358277Y-24556650D01*
X10358277Y-24556650D02*
X10396373Y-24556650D01*
X10396373Y-24556650D02*
X10415420Y-24566174D01*
X10415420Y-24566174D02*
X10424944Y-24585222D01*
X10424944Y-24585222D02*
X10424944Y-24604269D01*
X10424944Y-24604269D02*
X10329706Y-24623317D01*
X10501134Y-24680460D02*
X10520182Y-24689984D01*
X10520182Y-24689984D02*
X10558277Y-24689984D01*
X10558277Y-24689984D02*
X10577325Y-24680460D01*
X10577325Y-24680460D02*
X10586849Y-24661412D01*
X10586849Y-24661412D02*
X10586849Y-24651888D01*
X10586849Y-24651888D02*
X10577325Y-24632841D01*
X10577325Y-24632841D02*
X10558277Y-24623317D01*
X10558277Y-24623317D02*
X10529706Y-24623317D01*
X10529706Y-24623317D02*
X10510658Y-24613793D01*
X10510658Y-24613793D02*
X10501134Y-24594746D01*
X10501134Y-24594746D02*
X10501134Y-24585222D01*
X10501134Y-24585222D02*
X10510658Y-24566174D01*
X10510658Y-24566174D02*
X10529706Y-24556650D01*
X10529706Y-24556650D02*
X10558277Y-24556650D01*
X10558277Y-24556650D02*
X10577325Y-24566174D01*
X10653515Y-24766174D02*
X10663039Y-24756650D01*
X10663039Y-24756650D02*
X10682087Y-24728079D01*
X10682087Y-24728079D02*
X10691611Y-24709031D01*
X10691611Y-24709031D02*
X10701134Y-24680460D01*
X10701134Y-24680460D02*
X10710658Y-24632841D01*
X10710658Y-24632841D02*
X10710658Y-24594746D01*
X10710658Y-24594746D02*
X10701134Y-24547127D01*
X10701134Y-24547127D02*
X10691611Y-24518555D01*
X10691611Y-24518555D02*
X10682087Y-24499508D01*
X10682087Y-24499508D02*
X10663039Y-24470936D01*
X10663039Y-24470936D02*
X10653515Y-24461412D01*
D13*
X5395900Y-24811700D02*
X5497500Y-24913300D01*
X5497500Y-24811700D02*
X5395900Y-24913300D01*
X5497500Y-24862500D02*
G75*
G02*
X5395900Y-24862500I-50800J0D01*
G01*
X5395900Y-24862500D02*
G75*
G02*
X5497500Y-24862500I50800J0D01*
G01*
D11*
X5863039Y-24953984D02*
X5748753Y-24953984D01*
X5805896Y-24953984D02*
X5805896Y-24753984D01*
X5805896Y-24753984D02*
X5786848Y-24782555D01*
X5786848Y-24782555D02*
X5767801Y-24801603D01*
X5767801Y-24801603D02*
X5748753Y-24811127D01*
X5948753Y-24934936D02*
X5958277Y-24944460D01*
X5958277Y-24944460D02*
X5948753Y-24953984D01*
X5948753Y-24953984D02*
X5939229Y-24944460D01*
X5939229Y-24944460D02*
X5948753Y-24934936D01*
X5948753Y-24934936D02*
X5948753Y-24953984D01*
X6082086Y-24753984D02*
X6101134Y-24753984D01*
X6101134Y-24753984D02*
X6120182Y-24763508D01*
X6120182Y-24763508D02*
X6129705Y-24773031D01*
X6129705Y-24773031D02*
X6139229Y-24792079D01*
X6139229Y-24792079D02*
X6148753Y-24830174D01*
X6148753Y-24830174D02*
X6148753Y-24877793D01*
X6148753Y-24877793D02*
X6139229Y-24915888D01*
X6139229Y-24915888D02*
X6129705Y-24934936D01*
X6129705Y-24934936D02*
X6120182Y-24944460D01*
X6120182Y-24944460D02*
X6101134Y-24953984D01*
X6101134Y-24953984D02*
X6082086Y-24953984D01*
X6082086Y-24953984D02*
X6063039Y-24944460D01*
X6063039Y-24944460D02*
X6053515Y-24934936D01*
X6053515Y-24934936D02*
X6043991Y-24915888D01*
X6043991Y-24915888D02*
X6034467Y-24877793D01*
X6034467Y-24877793D02*
X6034467Y-24830174D01*
X6034467Y-24830174D02*
X6043991Y-24792079D01*
X6043991Y-24792079D02*
X6053515Y-24773031D01*
X6053515Y-24773031D02*
X6063039Y-24763508D01*
X6063039Y-24763508D02*
X6082086Y-24753984D01*
X6339229Y-24953984D02*
X6224943Y-24953984D01*
X6282086Y-24953984D02*
X6282086Y-24753984D01*
X6282086Y-24753984D02*
X6263039Y-24782555D01*
X6263039Y-24782555D02*
X6243991Y-24801603D01*
X6243991Y-24801603D02*
X6224943Y-24811127D01*
X6510658Y-24753984D02*
X6472562Y-24753984D01*
X6472562Y-24753984D02*
X6453515Y-24763508D01*
X6453515Y-24763508D02*
X6443991Y-24773031D01*
X6443991Y-24773031D02*
X6424943Y-24801603D01*
X6424943Y-24801603D02*
X6415420Y-24839698D01*
X6415420Y-24839698D02*
X6415420Y-24915888D01*
X6415420Y-24915888D02*
X6424943Y-24934936D01*
X6424943Y-24934936D02*
X6434467Y-24944460D01*
X6434467Y-24944460D02*
X6453515Y-24953984D01*
X6453515Y-24953984D02*
X6491610Y-24953984D01*
X6491610Y-24953984D02*
X6510658Y-24944460D01*
X6510658Y-24944460D02*
X6520182Y-24934936D01*
X6520182Y-24934936D02*
X6529705Y-24915888D01*
X6529705Y-24915888D02*
X6529705Y-24868269D01*
X6529705Y-24868269D02*
X6520182Y-24849222D01*
X6520182Y-24849222D02*
X6510658Y-24839698D01*
X6510658Y-24839698D02*
X6491610Y-24830174D01*
X6491610Y-24830174D02*
X6453515Y-24830174D01*
X6453515Y-24830174D02*
X6434467Y-24839698D01*
X6434467Y-24839698D02*
X6424943Y-24849222D01*
X6424943Y-24849222D02*
X6415420Y-24868269D01*
X6615420Y-24953984D02*
X6615420Y-24820650D01*
X6615420Y-24839698D02*
X6624943Y-24830174D01*
X6624943Y-24830174D02*
X6643991Y-24820650D01*
X6643991Y-24820650D02*
X6672563Y-24820650D01*
X6672563Y-24820650D02*
X6691610Y-24830174D01*
X6691610Y-24830174D02*
X6701134Y-24849222D01*
X6701134Y-24849222D02*
X6701134Y-24953984D01*
X6701134Y-24849222D02*
X6710658Y-24830174D01*
X6710658Y-24830174D02*
X6729705Y-24820650D01*
X6729705Y-24820650D02*
X6758277Y-24820650D01*
X6758277Y-24820650D02*
X6777324Y-24830174D01*
X6777324Y-24830174D02*
X6786848Y-24849222D01*
X6786848Y-24849222D02*
X6786848Y-24953984D01*
X6882086Y-24953984D02*
X6882086Y-24820650D01*
X6882086Y-24839698D02*
X6891610Y-24830174D01*
X6891610Y-24830174D02*
X6910658Y-24820650D01*
X6910658Y-24820650D02*
X6939229Y-24820650D01*
X6939229Y-24820650D02*
X6958277Y-24830174D01*
X6958277Y-24830174D02*
X6967801Y-24849222D01*
X6967801Y-24849222D02*
X6967801Y-24953984D01*
X6967801Y-24849222D02*
X6977324Y-24830174D01*
X6977324Y-24830174D02*
X6996372Y-24820650D01*
X6996372Y-24820650D02*
X7024943Y-24820650D01*
X7024943Y-24820650D02*
X7043991Y-24830174D01*
X7043991Y-24830174D02*
X7053515Y-24849222D01*
X7053515Y-24849222D02*
X7053515Y-24953984D01*
X7443991Y-24744460D02*
X7272563Y-25001603D01*
X7701134Y-24753984D02*
X7720182Y-24753984D01*
X7720182Y-24753984D02*
X7739229Y-24763508D01*
X7739229Y-24763508D02*
X7748753Y-24773031D01*
X7748753Y-24773031D02*
X7758277Y-24792079D01*
X7758277Y-24792079D02*
X7767801Y-24830174D01*
X7767801Y-24830174D02*
X7767801Y-24877793D01*
X7767801Y-24877793D02*
X7758277Y-24915888D01*
X7758277Y-24915888D02*
X7748753Y-24934936D01*
X7748753Y-24934936D02*
X7739229Y-24944460D01*
X7739229Y-24944460D02*
X7720182Y-24953984D01*
X7720182Y-24953984D02*
X7701134Y-24953984D01*
X7701134Y-24953984D02*
X7682086Y-24944460D01*
X7682086Y-24944460D02*
X7672563Y-24934936D01*
X7672563Y-24934936D02*
X7663039Y-24915888D01*
X7663039Y-24915888D02*
X7653515Y-24877793D01*
X7653515Y-24877793D02*
X7653515Y-24830174D01*
X7653515Y-24830174D02*
X7663039Y-24792079D01*
X7663039Y-24792079D02*
X7672563Y-24773031D01*
X7672563Y-24773031D02*
X7682086Y-24763508D01*
X7682086Y-24763508D02*
X7701134Y-24753984D01*
X7853515Y-24934936D02*
X7863039Y-24944460D01*
X7863039Y-24944460D02*
X7853515Y-24953984D01*
X7853515Y-24953984D02*
X7843991Y-24944460D01*
X7843991Y-24944460D02*
X7853515Y-24934936D01*
X7853515Y-24934936D02*
X7853515Y-24953984D01*
X7986848Y-24753984D02*
X8005896Y-24753984D01*
X8005896Y-24753984D02*
X8024944Y-24763508D01*
X8024944Y-24763508D02*
X8034467Y-24773031D01*
X8034467Y-24773031D02*
X8043991Y-24792079D01*
X8043991Y-24792079D02*
X8053515Y-24830174D01*
X8053515Y-24830174D02*
X8053515Y-24877793D01*
X8053515Y-24877793D02*
X8043991Y-24915888D01*
X8043991Y-24915888D02*
X8034467Y-24934936D01*
X8034467Y-24934936D02*
X8024944Y-24944460D01*
X8024944Y-24944460D02*
X8005896Y-24953984D01*
X8005896Y-24953984D02*
X7986848Y-24953984D01*
X7986848Y-24953984D02*
X7967801Y-24944460D01*
X7967801Y-24944460D02*
X7958277Y-24934936D01*
X7958277Y-24934936D02*
X7948753Y-24915888D01*
X7948753Y-24915888D02*
X7939229Y-24877793D01*
X7939229Y-24877793D02*
X7939229Y-24830174D01*
X7939229Y-24830174D02*
X7948753Y-24792079D01*
X7948753Y-24792079D02*
X7958277Y-24773031D01*
X7958277Y-24773031D02*
X7967801Y-24763508D01*
X7967801Y-24763508D02*
X7986848Y-24753984D01*
X8224944Y-24820650D02*
X8224944Y-24953984D01*
X8177325Y-24744460D02*
X8129706Y-24887317D01*
X8129706Y-24887317D02*
X8253515Y-24887317D01*
X8367801Y-24753984D02*
X8386848Y-24753984D01*
X8386848Y-24753984D02*
X8405896Y-24763508D01*
X8405896Y-24763508D02*
X8415420Y-24773031D01*
X8415420Y-24773031D02*
X8424944Y-24792079D01*
X8424944Y-24792079D02*
X8434468Y-24830174D01*
X8434468Y-24830174D02*
X8434468Y-24877793D01*
X8434468Y-24877793D02*
X8424944Y-24915888D01*
X8424944Y-24915888D02*
X8415420Y-24934936D01*
X8415420Y-24934936D02*
X8405896Y-24944460D01*
X8405896Y-24944460D02*
X8386848Y-24953984D01*
X8386848Y-24953984D02*
X8367801Y-24953984D01*
X8367801Y-24953984D02*
X8348753Y-24944460D01*
X8348753Y-24944460D02*
X8339229Y-24934936D01*
X8339229Y-24934936D02*
X8329706Y-24915888D01*
X8329706Y-24915888D02*
X8320182Y-24877793D01*
X8320182Y-24877793D02*
X8320182Y-24830174D01*
X8320182Y-24830174D02*
X8329706Y-24792079D01*
X8329706Y-24792079D02*
X8339229Y-24773031D01*
X8339229Y-24773031D02*
X8348753Y-24763508D01*
X8348753Y-24763508D02*
X8367801Y-24753984D01*
X8558277Y-24753984D02*
X8577325Y-24753984D01*
X8577325Y-24753984D02*
X8596372Y-24763508D01*
X8596372Y-24763508D02*
X8605896Y-24773031D01*
X8605896Y-24773031D02*
X8615420Y-24792079D01*
X8615420Y-24792079D02*
X8624944Y-24830174D01*
X8624944Y-24830174D02*
X8624944Y-24877793D01*
X8624944Y-24877793D02*
X8615420Y-24915888D01*
X8615420Y-24915888D02*
X8605896Y-24934936D01*
X8605896Y-24934936D02*
X8596372Y-24944460D01*
X8596372Y-24944460D02*
X8577325Y-24953984D01*
X8577325Y-24953984D02*
X8558277Y-24953984D01*
X8558277Y-24953984D02*
X8539229Y-24944460D01*
X8539229Y-24944460D02*
X8529706Y-24934936D01*
X8529706Y-24934936D02*
X8520182Y-24915888D01*
X8520182Y-24915888D02*
X8510658Y-24877793D01*
X8510658Y-24877793D02*
X8510658Y-24830174D01*
X8510658Y-24830174D02*
X8520182Y-24792079D01*
X8520182Y-24792079D02*
X8529706Y-24773031D01*
X8529706Y-24773031D02*
X8539229Y-24763508D01*
X8539229Y-24763508D02*
X8558277Y-24753984D01*
X8701134Y-24753984D02*
X8701134Y-24792079D01*
X8777325Y-24753984D02*
X8777325Y-24792079D01*
X9072563Y-25030174D02*
X9063039Y-25020650D01*
X9063039Y-25020650D02*
X9043991Y-24992079D01*
X9043991Y-24992079D02*
X9034468Y-24973031D01*
X9034468Y-24973031D02*
X9024944Y-24944460D01*
X9024944Y-24944460D02*
X9015420Y-24896841D01*
X9015420Y-24896841D02*
X9015420Y-24858746D01*
X9015420Y-24858746D02*
X9024944Y-24811127D01*
X9024944Y-24811127D02*
X9034468Y-24782555D01*
X9034468Y-24782555D02*
X9043991Y-24763508D01*
X9043991Y-24763508D02*
X9063039Y-24734936D01*
X9063039Y-24734936D02*
X9072563Y-24725412D01*
X9139230Y-24773031D02*
X9148753Y-24763508D01*
X9148753Y-24763508D02*
X9167801Y-24753984D01*
X9167801Y-24753984D02*
X9215420Y-24753984D01*
X9215420Y-24753984D02*
X9234468Y-24763508D01*
X9234468Y-24763508D02*
X9243991Y-24773031D01*
X9243991Y-24773031D02*
X9253515Y-24792079D01*
X9253515Y-24792079D02*
X9253515Y-24811127D01*
X9253515Y-24811127D02*
X9243991Y-24839698D01*
X9243991Y-24839698D02*
X9129706Y-24953984D01*
X9129706Y-24953984D02*
X9253515Y-24953984D01*
X9367801Y-24839698D02*
X9348753Y-24830174D01*
X9348753Y-24830174D02*
X9339230Y-24820650D01*
X9339230Y-24820650D02*
X9329706Y-24801603D01*
X9329706Y-24801603D02*
X9329706Y-24792079D01*
X9329706Y-24792079D02*
X9339230Y-24773031D01*
X9339230Y-24773031D02*
X9348753Y-24763508D01*
X9348753Y-24763508D02*
X9367801Y-24753984D01*
X9367801Y-24753984D02*
X9405896Y-24753984D01*
X9405896Y-24753984D02*
X9424944Y-24763508D01*
X9424944Y-24763508D02*
X9434468Y-24773031D01*
X9434468Y-24773031D02*
X9443991Y-24792079D01*
X9443991Y-24792079D02*
X9443991Y-24801603D01*
X9443991Y-24801603D02*
X9434468Y-24820650D01*
X9434468Y-24820650D02*
X9424944Y-24830174D01*
X9424944Y-24830174D02*
X9405896Y-24839698D01*
X9405896Y-24839698D02*
X9367801Y-24839698D01*
X9367801Y-24839698D02*
X9348753Y-24849222D01*
X9348753Y-24849222D02*
X9339230Y-24858746D01*
X9339230Y-24858746D02*
X9329706Y-24877793D01*
X9329706Y-24877793D02*
X9329706Y-24915888D01*
X9329706Y-24915888D02*
X9339230Y-24934936D01*
X9339230Y-24934936D02*
X9348753Y-24944460D01*
X9348753Y-24944460D02*
X9367801Y-24953984D01*
X9367801Y-24953984D02*
X9405896Y-24953984D01*
X9405896Y-24953984D02*
X9424944Y-24944460D01*
X9424944Y-24944460D02*
X9434468Y-24934936D01*
X9434468Y-24934936D02*
X9443991Y-24915888D01*
X9443991Y-24915888D02*
X9443991Y-24877793D01*
X9443991Y-24877793D02*
X9434468Y-24858746D01*
X9434468Y-24858746D02*
X9424944Y-24849222D01*
X9424944Y-24849222D02*
X9405896Y-24839698D01*
X9682087Y-24953984D02*
X9682087Y-24753984D01*
X9767801Y-24953984D02*
X9767801Y-24849222D01*
X9767801Y-24849222D02*
X9758277Y-24830174D01*
X9758277Y-24830174D02*
X9739230Y-24820650D01*
X9739230Y-24820650D02*
X9710658Y-24820650D01*
X9710658Y-24820650D02*
X9691611Y-24830174D01*
X9691611Y-24830174D02*
X9682087Y-24839698D01*
X9891611Y-24953984D02*
X9872563Y-24944460D01*
X9872563Y-24944460D02*
X9863039Y-24934936D01*
X9863039Y-24934936D02*
X9853515Y-24915888D01*
X9853515Y-24915888D02*
X9853515Y-24858746D01*
X9853515Y-24858746D02*
X9863039Y-24839698D01*
X9863039Y-24839698D02*
X9872563Y-24830174D01*
X9872563Y-24830174D02*
X9891611Y-24820650D01*
X9891611Y-24820650D02*
X9920182Y-24820650D01*
X9920182Y-24820650D02*
X9939230Y-24830174D01*
X9939230Y-24830174D02*
X9948753Y-24839698D01*
X9948753Y-24839698D02*
X9958277Y-24858746D01*
X9958277Y-24858746D02*
X9958277Y-24915888D01*
X9958277Y-24915888D02*
X9948753Y-24934936D01*
X9948753Y-24934936D02*
X9939230Y-24944460D01*
X9939230Y-24944460D02*
X9920182Y-24953984D01*
X9920182Y-24953984D02*
X9891611Y-24953984D01*
X10072563Y-24953984D02*
X10053515Y-24944460D01*
X10053515Y-24944460D02*
X10043992Y-24925412D01*
X10043992Y-24925412D02*
X10043992Y-24753984D01*
X10224944Y-24944460D02*
X10205896Y-24953984D01*
X10205896Y-24953984D02*
X10167801Y-24953984D01*
X10167801Y-24953984D02*
X10148753Y-24944460D01*
X10148753Y-24944460D02*
X10139230Y-24925412D01*
X10139230Y-24925412D02*
X10139230Y-24849222D01*
X10139230Y-24849222D02*
X10148753Y-24830174D01*
X10148753Y-24830174D02*
X10167801Y-24820650D01*
X10167801Y-24820650D02*
X10205896Y-24820650D01*
X10205896Y-24820650D02*
X10224944Y-24830174D01*
X10224944Y-24830174D02*
X10234468Y-24849222D01*
X10234468Y-24849222D02*
X10234468Y-24868269D01*
X10234468Y-24868269D02*
X10139230Y-24887317D01*
X10310658Y-24944460D02*
X10329706Y-24953984D01*
X10329706Y-24953984D02*
X10367801Y-24953984D01*
X10367801Y-24953984D02*
X10386849Y-24944460D01*
X10386849Y-24944460D02*
X10396373Y-24925412D01*
X10396373Y-24925412D02*
X10396373Y-24915888D01*
X10396373Y-24915888D02*
X10386849Y-24896841D01*
X10386849Y-24896841D02*
X10367801Y-24887317D01*
X10367801Y-24887317D02*
X10339230Y-24887317D01*
X10339230Y-24887317D02*
X10320182Y-24877793D01*
X10320182Y-24877793D02*
X10310658Y-24858746D01*
X10310658Y-24858746D02*
X10310658Y-24849222D01*
X10310658Y-24849222D02*
X10320182Y-24830174D01*
X10320182Y-24830174D02*
X10339230Y-24820650D01*
X10339230Y-24820650D02*
X10367801Y-24820650D01*
X10367801Y-24820650D02*
X10386849Y-24830174D01*
X10463039Y-25030174D02*
X10472563Y-25020650D01*
X10472563Y-25020650D02*
X10491611Y-24992079D01*
X10491611Y-24992079D02*
X10501134Y-24973031D01*
X10501134Y-24973031D02*
X10510658Y-24944460D01*
X10510658Y-24944460D02*
X10520182Y-24896841D01*
X10520182Y-24896841D02*
X10520182Y-24858746D01*
X10520182Y-24858746D02*
X10510658Y-24811127D01*
X10510658Y-24811127D02*
X10501134Y-24782555D01*
X10501134Y-24782555D02*
X10491611Y-24763508D01*
X10491611Y-24763508D02*
X10472563Y-24734936D01*
X10472563Y-24734936D02*
X10463039Y-24725412D01*
X5297500Y-25026500D02*
X5497500Y-25226500D01*
X5497500Y-25026500D02*
X5297500Y-25226500D01*
X5397500Y-25026500D02*
X5397500Y-25226500D01*
X5297500Y-25126500D02*
X5497500Y-25126500D01*
X5739229Y-25017984D02*
X5863039Y-25017984D01*
X5863039Y-25017984D02*
X5796372Y-25094174D01*
X5796372Y-25094174D02*
X5824943Y-25094174D01*
X5824943Y-25094174D02*
X5843991Y-25103698D01*
X5843991Y-25103698D02*
X5853515Y-25113222D01*
X5853515Y-25113222D02*
X5863039Y-25132269D01*
X5863039Y-25132269D02*
X5863039Y-25179888D01*
X5863039Y-25179888D02*
X5853515Y-25198936D01*
X5853515Y-25198936D02*
X5843991Y-25208460D01*
X5843991Y-25208460D02*
X5824943Y-25217984D01*
X5824943Y-25217984D02*
X5767801Y-25217984D01*
X5767801Y-25217984D02*
X5748753Y-25208460D01*
X5748753Y-25208460D02*
X5739229Y-25198936D01*
X5948753Y-25198936D02*
X5958277Y-25208460D01*
X5958277Y-25208460D02*
X5948753Y-25217984D01*
X5948753Y-25217984D02*
X5939229Y-25208460D01*
X5939229Y-25208460D02*
X5948753Y-25198936D01*
X5948753Y-25198936D02*
X5948753Y-25217984D01*
X6082086Y-25017984D02*
X6101134Y-25017984D01*
X6101134Y-25017984D02*
X6120182Y-25027508D01*
X6120182Y-25027508D02*
X6129705Y-25037031D01*
X6129705Y-25037031D02*
X6139229Y-25056079D01*
X6139229Y-25056079D02*
X6148753Y-25094174D01*
X6148753Y-25094174D02*
X6148753Y-25141793D01*
X6148753Y-25141793D02*
X6139229Y-25179888D01*
X6139229Y-25179888D02*
X6129705Y-25198936D01*
X6129705Y-25198936D02*
X6120182Y-25208460D01*
X6120182Y-25208460D02*
X6101134Y-25217984D01*
X6101134Y-25217984D02*
X6082086Y-25217984D01*
X6082086Y-25217984D02*
X6063039Y-25208460D01*
X6063039Y-25208460D02*
X6053515Y-25198936D01*
X6053515Y-25198936D02*
X6043991Y-25179888D01*
X6043991Y-25179888D02*
X6034467Y-25141793D01*
X6034467Y-25141793D02*
X6034467Y-25094174D01*
X6034467Y-25094174D02*
X6043991Y-25056079D01*
X6043991Y-25056079D02*
X6053515Y-25037031D01*
X6053515Y-25037031D02*
X6063039Y-25027508D01*
X6063039Y-25027508D02*
X6082086Y-25017984D01*
X6272562Y-25017984D02*
X6291610Y-25017984D01*
X6291610Y-25017984D02*
X6310658Y-25027508D01*
X6310658Y-25027508D02*
X6320182Y-25037031D01*
X6320182Y-25037031D02*
X6329705Y-25056079D01*
X6329705Y-25056079D02*
X6339229Y-25094174D01*
X6339229Y-25094174D02*
X6339229Y-25141793D01*
X6339229Y-25141793D02*
X6329705Y-25179888D01*
X6329705Y-25179888D02*
X6320182Y-25198936D01*
X6320182Y-25198936D02*
X6310658Y-25208460D01*
X6310658Y-25208460D02*
X6291610Y-25217984D01*
X6291610Y-25217984D02*
X6272562Y-25217984D01*
X6272562Y-25217984D02*
X6253515Y-25208460D01*
X6253515Y-25208460D02*
X6243991Y-25198936D01*
X6243991Y-25198936D02*
X6234467Y-25179888D01*
X6234467Y-25179888D02*
X6224943Y-25141793D01*
X6224943Y-25141793D02*
X6224943Y-25094174D01*
X6224943Y-25094174D02*
X6234467Y-25056079D01*
X6234467Y-25056079D02*
X6243991Y-25037031D01*
X6243991Y-25037031D02*
X6253515Y-25027508D01*
X6253515Y-25027508D02*
X6272562Y-25017984D01*
X6463039Y-25017984D02*
X6482086Y-25017984D01*
X6482086Y-25017984D02*
X6501134Y-25027508D01*
X6501134Y-25027508D02*
X6510658Y-25037031D01*
X6510658Y-25037031D02*
X6520182Y-25056079D01*
X6520182Y-25056079D02*
X6529705Y-25094174D01*
X6529705Y-25094174D02*
X6529705Y-25141793D01*
X6529705Y-25141793D02*
X6520182Y-25179888D01*
X6520182Y-25179888D02*
X6510658Y-25198936D01*
X6510658Y-25198936D02*
X6501134Y-25208460D01*
X6501134Y-25208460D02*
X6482086Y-25217984D01*
X6482086Y-25217984D02*
X6463039Y-25217984D01*
X6463039Y-25217984D02*
X6443991Y-25208460D01*
X6443991Y-25208460D02*
X6434467Y-25198936D01*
X6434467Y-25198936D02*
X6424943Y-25179888D01*
X6424943Y-25179888D02*
X6415420Y-25141793D01*
X6415420Y-25141793D02*
X6415420Y-25094174D01*
X6415420Y-25094174D02*
X6424943Y-25056079D01*
X6424943Y-25056079D02*
X6434467Y-25037031D01*
X6434467Y-25037031D02*
X6443991Y-25027508D01*
X6443991Y-25027508D02*
X6463039Y-25017984D01*
X6615420Y-25217984D02*
X6615420Y-25084650D01*
X6615420Y-25103698D02*
X6624943Y-25094174D01*
X6624943Y-25094174D02*
X6643991Y-25084650D01*
X6643991Y-25084650D02*
X6672563Y-25084650D01*
X6672563Y-25084650D02*
X6691610Y-25094174D01*
X6691610Y-25094174D02*
X6701134Y-25113222D01*
X6701134Y-25113222D02*
X6701134Y-25217984D01*
X6701134Y-25113222D02*
X6710658Y-25094174D01*
X6710658Y-25094174D02*
X6729705Y-25084650D01*
X6729705Y-25084650D02*
X6758277Y-25084650D01*
X6758277Y-25084650D02*
X6777324Y-25094174D01*
X6777324Y-25094174D02*
X6786848Y-25113222D01*
X6786848Y-25113222D02*
X6786848Y-25217984D01*
X6882086Y-25217984D02*
X6882086Y-25084650D01*
X6882086Y-25103698D02*
X6891610Y-25094174D01*
X6891610Y-25094174D02*
X6910658Y-25084650D01*
X6910658Y-25084650D02*
X6939229Y-25084650D01*
X6939229Y-25084650D02*
X6958277Y-25094174D01*
X6958277Y-25094174D02*
X6967801Y-25113222D01*
X6967801Y-25113222D02*
X6967801Y-25217984D01*
X6967801Y-25113222D02*
X6977324Y-25094174D01*
X6977324Y-25094174D02*
X6996372Y-25084650D01*
X6996372Y-25084650D02*
X7024943Y-25084650D01*
X7024943Y-25084650D02*
X7043991Y-25094174D01*
X7043991Y-25094174D02*
X7053515Y-25113222D01*
X7053515Y-25113222D02*
X7053515Y-25217984D01*
X7443991Y-25008460D02*
X7272563Y-25265603D01*
X7701134Y-25017984D02*
X7720182Y-25017984D01*
X7720182Y-25017984D02*
X7739229Y-25027508D01*
X7739229Y-25027508D02*
X7748753Y-25037031D01*
X7748753Y-25037031D02*
X7758277Y-25056079D01*
X7758277Y-25056079D02*
X7767801Y-25094174D01*
X7767801Y-25094174D02*
X7767801Y-25141793D01*
X7767801Y-25141793D02*
X7758277Y-25179888D01*
X7758277Y-25179888D02*
X7748753Y-25198936D01*
X7748753Y-25198936D02*
X7739229Y-25208460D01*
X7739229Y-25208460D02*
X7720182Y-25217984D01*
X7720182Y-25217984D02*
X7701134Y-25217984D01*
X7701134Y-25217984D02*
X7682086Y-25208460D01*
X7682086Y-25208460D02*
X7672563Y-25198936D01*
X7672563Y-25198936D02*
X7663039Y-25179888D01*
X7663039Y-25179888D02*
X7653515Y-25141793D01*
X7653515Y-25141793D02*
X7653515Y-25094174D01*
X7653515Y-25094174D02*
X7663039Y-25056079D01*
X7663039Y-25056079D02*
X7672563Y-25037031D01*
X7672563Y-25037031D02*
X7682086Y-25027508D01*
X7682086Y-25027508D02*
X7701134Y-25017984D01*
X7853515Y-25198936D02*
X7863039Y-25208460D01*
X7863039Y-25208460D02*
X7853515Y-25217984D01*
X7853515Y-25217984D02*
X7843991Y-25208460D01*
X7843991Y-25208460D02*
X7853515Y-25198936D01*
X7853515Y-25198936D02*
X7853515Y-25217984D01*
X8053515Y-25217984D02*
X7939229Y-25217984D01*
X7996372Y-25217984D02*
X7996372Y-25017984D01*
X7996372Y-25017984D02*
X7977325Y-25046555D01*
X7977325Y-25046555D02*
X7958277Y-25065603D01*
X7958277Y-25065603D02*
X7939229Y-25075127D01*
X8243991Y-25217984D02*
X8129706Y-25217984D01*
X8186848Y-25217984D02*
X8186848Y-25017984D01*
X8186848Y-25017984D02*
X8167801Y-25046555D01*
X8167801Y-25046555D02*
X8148753Y-25065603D01*
X8148753Y-25065603D02*
X8129706Y-25075127D01*
X8358277Y-25103698D02*
X8339229Y-25094174D01*
X8339229Y-25094174D02*
X8329706Y-25084650D01*
X8329706Y-25084650D02*
X8320182Y-25065603D01*
X8320182Y-25065603D02*
X8320182Y-25056079D01*
X8320182Y-25056079D02*
X8329706Y-25037031D01*
X8329706Y-25037031D02*
X8339229Y-25027508D01*
X8339229Y-25027508D02*
X8358277Y-25017984D01*
X8358277Y-25017984D02*
X8396372Y-25017984D01*
X8396372Y-25017984D02*
X8415420Y-25027508D01*
X8415420Y-25027508D02*
X8424944Y-25037031D01*
X8424944Y-25037031D02*
X8434468Y-25056079D01*
X8434468Y-25056079D02*
X8434468Y-25065603D01*
X8434468Y-25065603D02*
X8424944Y-25084650D01*
X8424944Y-25084650D02*
X8415420Y-25094174D01*
X8415420Y-25094174D02*
X8396372Y-25103698D01*
X8396372Y-25103698D02*
X8358277Y-25103698D01*
X8358277Y-25103698D02*
X8339229Y-25113222D01*
X8339229Y-25113222D02*
X8329706Y-25122746D01*
X8329706Y-25122746D02*
X8320182Y-25141793D01*
X8320182Y-25141793D02*
X8320182Y-25179888D01*
X8320182Y-25179888D02*
X8329706Y-25198936D01*
X8329706Y-25198936D02*
X8339229Y-25208460D01*
X8339229Y-25208460D02*
X8358277Y-25217984D01*
X8358277Y-25217984D02*
X8396372Y-25217984D01*
X8396372Y-25217984D02*
X8415420Y-25208460D01*
X8415420Y-25208460D02*
X8424944Y-25198936D01*
X8424944Y-25198936D02*
X8434468Y-25179888D01*
X8434468Y-25179888D02*
X8434468Y-25141793D01*
X8434468Y-25141793D02*
X8424944Y-25122746D01*
X8424944Y-25122746D02*
X8415420Y-25113222D01*
X8415420Y-25113222D02*
X8396372Y-25103698D01*
X8624944Y-25217984D02*
X8510658Y-25217984D01*
X8567801Y-25217984D02*
X8567801Y-25017984D01*
X8567801Y-25017984D02*
X8548753Y-25046555D01*
X8548753Y-25046555D02*
X8529706Y-25065603D01*
X8529706Y-25065603D02*
X8510658Y-25075127D01*
X8701134Y-25017984D02*
X8701134Y-25056079D01*
X8777325Y-25017984D02*
X8777325Y-25056079D01*
X9072563Y-25294174D02*
X9063039Y-25284650D01*
X9063039Y-25284650D02*
X9043991Y-25256079D01*
X9043991Y-25256079D02*
X9034468Y-25237031D01*
X9034468Y-25237031D02*
X9024944Y-25208460D01*
X9024944Y-25208460D02*
X9015420Y-25160841D01*
X9015420Y-25160841D02*
X9015420Y-25122746D01*
X9015420Y-25122746D02*
X9024944Y-25075127D01*
X9024944Y-25075127D02*
X9034468Y-25046555D01*
X9034468Y-25046555D02*
X9043991Y-25027508D01*
X9043991Y-25027508D02*
X9063039Y-24998936D01*
X9063039Y-24998936D02*
X9072563Y-24989412D01*
X9129706Y-25017984D02*
X9253515Y-25017984D01*
X9253515Y-25017984D02*
X9186849Y-25094174D01*
X9186849Y-25094174D02*
X9215420Y-25094174D01*
X9215420Y-25094174D02*
X9234468Y-25103698D01*
X9234468Y-25103698D02*
X9243991Y-25113222D01*
X9243991Y-25113222D02*
X9253515Y-25132269D01*
X9253515Y-25132269D02*
X9253515Y-25179888D01*
X9253515Y-25179888D02*
X9243991Y-25198936D01*
X9243991Y-25198936D02*
X9234468Y-25208460D01*
X9234468Y-25208460D02*
X9215420Y-25217984D01*
X9215420Y-25217984D02*
X9158277Y-25217984D01*
X9158277Y-25217984D02*
X9139230Y-25208460D01*
X9139230Y-25208460D02*
X9129706Y-25198936D01*
X9491611Y-25217984D02*
X9491611Y-25017984D01*
X9577325Y-25217984D02*
X9577325Y-25113222D01*
X9577325Y-25113222D02*
X9567801Y-25094174D01*
X9567801Y-25094174D02*
X9548753Y-25084650D01*
X9548753Y-25084650D02*
X9520182Y-25084650D01*
X9520182Y-25084650D02*
X9501134Y-25094174D01*
X9501134Y-25094174D02*
X9491611Y-25103698D01*
X9701134Y-25217984D02*
X9682087Y-25208460D01*
X9682087Y-25208460D02*
X9672563Y-25198936D01*
X9672563Y-25198936D02*
X9663039Y-25179888D01*
X9663039Y-25179888D02*
X9663039Y-25122746D01*
X9663039Y-25122746D02*
X9672563Y-25103698D01*
X9672563Y-25103698D02*
X9682087Y-25094174D01*
X9682087Y-25094174D02*
X9701134Y-25084650D01*
X9701134Y-25084650D02*
X9729706Y-25084650D01*
X9729706Y-25084650D02*
X9748753Y-25094174D01*
X9748753Y-25094174D02*
X9758277Y-25103698D01*
X9758277Y-25103698D02*
X9767801Y-25122746D01*
X9767801Y-25122746D02*
X9767801Y-25179888D01*
X9767801Y-25179888D02*
X9758277Y-25198936D01*
X9758277Y-25198936D02*
X9748753Y-25208460D01*
X9748753Y-25208460D02*
X9729706Y-25217984D01*
X9729706Y-25217984D02*
X9701134Y-25217984D01*
X9882087Y-25217984D02*
X9863039Y-25208460D01*
X9863039Y-25208460D02*
X9853515Y-25189412D01*
X9853515Y-25189412D02*
X9853515Y-25017984D01*
X10034468Y-25208460D02*
X10015420Y-25217984D01*
X10015420Y-25217984D02*
X9977325Y-25217984D01*
X9977325Y-25217984D02*
X9958277Y-25208460D01*
X9958277Y-25208460D02*
X9948753Y-25189412D01*
X9948753Y-25189412D02*
X9948753Y-25113222D01*
X9948753Y-25113222D02*
X9958277Y-25094174D01*
X9958277Y-25094174D02*
X9977325Y-25084650D01*
X9977325Y-25084650D02*
X10015420Y-25084650D01*
X10015420Y-25084650D02*
X10034468Y-25094174D01*
X10034468Y-25094174D02*
X10043992Y-25113222D01*
X10043992Y-25113222D02*
X10043992Y-25132269D01*
X10043992Y-25132269D02*
X9948753Y-25151317D01*
X10120182Y-25208460D02*
X10139230Y-25217984D01*
X10139230Y-25217984D02*
X10177325Y-25217984D01*
X10177325Y-25217984D02*
X10196373Y-25208460D01*
X10196373Y-25208460D02*
X10205896Y-25189412D01*
X10205896Y-25189412D02*
X10205896Y-25179888D01*
X10205896Y-25179888D02*
X10196373Y-25160841D01*
X10196373Y-25160841D02*
X10177325Y-25151317D01*
X10177325Y-25151317D02*
X10148753Y-25151317D01*
X10148753Y-25151317D02*
X10129706Y-25141793D01*
X10129706Y-25141793D02*
X10120182Y-25122746D01*
X10120182Y-25122746D02*
X10120182Y-25113222D01*
X10120182Y-25113222D02*
X10129706Y-25094174D01*
X10129706Y-25094174D02*
X10148753Y-25084650D01*
X10148753Y-25084650D02*
X10177325Y-25084650D01*
X10177325Y-25084650D02*
X10196373Y-25094174D01*
X10272563Y-25294174D02*
X10282087Y-25284650D01*
X10282087Y-25284650D02*
X10301134Y-25256079D01*
X10301134Y-25256079D02*
X10310658Y-25237031D01*
X10310658Y-25237031D02*
X10320182Y-25208460D01*
X10320182Y-25208460D02*
X10329706Y-25160841D01*
X10329706Y-25160841D02*
X10329706Y-25122746D01*
X10329706Y-25122746D02*
X10320182Y-25075127D01*
X10320182Y-25075127D02*
X10310658Y-25046555D01*
X10310658Y-25046555D02*
X10301134Y-25027508D01*
X10301134Y-25027508D02*
X10282087Y-24998936D01*
X10282087Y-24998936D02*
X10272563Y-24989412D01*
M02*
