%TF.GenerationSoftware,KiCad,Pcbnew,10.0.1*%
%TF.CreationDate,2026-07-13T12:29:03+01:00*%
%TF.ProjectId,Thin-Pod Gateway,5468696e-2d50-46f6-9420-476174657761,0.1*%
%TF.SameCoordinates,Original*%
%TF.FileFunction,Drillmap*%
%TF.FilePolarity,Positive*%
%FSLAX45Y45*%
G04 Gerber Fmt 4.5, Leading zero omitted, Abs format (unit mm)*
G04 Created by KiCad (PCBNEW 10.0.1) date 2026-07-13 12:29:03*
%MOMM*%
%LPD*%
G01*
G04 APERTURE LIST*
%ADD10C,0.050000*%
%ADD11C,0.200000*%
%ADD12C,0.300000*%
%ADD13C,0.320000*%
G04 APERTURE END LIST*
D10*
X5500000Y-8700000D02*
X5500000Y-8700000D01*
G75*
G02*
X5800000Y-8400000I300000J0D01*
G01*
X21200000Y-8400000D01*
G75*
G02*
X21500000Y-8700000I0J-300000D01*
G01*
X21500000Y-22600000D01*
G75*
G02*
X21200000Y-22900000I-300000J0D01*
G01*
X5800000Y-22900000D01*
G75*
G02*
X5500000Y-22600000I0J300000D01*
G01*
X5500000Y-8700000D01*
D11*
D12*
X13889500Y-11745500D02*
X14189500Y-12045500D01*
X14189500Y-11745500D02*
X13889500Y-12045500D01*
X14016500Y-19365500D02*
X14316500Y-19665500D01*
X14316500Y-19365500D02*
X14016500Y-19665500D01*
X17182500Y-16956500D02*
X17482500Y-17256500D01*
X17482500Y-16956500D02*
X17182500Y-17256500D01*
X18587500Y-19366500D02*
X18887500Y-19666500D01*
X18887500Y-19366500D02*
X18587500Y-19666500D01*
X18717500Y-11876500D02*
X19017500Y-12176500D01*
X19017500Y-11876500D02*
X18717500Y-12176500D01*
D13*
X6160000Y-9700000D02*
G75*
G02*
X5840000Y-9700000I-160000J0D01*
G01*
X5840000Y-9700000D02*
G75*
G02*
X6160000Y-9700000I160000J0D01*
G01*
X6260000Y-22000000D02*
G75*
G02*
X5940000Y-22000000I-160000J0D01*
G01*
X5940000Y-22000000D02*
G75*
G02*
X6260000Y-22000000I160000J0D01*
G01*
X21060000Y-9700000D02*
G75*
G02*
X20740000Y-9700000I-160000J0D01*
G01*
X20740000Y-9700000D02*
G75*
G02*
X21060000Y-9700000I160000J0D01*
G01*
X21060000Y-22000000D02*
G75*
G02*
X20740000Y-22000000I-160000J0D01*
G01*
X20740000Y-22000000D02*
G75*
G02*
X21060000Y-22000000I160000J0D01*
G01*
D11*
X5758277Y-23213984D02*
X5758277Y-23013984D01*
X5758277Y-23013984D02*
X5805896Y-23013984D01*
X5805896Y-23013984D02*
X5834467Y-23023508D01*
X5834467Y-23023508D02*
X5853515Y-23042555D01*
X5853515Y-23042555D02*
X5863039Y-23061603D01*
X5863039Y-23061603D02*
X5872562Y-23099698D01*
X5872562Y-23099698D02*
X5872562Y-23128269D01*
X5872562Y-23128269D02*
X5863039Y-23166365D01*
X5863039Y-23166365D02*
X5853515Y-23185412D01*
X5853515Y-23185412D02*
X5834467Y-23204460D01*
X5834467Y-23204460D02*
X5805896Y-23213984D01*
X5805896Y-23213984D02*
X5758277Y-23213984D01*
X5958277Y-23213984D02*
X5958277Y-23080650D01*
X5958277Y-23118746D02*
X5967801Y-23099698D01*
X5967801Y-23099698D02*
X5977324Y-23090174D01*
X5977324Y-23090174D02*
X5996372Y-23080650D01*
X5996372Y-23080650D02*
X6015420Y-23080650D01*
X6082086Y-23213984D02*
X6082086Y-23080650D01*
X6082086Y-23013984D02*
X6072562Y-23023508D01*
X6072562Y-23023508D02*
X6082086Y-23033031D01*
X6082086Y-23033031D02*
X6091610Y-23023508D01*
X6091610Y-23023508D02*
X6082086Y-23013984D01*
X6082086Y-23013984D02*
X6082086Y-23033031D01*
X6205896Y-23213984D02*
X6186848Y-23204460D01*
X6186848Y-23204460D02*
X6177324Y-23185412D01*
X6177324Y-23185412D02*
X6177324Y-23013984D01*
X6310658Y-23213984D02*
X6291610Y-23204460D01*
X6291610Y-23204460D02*
X6282086Y-23185412D01*
X6282086Y-23185412D02*
X6282086Y-23013984D01*
X6539229Y-23213984D02*
X6539229Y-23013984D01*
X6539229Y-23013984D02*
X6605896Y-23156841D01*
X6605896Y-23156841D02*
X6672562Y-23013984D01*
X6672562Y-23013984D02*
X6672562Y-23213984D01*
X6853515Y-23213984D02*
X6853515Y-23109222D01*
X6853515Y-23109222D02*
X6843991Y-23090174D01*
X6843991Y-23090174D02*
X6824943Y-23080650D01*
X6824943Y-23080650D02*
X6786848Y-23080650D01*
X6786848Y-23080650D02*
X6767801Y-23090174D01*
X6853515Y-23204460D02*
X6834467Y-23213984D01*
X6834467Y-23213984D02*
X6786848Y-23213984D01*
X6786848Y-23213984D02*
X6767801Y-23204460D01*
X6767801Y-23204460D02*
X6758277Y-23185412D01*
X6758277Y-23185412D02*
X6758277Y-23166365D01*
X6758277Y-23166365D02*
X6767801Y-23147317D01*
X6767801Y-23147317D02*
X6786848Y-23137793D01*
X6786848Y-23137793D02*
X6834467Y-23137793D01*
X6834467Y-23137793D02*
X6853515Y-23128269D01*
X6948753Y-23080650D02*
X6948753Y-23280650D01*
X6948753Y-23090174D02*
X6967801Y-23080650D01*
X6967801Y-23080650D02*
X7005896Y-23080650D01*
X7005896Y-23080650D02*
X7024943Y-23090174D01*
X7024943Y-23090174D02*
X7034467Y-23099698D01*
X7034467Y-23099698D02*
X7043991Y-23118746D01*
X7043991Y-23118746D02*
X7043991Y-23175888D01*
X7043991Y-23175888D02*
X7034467Y-23194936D01*
X7034467Y-23194936D02*
X7024943Y-23204460D01*
X7024943Y-23204460D02*
X7005896Y-23213984D01*
X7005896Y-23213984D02*
X6967801Y-23213984D01*
X6967801Y-23213984D02*
X6948753Y-23204460D01*
X7129705Y-23194936D02*
X7139229Y-23204460D01*
X7139229Y-23204460D02*
X7129705Y-23213984D01*
X7129705Y-23213984D02*
X7120182Y-23204460D01*
X7120182Y-23204460D02*
X7129705Y-23194936D01*
X7129705Y-23194936D02*
X7129705Y-23213984D01*
X7129705Y-23090174D02*
X7139229Y-23099698D01*
X7139229Y-23099698D02*
X7129705Y-23109222D01*
X7129705Y-23109222D02*
X7120182Y-23099698D01*
X7120182Y-23099698D02*
X7129705Y-23090174D01*
X7129705Y-23090174D02*
X7129705Y-23109222D01*
X5297500Y-23442500D02*
X5497500Y-23642500D01*
X5497500Y-23442500D02*
X5297500Y-23642500D01*
X5739229Y-23433984D02*
X5863039Y-23433984D01*
X5863039Y-23433984D02*
X5796372Y-23510174D01*
X5796372Y-23510174D02*
X5824943Y-23510174D01*
X5824943Y-23510174D02*
X5843991Y-23519698D01*
X5843991Y-23519698D02*
X5853515Y-23529222D01*
X5853515Y-23529222D02*
X5863039Y-23548269D01*
X5863039Y-23548269D02*
X5863039Y-23595888D01*
X5863039Y-23595888D02*
X5853515Y-23614936D01*
X5853515Y-23614936D02*
X5843991Y-23624460D01*
X5843991Y-23624460D02*
X5824943Y-23633984D01*
X5824943Y-23633984D02*
X5767801Y-23633984D01*
X5767801Y-23633984D02*
X5748753Y-23624460D01*
X5748753Y-23624460D02*
X5739229Y-23614936D01*
X5948753Y-23614936D02*
X5958277Y-23624460D01*
X5958277Y-23624460D02*
X5948753Y-23633984D01*
X5948753Y-23633984D02*
X5939229Y-23624460D01*
X5939229Y-23624460D02*
X5948753Y-23614936D01*
X5948753Y-23614936D02*
X5948753Y-23633984D01*
X6082086Y-23433984D02*
X6101134Y-23433984D01*
X6101134Y-23433984D02*
X6120182Y-23443508D01*
X6120182Y-23443508D02*
X6129705Y-23453031D01*
X6129705Y-23453031D02*
X6139229Y-23472079D01*
X6139229Y-23472079D02*
X6148753Y-23510174D01*
X6148753Y-23510174D02*
X6148753Y-23557793D01*
X6148753Y-23557793D02*
X6139229Y-23595888D01*
X6139229Y-23595888D02*
X6129705Y-23614936D01*
X6129705Y-23614936D02*
X6120182Y-23624460D01*
X6120182Y-23624460D02*
X6101134Y-23633984D01*
X6101134Y-23633984D02*
X6082086Y-23633984D01*
X6082086Y-23633984D02*
X6063039Y-23624460D01*
X6063039Y-23624460D02*
X6053515Y-23614936D01*
X6053515Y-23614936D02*
X6043991Y-23595888D01*
X6043991Y-23595888D02*
X6034467Y-23557793D01*
X6034467Y-23557793D02*
X6034467Y-23510174D01*
X6034467Y-23510174D02*
X6043991Y-23472079D01*
X6043991Y-23472079D02*
X6053515Y-23453031D01*
X6053515Y-23453031D02*
X6063039Y-23443508D01*
X6063039Y-23443508D02*
X6082086Y-23433984D01*
X6272562Y-23433984D02*
X6291610Y-23433984D01*
X6291610Y-23433984D02*
X6310658Y-23443508D01*
X6310658Y-23443508D02*
X6320182Y-23453031D01*
X6320182Y-23453031D02*
X6329705Y-23472079D01*
X6329705Y-23472079D02*
X6339229Y-23510174D01*
X6339229Y-23510174D02*
X6339229Y-23557793D01*
X6339229Y-23557793D02*
X6329705Y-23595888D01*
X6329705Y-23595888D02*
X6320182Y-23614936D01*
X6320182Y-23614936D02*
X6310658Y-23624460D01*
X6310658Y-23624460D02*
X6291610Y-23633984D01*
X6291610Y-23633984D02*
X6272562Y-23633984D01*
X6272562Y-23633984D02*
X6253515Y-23624460D01*
X6253515Y-23624460D02*
X6243991Y-23614936D01*
X6243991Y-23614936D02*
X6234467Y-23595888D01*
X6234467Y-23595888D02*
X6224943Y-23557793D01*
X6224943Y-23557793D02*
X6224943Y-23510174D01*
X6224943Y-23510174D02*
X6234467Y-23472079D01*
X6234467Y-23472079D02*
X6243991Y-23453031D01*
X6243991Y-23453031D02*
X6253515Y-23443508D01*
X6253515Y-23443508D02*
X6272562Y-23433984D01*
X6463039Y-23433984D02*
X6482086Y-23433984D01*
X6482086Y-23433984D02*
X6501134Y-23443508D01*
X6501134Y-23443508D02*
X6510658Y-23453031D01*
X6510658Y-23453031D02*
X6520182Y-23472079D01*
X6520182Y-23472079D02*
X6529705Y-23510174D01*
X6529705Y-23510174D02*
X6529705Y-23557793D01*
X6529705Y-23557793D02*
X6520182Y-23595888D01*
X6520182Y-23595888D02*
X6510658Y-23614936D01*
X6510658Y-23614936D02*
X6501134Y-23624460D01*
X6501134Y-23624460D02*
X6482086Y-23633984D01*
X6482086Y-23633984D02*
X6463039Y-23633984D01*
X6463039Y-23633984D02*
X6443991Y-23624460D01*
X6443991Y-23624460D02*
X6434467Y-23614936D01*
X6434467Y-23614936D02*
X6424943Y-23595888D01*
X6424943Y-23595888D02*
X6415420Y-23557793D01*
X6415420Y-23557793D02*
X6415420Y-23510174D01*
X6415420Y-23510174D02*
X6424943Y-23472079D01*
X6424943Y-23472079D02*
X6434467Y-23453031D01*
X6434467Y-23453031D02*
X6443991Y-23443508D01*
X6443991Y-23443508D02*
X6463039Y-23433984D01*
X6615420Y-23633984D02*
X6615420Y-23500650D01*
X6615420Y-23519698D02*
X6624943Y-23510174D01*
X6624943Y-23510174D02*
X6643991Y-23500650D01*
X6643991Y-23500650D02*
X6672563Y-23500650D01*
X6672563Y-23500650D02*
X6691610Y-23510174D01*
X6691610Y-23510174D02*
X6701134Y-23529222D01*
X6701134Y-23529222D02*
X6701134Y-23633984D01*
X6701134Y-23529222D02*
X6710658Y-23510174D01*
X6710658Y-23510174D02*
X6729705Y-23500650D01*
X6729705Y-23500650D02*
X6758277Y-23500650D01*
X6758277Y-23500650D02*
X6777324Y-23510174D01*
X6777324Y-23510174D02*
X6786848Y-23529222D01*
X6786848Y-23529222D02*
X6786848Y-23633984D01*
X6882086Y-23633984D02*
X6882086Y-23500650D01*
X6882086Y-23519698D02*
X6891610Y-23510174D01*
X6891610Y-23510174D02*
X6910658Y-23500650D01*
X6910658Y-23500650D02*
X6939229Y-23500650D01*
X6939229Y-23500650D02*
X6958277Y-23510174D01*
X6958277Y-23510174D02*
X6967801Y-23529222D01*
X6967801Y-23529222D02*
X6967801Y-23633984D01*
X6967801Y-23529222D02*
X6977324Y-23510174D01*
X6977324Y-23510174D02*
X6996372Y-23500650D01*
X6996372Y-23500650D02*
X7024943Y-23500650D01*
X7024943Y-23500650D02*
X7043991Y-23510174D01*
X7043991Y-23510174D02*
X7053515Y-23529222D01*
X7053515Y-23529222D02*
X7053515Y-23633984D01*
X7443991Y-23424460D02*
X7272563Y-23681603D01*
X7701134Y-23433984D02*
X7720182Y-23433984D01*
X7720182Y-23433984D02*
X7739229Y-23443508D01*
X7739229Y-23443508D02*
X7748753Y-23453031D01*
X7748753Y-23453031D02*
X7758277Y-23472079D01*
X7758277Y-23472079D02*
X7767801Y-23510174D01*
X7767801Y-23510174D02*
X7767801Y-23557793D01*
X7767801Y-23557793D02*
X7758277Y-23595888D01*
X7758277Y-23595888D02*
X7748753Y-23614936D01*
X7748753Y-23614936D02*
X7739229Y-23624460D01*
X7739229Y-23624460D02*
X7720182Y-23633984D01*
X7720182Y-23633984D02*
X7701134Y-23633984D01*
X7701134Y-23633984D02*
X7682086Y-23624460D01*
X7682086Y-23624460D02*
X7672563Y-23614936D01*
X7672563Y-23614936D02*
X7663039Y-23595888D01*
X7663039Y-23595888D02*
X7653515Y-23557793D01*
X7653515Y-23557793D02*
X7653515Y-23510174D01*
X7653515Y-23510174D02*
X7663039Y-23472079D01*
X7663039Y-23472079D02*
X7672563Y-23453031D01*
X7672563Y-23453031D02*
X7682086Y-23443508D01*
X7682086Y-23443508D02*
X7701134Y-23433984D01*
X7853515Y-23614936D02*
X7863039Y-23624460D01*
X7863039Y-23624460D02*
X7853515Y-23633984D01*
X7853515Y-23633984D02*
X7843991Y-23624460D01*
X7843991Y-23624460D02*
X7853515Y-23614936D01*
X7853515Y-23614936D02*
X7853515Y-23633984D01*
X8053515Y-23633984D02*
X7939229Y-23633984D01*
X7996372Y-23633984D02*
X7996372Y-23433984D01*
X7996372Y-23433984D02*
X7977325Y-23462555D01*
X7977325Y-23462555D02*
X7958277Y-23481603D01*
X7958277Y-23481603D02*
X7939229Y-23491127D01*
X8243991Y-23633984D02*
X8129706Y-23633984D01*
X8186848Y-23633984D02*
X8186848Y-23433984D01*
X8186848Y-23433984D02*
X8167801Y-23462555D01*
X8167801Y-23462555D02*
X8148753Y-23481603D01*
X8148753Y-23481603D02*
X8129706Y-23491127D01*
X8358277Y-23519698D02*
X8339229Y-23510174D01*
X8339229Y-23510174D02*
X8329706Y-23500650D01*
X8329706Y-23500650D02*
X8320182Y-23481603D01*
X8320182Y-23481603D02*
X8320182Y-23472079D01*
X8320182Y-23472079D02*
X8329706Y-23453031D01*
X8329706Y-23453031D02*
X8339229Y-23443508D01*
X8339229Y-23443508D02*
X8358277Y-23433984D01*
X8358277Y-23433984D02*
X8396372Y-23433984D01*
X8396372Y-23433984D02*
X8415420Y-23443508D01*
X8415420Y-23443508D02*
X8424944Y-23453031D01*
X8424944Y-23453031D02*
X8434468Y-23472079D01*
X8434468Y-23472079D02*
X8434468Y-23481603D01*
X8434468Y-23481603D02*
X8424944Y-23500650D01*
X8424944Y-23500650D02*
X8415420Y-23510174D01*
X8415420Y-23510174D02*
X8396372Y-23519698D01*
X8396372Y-23519698D02*
X8358277Y-23519698D01*
X8358277Y-23519698D02*
X8339229Y-23529222D01*
X8339229Y-23529222D02*
X8329706Y-23538746D01*
X8329706Y-23538746D02*
X8320182Y-23557793D01*
X8320182Y-23557793D02*
X8320182Y-23595888D01*
X8320182Y-23595888D02*
X8329706Y-23614936D01*
X8329706Y-23614936D02*
X8339229Y-23624460D01*
X8339229Y-23624460D02*
X8358277Y-23633984D01*
X8358277Y-23633984D02*
X8396372Y-23633984D01*
X8396372Y-23633984D02*
X8415420Y-23624460D01*
X8415420Y-23624460D02*
X8424944Y-23614936D01*
X8424944Y-23614936D02*
X8434468Y-23595888D01*
X8434468Y-23595888D02*
X8434468Y-23557793D01*
X8434468Y-23557793D02*
X8424944Y-23538746D01*
X8424944Y-23538746D02*
X8415420Y-23529222D01*
X8415420Y-23529222D02*
X8396372Y-23519698D01*
X8624944Y-23633984D02*
X8510658Y-23633984D01*
X8567801Y-23633984D02*
X8567801Y-23433984D01*
X8567801Y-23433984D02*
X8548753Y-23462555D01*
X8548753Y-23462555D02*
X8529706Y-23481603D01*
X8529706Y-23481603D02*
X8510658Y-23491127D01*
X8701134Y-23433984D02*
X8701134Y-23472079D01*
X8777325Y-23433984D02*
X8777325Y-23472079D01*
X9072563Y-23710174D02*
X9063039Y-23700650D01*
X9063039Y-23700650D02*
X9043991Y-23672079D01*
X9043991Y-23672079D02*
X9034468Y-23653031D01*
X9034468Y-23653031D02*
X9024944Y-23624460D01*
X9024944Y-23624460D02*
X9015420Y-23576841D01*
X9015420Y-23576841D02*
X9015420Y-23538746D01*
X9015420Y-23538746D02*
X9024944Y-23491127D01*
X9024944Y-23491127D02*
X9034468Y-23462555D01*
X9034468Y-23462555D02*
X9043991Y-23443508D01*
X9043991Y-23443508D02*
X9063039Y-23414936D01*
X9063039Y-23414936D02*
X9072563Y-23405412D01*
X9243991Y-23433984D02*
X9148753Y-23433984D01*
X9148753Y-23433984D02*
X9139230Y-23529222D01*
X9139230Y-23529222D02*
X9148753Y-23519698D01*
X9148753Y-23519698D02*
X9167801Y-23510174D01*
X9167801Y-23510174D02*
X9215420Y-23510174D01*
X9215420Y-23510174D02*
X9234468Y-23519698D01*
X9234468Y-23519698D02*
X9243991Y-23529222D01*
X9243991Y-23529222D02*
X9253515Y-23548269D01*
X9253515Y-23548269D02*
X9253515Y-23595888D01*
X9253515Y-23595888D02*
X9243991Y-23614936D01*
X9243991Y-23614936D02*
X9234468Y-23624460D01*
X9234468Y-23624460D02*
X9215420Y-23633984D01*
X9215420Y-23633984D02*
X9167801Y-23633984D01*
X9167801Y-23633984D02*
X9148753Y-23624460D01*
X9148753Y-23624460D02*
X9139230Y-23614936D01*
X9491611Y-23633984D02*
X9491611Y-23433984D01*
X9577325Y-23633984D02*
X9577325Y-23529222D01*
X9577325Y-23529222D02*
X9567801Y-23510174D01*
X9567801Y-23510174D02*
X9548753Y-23500650D01*
X9548753Y-23500650D02*
X9520182Y-23500650D01*
X9520182Y-23500650D02*
X9501134Y-23510174D01*
X9501134Y-23510174D02*
X9491611Y-23519698D01*
X9701134Y-23633984D02*
X9682087Y-23624460D01*
X9682087Y-23624460D02*
X9672563Y-23614936D01*
X9672563Y-23614936D02*
X9663039Y-23595888D01*
X9663039Y-23595888D02*
X9663039Y-23538746D01*
X9663039Y-23538746D02*
X9672563Y-23519698D01*
X9672563Y-23519698D02*
X9682087Y-23510174D01*
X9682087Y-23510174D02*
X9701134Y-23500650D01*
X9701134Y-23500650D02*
X9729706Y-23500650D01*
X9729706Y-23500650D02*
X9748753Y-23510174D01*
X9748753Y-23510174D02*
X9758277Y-23519698D01*
X9758277Y-23519698D02*
X9767801Y-23538746D01*
X9767801Y-23538746D02*
X9767801Y-23595888D01*
X9767801Y-23595888D02*
X9758277Y-23614936D01*
X9758277Y-23614936D02*
X9748753Y-23624460D01*
X9748753Y-23624460D02*
X9729706Y-23633984D01*
X9729706Y-23633984D02*
X9701134Y-23633984D01*
X9882087Y-23633984D02*
X9863039Y-23624460D01*
X9863039Y-23624460D02*
X9853515Y-23605412D01*
X9853515Y-23605412D02*
X9853515Y-23433984D01*
X10034468Y-23624460D02*
X10015420Y-23633984D01*
X10015420Y-23633984D02*
X9977325Y-23633984D01*
X9977325Y-23633984D02*
X9958277Y-23624460D01*
X9958277Y-23624460D02*
X9948753Y-23605412D01*
X9948753Y-23605412D02*
X9948753Y-23529222D01*
X9948753Y-23529222D02*
X9958277Y-23510174D01*
X9958277Y-23510174D02*
X9977325Y-23500650D01*
X9977325Y-23500650D02*
X10015420Y-23500650D01*
X10015420Y-23500650D02*
X10034468Y-23510174D01*
X10034468Y-23510174D02*
X10043992Y-23529222D01*
X10043992Y-23529222D02*
X10043992Y-23548269D01*
X10043992Y-23548269D02*
X9948753Y-23567317D01*
X10120182Y-23624460D02*
X10139230Y-23633984D01*
X10139230Y-23633984D02*
X10177325Y-23633984D01*
X10177325Y-23633984D02*
X10196373Y-23624460D01*
X10196373Y-23624460D02*
X10205896Y-23605412D01*
X10205896Y-23605412D02*
X10205896Y-23595888D01*
X10205896Y-23595888D02*
X10196373Y-23576841D01*
X10196373Y-23576841D02*
X10177325Y-23567317D01*
X10177325Y-23567317D02*
X10148753Y-23567317D01*
X10148753Y-23567317D02*
X10129706Y-23557793D01*
X10129706Y-23557793D02*
X10120182Y-23538746D01*
X10120182Y-23538746D02*
X10120182Y-23529222D01*
X10120182Y-23529222D02*
X10129706Y-23510174D01*
X10129706Y-23510174D02*
X10148753Y-23500650D01*
X10148753Y-23500650D02*
X10177325Y-23500650D01*
X10177325Y-23500650D02*
X10196373Y-23510174D01*
X10272563Y-23710174D02*
X10282087Y-23700650D01*
X10282087Y-23700650D02*
X10301134Y-23672079D01*
X10301134Y-23672079D02*
X10310658Y-23653031D01*
X10310658Y-23653031D02*
X10320182Y-23624460D01*
X10320182Y-23624460D02*
X10329706Y-23576841D01*
X10329706Y-23576841D02*
X10329706Y-23538746D01*
X10329706Y-23538746D02*
X10320182Y-23491127D01*
X10320182Y-23491127D02*
X10310658Y-23462555D01*
X10310658Y-23462555D02*
X10301134Y-23443508D01*
X10301134Y-23443508D02*
X10282087Y-23414936D01*
X10282087Y-23414936D02*
X10272563Y-23405412D01*
X10634468Y-23710174D02*
X10624944Y-23700650D01*
X10624944Y-23700650D02*
X10605896Y-23672079D01*
X10605896Y-23672079D02*
X10596373Y-23653031D01*
X10596373Y-23653031D02*
X10586849Y-23624460D01*
X10586849Y-23624460D02*
X10577325Y-23576841D01*
X10577325Y-23576841D02*
X10577325Y-23538746D01*
X10577325Y-23538746D02*
X10586849Y-23491127D01*
X10586849Y-23491127D02*
X10596373Y-23462555D01*
X10596373Y-23462555D02*
X10605896Y-23443508D01*
X10605896Y-23443508D02*
X10624944Y-23414936D01*
X10624944Y-23414936D02*
X10634468Y-23405412D01*
X10710658Y-23500650D02*
X10710658Y-23633984D01*
X10710658Y-23519698D02*
X10720182Y-23510174D01*
X10720182Y-23510174D02*
X10739230Y-23500650D01*
X10739230Y-23500650D02*
X10767801Y-23500650D01*
X10767801Y-23500650D02*
X10786849Y-23510174D01*
X10786849Y-23510174D02*
X10796373Y-23529222D01*
X10796373Y-23529222D02*
X10796373Y-23633984D01*
X10920182Y-23633984D02*
X10901134Y-23624460D01*
X10901134Y-23624460D02*
X10891611Y-23614936D01*
X10891611Y-23614936D02*
X10882087Y-23595888D01*
X10882087Y-23595888D02*
X10882087Y-23538746D01*
X10882087Y-23538746D02*
X10891611Y-23519698D01*
X10891611Y-23519698D02*
X10901134Y-23510174D01*
X10901134Y-23510174D02*
X10920182Y-23500650D01*
X10920182Y-23500650D02*
X10948754Y-23500650D01*
X10948754Y-23500650D02*
X10967801Y-23510174D01*
X10967801Y-23510174D02*
X10977325Y-23519698D01*
X10977325Y-23519698D02*
X10986849Y-23538746D01*
X10986849Y-23538746D02*
X10986849Y-23595888D01*
X10986849Y-23595888D02*
X10977325Y-23614936D01*
X10977325Y-23614936D02*
X10967801Y-23624460D01*
X10967801Y-23624460D02*
X10948754Y-23633984D01*
X10948754Y-23633984D02*
X10920182Y-23633984D01*
X11043992Y-23500650D02*
X11120182Y-23500650D01*
X11072563Y-23433984D02*
X11072563Y-23605412D01*
X11072563Y-23605412D02*
X11082087Y-23624460D01*
X11082087Y-23624460D02*
X11101134Y-23633984D01*
X11101134Y-23633984D02*
X11120182Y-23633984D01*
X11339230Y-23500650D02*
X11339230Y-23700650D01*
X11339230Y-23510174D02*
X11358277Y-23500650D01*
X11358277Y-23500650D02*
X11396373Y-23500650D01*
X11396373Y-23500650D02*
X11415420Y-23510174D01*
X11415420Y-23510174D02*
X11424944Y-23519698D01*
X11424944Y-23519698D02*
X11434468Y-23538746D01*
X11434468Y-23538746D02*
X11434468Y-23595888D01*
X11434468Y-23595888D02*
X11424944Y-23614936D01*
X11424944Y-23614936D02*
X11415420Y-23624460D01*
X11415420Y-23624460D02*
X11396373Y-23633984D01*
X11396373Y-23633984D02*
X11358277Y-23633984D01*
X11358277Y-23633984D02*
X11339230Y-23624460D01*
X11548753Y-23633984D02*
X11529706Y-23624460D01*
X11529706Y-23624460D02*
X11520182Y-23605412D01*
X11520182Y-23605412D02*
X11520182Y-23433984D01*
X11710658Y-23633984D02*
X11710658Y-23529222D01*
X11710658Y-23529222D02*
X11701134Y-23510174D01*
X11701134Y-23510174D02*
X11682087Y-23500650D01*
X11682087Y-23500650D02*
X11643992Y-23500650D01*
X11643992Y-23500650D02*
X11624944Y-23510174D01*
X11710658Y-23624460D02*
X11691611Y-23633984D01*
X11691611Y-23633984D02*
X11643992Y-23633984D01*
X11643992Y-23633984D02*
X11624944Y-23624460D01*
X11624944Y-23624460D02*
X11615420Y-23605412D01*
X11615420Y-23605412D02*
X11615420Y-23586365D01*
X11615420Y-23586365D02*
X11624944Y-23567317D01*
X11624944Y-23567317D02*
X11643992Y-23557793D01*
X11643992Y-23557793D02*
X11691611Y-23557793D01*
X11691611Y-23557793D02*
X11710658Y-23548269D01*
X11777325Y-23500650D02*
X11853515Y-23500650D01*
X11805896Y-23433984D02*
X11805896Y-23605412D01*
X11805896Y-23605412D02*
X11815420Y-23624460D01*
X11815420Y-23624460D02*
X11834468Y-23633984D01*
X11834468Y-23633984D02*
X11853515Y-23633984D01*
X11996373Y-23624460D02*
X11977325Y-23633984D01*
X11977325Y-23633984D02*
X11939230Y-23633984D01*
X11939230Y-23633984D02*
X11920182Y-23624460D01*
X11920182Y-23624460D02*
X11910658Y-23605412D01*
X11910658Y-23605412D02*
X11910658Y-23529222D01*
X11910658Y-23529222D02*
X11920182Y-23510174D01*
X11920182Y-23510174D02*
X11939230Y-23500650D01*
X11939230Y-23500650D02*
X11977325Y-23500650D01*
X11977325Y-23500650D02*
X11996373Y-23510174D01*
X11996373Y-23510174D02*
X12005896Y-23529222D01*
X12005896Y-23529222D02*
X12005896Y-23548269D01*
X12005896Y-23548269D02*
X11910658Y-23567317D01*
X12177325Y-23633984D02*
X12177325Y-23433984D01*
X12177325Y-23624460D02*
X12158277Y-23633984D01*
X12158277Y-23633984D02*
X12120182Y-23633984D01*
X12120182Y-23633984D02*
X12101134Y-23624460D01*
X12101134Y-23624460D02*
X12091611Y-23614936D01*
X12091611Y-23614936D02*
X12082087Y-23595888D01*
X12082087Y-23595888D02*
X12082087Y-23538746D01*
X12082087Y-23538746D02*
X12091611Y-23519698D01*
X12091611Y-23519698D02*
X12101134Y-23510174D01*
X12101134Y-23510174D02*
X12120182Y-23500650D01*
X12120182Y-23500650D02*
X12158277Y-23500650D01*
X12158277Y-23500650D02*
X12177325Y-23510174D01*
X12253515Y-23710174D02*
X12263039Y-23700650D01*
X12263039Y-23700650D02*
X12282087Y-23672079D01*
X12282087Y-23672079D02*
X12291611Y-23653031D01*
X12291611Y-23653031D02*
X12301134Y-23624460D01*
X12301134Y-23624460D02*
X12310658Y-23576841D01*
X12310658Y-23576841D02*
X12310658Y-23538746D01*
X12310658Y-23538746D02*
X12301134Y-23491127D01*
X12301134Y-23491127D02*
X12291611Y-23462555D01*
X12291611Y-23462555D02*
X12282087Y-23443508D01*
X12282087Y-23443508D02*
X12263039Y-23414936D01*
X12263039Y-23414936D02*
X12253515Y-23405412D01*
X5497500Y-23862500D02*
G75*
G02*
X5297500Y-23862500I-100000J0D01*
G01*
X5297500Y-23862500D02*
G75*
G02*
X5497500Y-23862500I100000J0D01*
G01*
X5739229Y-23753984D02*
X5863039Y-23753984D01*
X5863039Y-23753984D02*
X5796372Y-23830174D01*
X5796372Y-23830174D02*
X5824943Y-23830174D01*
X5824943Y-23830174D02*
X5843991Y-23839698D01*
X5843991Y-23839698D02*
X5853515Y-23849222D01*
X5853515Y-23849222D02*
X5863039Y-23868269D01*
X5863039Y-23868269D02*
X5863039Y-23915888D01*
X5863039Y-23915888D02*
X5853515Y-23934936D01*
X5853515Y-23934936D02*
X5843991Y-23944460D01*
X5843991Y-23944460D02*
X5824943Y-23953984D01*
X5824943Y-23953984D02*
X5767801Y-23953984D01*
X5767801Y-23953984D02*
X5748753Y-23944460D01*
X5748753Y-23944460D02*
X5739229Y-23934936D01*
X5948753Y-23934936D02*
X5958277Y-23944460D01*
X5958277Y-23944460D02*
X5948753Y-23953984D01*
X5948753Y-23953984D02*
X5939229Y-23944460D01*
X5939229Y-23944460D02*
X5948753Y-23934936D01*
X5948753Y-23934936D02*
X5948753Y-23953984D01*
X6034467Y-23773031D02*
X6043991Y-23763508D01*
X6043991Y-23763508D02*
X6063039Y-23753984D01*
X6063039Y-23753984D02*
X6110658Y-23753984D01*
X6110658Y-23753984D02*
X6129705Y-23763508D01*
X6129705Y-23763508D02*
X6139229Y-23773031D01*
X6139229Y-23773031D02*
X6148753Y-23792079D01*
X6148753Y-23792079D02*
X6148753Y-23811127D01*
X6148753Y-23811127D02*
X6139229Y-23839698D01*
X6139229Y-23839698D02*
X6024943Y-23953984D01*
X6024943Y-23953984D02*
X6148753Y-23953984D01*
X6272562Y-23753984D02*
X6291610Y-23753984D01*
X6291610Y-23753984D02*
X6310658Y-23763508D01*
X6310658Y-23763508D02*
X6320182Y-23773031D01*
X6320182Y-23773031D02*
X6329705Y-23792079D01*
X6329705Y-23792079D02*
X6339229Y-23830174D01*
X6339229Y-23830174D02*
X6339229Y-23877793D01*
X6339229Y-23877793D02*
X6329705Y-23915888D01*
X6329705Y-23915888D02*
X6320182Y-23934936D01*
X6320182Y-23934936D02*
X6310658Y-23944460D01*
X6310658Y-23944460D02*
X6291610Y-23953984D01*
X6291610Y-23953984D02*
X6272562Y-23953984D01*
X6272562Y-23953984D02*
X6253515Y-23944460D01*
X6253515Y-23944460D02*
X6243991Y-23934936D01*
X6243991Y-23934936D02*
X6234467Y-23915888D01*
X6234467Y-23915888D02*
X6224943Y-23877793D01*
X6224943Y-23877793D02*
X6224943Y-23830174D01*
X6224943Y-23830174D02*
X6234467Y-23792079D01*
X6234467Y-23792079D02*
X6243991Y-23773031D01*
X6243991Y-23773031D02*
X6253515Y-23763508D01*
X6253515Y-23763508D02*
X6272562Y-23753984D01*
X6463039Y-23753984D02*
X6482086Y-23753984D01*
X6482086Y-23753984D02*
X6501134Y-23763508D01*
X6501134Y-23763508D02*
X6510658Y-23773031D01*
X6510658Y-23773031D02*
X6520182Y-23792079D01*
X6520182Y-23792079D02*
X6529705Y-23830174D01*
X6529705Y-23830174D02*
X6529705Y-23877793D01*
X6529705Y-23877793D02*
X6520182Y-23915888D01*
X6520182Y-23915888D02*
X6510658Y-23934936D01*
X6510658Y-23934936D02*
X6501134Y-23944460D01*
X6501134Y-23944460D02*
X6482086Y-23953984D01*
X6482086Y-23953984D02*
X6463039Y-23953984D01*
X6463039Y-23953984D02*
X6443991Y-23944460D01*
X6443991Y-23944460D02*
X6434467Y-23934936D01*
X6434467Y-23934936D02*
X6424943Y-23915888D01*
X6424943Y-23915888D02*
X6415420Y-23877793D01*
X6415420Y-23877793D02*
X6415420Y-23830174D01*
X6415420Y-23830174D02*
X6424943Y-23792079D01*
X6424943Y-23792079D02*
X6434467Y-23773031D01*
X6434467Y-23773031D02*
X6443991Y-23763508D01*
X6443991Y-23763508D02*
X6463039Y-23753984D01*
X6615420Y-23953984D02*
X6615420Y-23820650D01*
X6615420Y-23839698D02*
X6624943Y-23830174D01*
X6624943Y-23830174D02*
X6643991Y-23820650D01*
X6643991Y-23820650D02*
X6672563Y-23820650D01*
X6672563Y-23820650D02*
X6691610Y-23830174D01*
X6691610Y-23830174D02*
X6701134Y-23849222D01*
X6701134Y-23849222D02*
X6701134Y-23953984D01*
X6701134Y-23849222D02*
X6710658Y-23830174D01*
X6710658Y-23830174D02*
X6729705Y-23820650D01*
X6729705Y-23820650D02*
X6758277Y-23820650D01*
X6758277Y-23820650D02*
X6777324Y-23830174D01*
X6777324Y-23830174D02*
X6786848Y-23849222D01*
X6786848Y-23849222D02*
X6786848Y-23953984D01*
X6882086Y-23953984D02*
X6882086Y-23820650D01*
X6882086Y-23839698D02*
X6891610Y-23830174D01*
X6891610Y-23830174D02*
X6910658Y-23820650D01*
X6910658Y-23820650D02*
X6939229Y-23820650D01*
X6939229Y-23820650D02*
X6958277Y-23830174D01*
X6958277Y-23830174D02*
X6967801Y-23849222D01*
X6967801Y-23849222D02*
X6967801Y-23953984D01*
X6967801Y-23849222D02*
X6977324Y-23830174D01*
X6977324Y-23830174D02*
X6996372Y-23820650D01*
X6996372Y-23820650D02*
X7024943Y-23820650D01*
X7024943Y-23820650D02*
X7043991Y-23830174D01*
X7043991Y-23830174D02*
X7053515Y-23849222D01*
X7053515Y-23849222D02*
X7053515Y-23953984D01*
X7443991Y-23744460D02*
X7272563Y-24001603D01*
X7701134Y-23753984D02*
X7720182Y-23753984D01*
X7720182Y-23753984D02*
X7739229Y-23763508D01*
X7739229Y-23763508D02*
X7748753Y-23773031D01*
X7748753Y-23773031D02*
X7758277Y-23792079D01*
X7758277Y-23792079D02*
X7767801Y-23830174D01*
X7767801Y-23830174D02*
X7767801Y-23877793D01*
X7767801Y-23877793D02*
X7758277Y-23915888D01*
X7758277Y-23915888D02*
X7748753Y-23934936D01*
X7748753Y-23934936D02*
X7739229Y-23944460D01*
X7739229Y-23944460D02*
X7720182Y-23953984D01*
X7720182Y-23953984D02*
X7701134Y-23953984D01*
X7701134Y-23953984D02*
X7682086Y-23944460D01*
X7682086Y-23944460D02*
X7672563Y-23934936D01*
X7672563Y-23934936D02*
X7663039Y-23915888D01*
X7663039Y-23915888D02*
X7653515Y-23877793D01*
X7653515Y-23877793D02*
X7653515Y-23830174D01*
X7653515Y-23830174D02*
X7663039Y-23792079D01*
X7663039Y-23792079D02*
X7672563Y-23773031D01*
X7672563Y-23773031D02*
X7682086Y-23763508D01*
X7682086Y-23763508D02*
X7701134Y-23753984D01*
X7853515Y-23934936D02*
X7863039Y-23944460D01*
X7863039Y-23944460D02*
X7853515Y-23953984D01*
X7853515Y-23953984D02*
X7843991Y-23944460D01*
X7843991Y-23944460D02*
X7853515Y-23934936D01*
X7853515Y-23934936D02*
X7853515Y-23953984D01*
X8053515Y-23953984D02*
X7939229Y-23953984D01*
X7996372Y-23953984D02*
X7996372Y-23753984D01*
X7996372Y-23753984D02*
X7977325Y-23782555D01*
X7977325Y-23782555D02*
X7958277Y-23801603D01*
X7958277Y-23801603D02*
X7939229Y-23811127D01*
X8129706Y-23773031D02*
X8139229Y-23763508D01*
X8139229Y-23763508D02*
X8158277Y-23753984D01*
X8158277Y-23753984D02*
X8205896Y-23753984D01*
X8205896Y-23753984D02*
X8224944Y-23763508D01*
X8224944Y-23763508D02*
X8234467Y-23773031D01*
X8234467Y-23773031D02*
X8243991Y-23792079D01*
X8243991Y-23792079D02*
X8243991Y-23811127D01*
X8243991Y-23811127D02*
X8234467Y-23839698D01*
X8234467Y-23839698D02*
X8120182Y-23953984D01*
X8120182Y-23953984D02*
X8243991Y-23953984D01*
X8415420Y-23753984D02*
X8377325Y-23753984D01*
X8377325Y-23753984D02*
X8358277Y-23763508D01*
X8358277Y-23763508D02*
X8348753Y-23773031D01*
X8348753Y-23773031D02*
X8329706Y-23801603D01*
X8329706Y-23801603D02*
X8320182Y-23839698D01*
X8320182Y-23839698D02*
X8320182Y-23915888D01*
X8320182Y-23915888D02*
X8329706Y-23934936D01*
X8329706Y-23934936D02*
X8339229Y-23944460D01*
X8339229Y-23944460D02*
X8358277Y-23953984D01*
X8358277Y-23953984D02*
X8396372Y-23953984D01*
X8396372Y-23953984D02*
X8415420Y-23944460D01*
X8415420Y-23944460D02*
X8424944Y-23934936D01*
X8424944Y-23934936D02*
X8434468Y-23915888D01*
X8434468Y-23915888D02*
X8434468Y-23868269D01*
X8434468Y-23868269D02*
X8424944Y-23849222D01*
X8424944Y-23849222D02*
X8415420Y-23839698D01*
X8415420Y-23839698D02*
X8396372Y-23830174D01*
X8396372Y-23830174D02*
X8358277Y-23830174D01*
X8358277Y-23830174D02*
X8339229Y-23839698D01*
X8339229Y-23839698D02*
X8329706Y-23849222D01*
X8329706Y-23849222D02*
X8320182Y-23868269D01*
X8558277Y-23753984D02*
X8577325Y-23753984D01*
X8577325Y-23753984D02*
X8596372Y-23763508D01*
X8596372Y-23763508D02*
X8605896Y-23773031D01*
X8605896Y-23773031D02*
X8615420Y-23792079D01*
X8615420Y-23792079D02*
X8624944Y-23830174D01*
X8624944Y-23830174D02*
X8624944Y-23877793D01*
X8624944Y-23877793D02*
X8615420Y-23915888D01*
X8615420Y-23915888D02*
X8605896Y-23934936D01*
X8605896Y-23934936D02*
X8596372Y-23944460D01*
X8596372Y-23944460D02*
X8577325Y-23953984D01*
X8577325Y-23953984D02*
X8558277Y-23953984D01*
X8558277Y-23953984D02*
X8539229Y-23944460D01*
X8539229Y-23944460D02*
X8529706Y-23934936D01*
X8529706Y-23934936D02*
X8520182Y-23915888D01*
X8520182Y-23915888D02*
X8510658Y-23877793D01*
X8510658Y-23877793D02*
X8510658Y-23830174D01*
X8510658Y-23830174D02*
X8520182Y-23792079D01*
X8520182Y-23792079D02*
X8529706Y-23773031D01*
X8529706Y-23773031D02*
X8539229Y-23763508D01*
X8539229Y-23763508D02*
X8558277Y-23753984D01*
X8701134Y-23753984D02*
X8701134Y-23792079D01*
X8777325Y-23753984D02*
X8777325Y-23792079D01*
X9072563Y-24030174D02*
X9063039Y-24020650D01*
X9063039Y-24020650D02*
X9043991Y-23992079D01*
X9043991Y-23992079D02*
X9034468Y-23973031D01*
X9034468Y-23973031D02*
X9024944Y-23944460D01*
X9024944Y-23944460D02*
X9015420Y-23896841D01*
X9015420Y-23896841D02*
X9015420Y-23858746D01*
X9015420Y-23858746D02*
X9024944Y-23811127D01*
X9024944Y-23811127D02*
X9034468Y-23782555D01*
X9034468Y-23782555D02*
X9043991Y-23763508D01*
X9043991Y-23763508D02*
X9063039Y-23734936D01*
X9063039Y-23734936D02*
X9072563Y-23725412D01*
X9234468Y-23820650D02*
X9234468Y-23953984D01*
X9186849Y-23744460D02*
X9139230Y-23887317D01*
X9139230Y-23887317D02*
X9263039Y-23887317D01*
X9491611Y-23953984D02*
X9491611Y-23753984D01*
X9577325Y-23953984D02*
X9577325Y-23849222D01*
X9577325Y-23849222D02*
X9567801Y-23830174D01*
X9567801Y-23830174D02*
X9548753Y-23820650D01*
X9548753Y-23820650D02*
X9520182Y-23820650D01*
X9520182Y-23820650D02*
X9501134Y-23830174D01*
X9501134Y-23830174D02*
X9491611Y-23839698D01*
X9701134Y-23953984D02*
X9682087Y-23944460D01*
X9682087Y-23944460D02*
X9672563Y-23934936D01*
X9672563Y-23934936D02*
X9663039Y-23915888D01*
X9663039Y-23915888D02*
X9663039Y-23858746D01*
X9663039Y-23858746D02*
X9672563Y-23839698D01*
X9672563Y-23839698D02*
X9682087Y-23830174D01*
X9682087Y-23830174D02*
X9701134Y-23820650D01*
X9701134Y-23820650D02*
X9729706Y-23820650D01*
X9729706Y-23820650D02*
X9748753Y-23830174D01*
X9748753Y-23830174D02*
X9758277Y-23839698D01*
X9758277Y-23839698D02*
X9767801Y-23858746D01*
X9767801Y-23858746D02*
X9767801Y-23915888D01*
X9767801Y-23915888D02*
X9758277Y-23934936D01*
X9758277Y-23934936D02*
X9748753Y-23944460D01*
X9748753Y-23944460D02*
X9729706Y-23953984D01*
X9729706Y-23953984D02*
X9701134Y-23953984D01*
X9882087Y-23953984D02*
X9863039Y-23944460D01*
X9863039Y-23944460D02*
X9853515Y-23925412D01*
X9853515Y-23925412D02*
X9853515Y-23753984D01*
X10034468Y-23944460D02*
X10015420Y-23953984D01*
X10015420Y-23953984D02*
X9977325Y-23953984D01*
X9977325Y-23953984D02*
X9958277Y-23944460D01*
X9958277Y-23944460D02*
X9948753Y-23925412D01*
X9948753Y-23925412D02*
X9948753Y-23849222D01*
X9948753Y-23849222D02*
X9958277Y-23830174D01*
X9958277Y-23830174D02*
X9977325Y-23820650D01*
X9977325Y-23820650D02*
X10015420Y-23820650D01*
X10015420Y-23820650D02*
X10034468Y-23830174D01*
X10034468Y-23830174D02*
X10043992Y-23849222D01*
X10043992Y-23849222D02*
X10043992Y-23868269D01*
X10043992Y-23868269D02*
X9948753Y-23887317D01*
X10120182Y-23944460D02*
X10139230Y-23953984D01*
X10139230Y-23953984D02*
X10177325Y-23953984D01*
X10177325Y-23953984D02*
X10196373Y-23944460D01*
X10196373Y-23944460D02*
X10205896Y-23925412D01*
X10205896Y-23925412D02*
X10205896Y-23915888D01*
X10205896Y-23915888D02*
X10196373Y-23896841D01*
X10196373Y-23896841D02*
X10177325Y-23887317D01*
X10177325Y-23887317D02*
X10148753Y-23887317D01*
X10148753Y-23887317D02*
X10129706Y-23877793D01*
X10129706Y-23877793D02*
X10120182Y-23858746D01*
X10120182Y-23858746D02*
X10120182Y-23849222D01*
X10120182Y-23849222D02*
X10129706Y-23830174D01*
X10129706Y-23830174D02*
X10148753Y-23820650D01*
X10148753Y-23820650D02*
X10177325Y-23820650D01*
X10177325Y-23820650D02*
X10196373Y-23830174D01*
X10272563Y-24030174D02*
X10282087Y-24020650D01*
X10282087Y-24020650D02*
X10301134Y-23992079D01*
X10301134Y-23992079D02*
X10310658Y-23973031D01*
X10310658Y-23973031D02*
X10320182Y-23944460D01*
X10320182Y-23944460D02*
X10329706Y-23896841D01*
X10329706Y-23896841D02*
X10329706Y-23858746D01*
X10329706Y-23858746D02*
X10320182Y-23811127D01*
X10320182Y-23811127D02*
X10310658Y-23782555D01*
X10310658Y-23782555D02*
X10301134Y-23763508D01*
X10301134Y-23763508D02*
X10282087Y-23734936D01*
X10282087Y-23734936D02*
X10272563Y-23725412D01*
X10634468Y-24030174D02*
X10624944Y-24020650D01*
X10624944Y-24020650D02*
X10605896Y-23992079D01*
X10605896Y-23992079D02*
X10596373Y-23973031D01*
X10596373Y-23973031D02*
X10586849Y-23944460D01*
X10586849Y-23944460D02*
X10577325Y-23896841D01*
X10577325Y-23896841D02*
X10577325Y-23858746D01*
X10577325Y-23858746D02*
X10586849Y-23811127D01*
X10586849Y-23811127D02*
X10596373Y-23782555D01*
X10596373Y-23782555D02*
X10605896Y-23763508D01*
X10605896Y-23763508D02*
X10624944Y-23734936D01*
X10624944Y-23734936D02*
X10634468Y-23725412D01*
X10710658Y-23820650D02*
X10710658Y-23953984D01*
X10710658Y-23839698D02*
X10720182Y-23830174D01*
X10720182Y-23830174D02*
X10739230Y-23820650D01*
X10739230Y-23820650D02*
X10767801Y-23820650D01*
X10767801Y-23820650D02*
X10786849Y-23830174D01*
X10786849Y-23830174D02*
X10796373Y-23849222D01*
X10796373Y-23849222D02*
X10796373Y-23953984D01*
X10920182Y-23953984D02*
X10901134Y-23944460D01*
X10901134Y-23944460D02*
X10891611Y-23934936D01*
X10891611Y-23934936D02*
X10882087Y-23915888D01*
X10882087Y-23915888D02*
X10882087Y-23858746D01*
X10882087Y-23858746D02*
X10891611Y-23839698D01*
X10891611Y-23839698D02*
X10901134Y-23830174D01*
X10901134Y-23830174D02*
X10920182Y-23820650D01*
X10920182Y-23820650D02*
X10948754Y-23820650D01*
X10948754Y-23820650D02*
X10967801Y-23830174D01*
X10967801Y-23830174D02*
X10977325Y-23839698D01*
X10977325Y-23839698D02*
X10986849Y-23858746D01*
X10986849Y-23858746D02*
X10986849Y-23915888D01*
X10986849Y-23915888D02*
X10977325Y-23934936D01*
X10977325Y-23934936D02*
X10967801Y-23944460D01*
X10967801Y-23944460D02*
X10948754Y-23953984D01*
X10948754Y-23953984D02*
X10920182Y-23953984D01*
X11043992Y-23820650D02*
X11120182Y-23820650D01*
X11072563Y-23753984D02*
X11072563Y-23925412D01*
X11072563Y-23925412D02*
X11082087Y-23944460D01*
X11082087Y-23944460D02*
X11101134Y-23953984D01*
X11101134Y-23953984D02*
X11120182Y-23953984D01*
X11339230Y-23820650D02*
X11339230Y-24020650D01*
X11339230Y-23830174D02*
X11358277Y-23820650D01*
X11358277Y-23820650D02*
X11396373Y-23820650D01*
X11396373Y-23820650D02*
X11415420Y-23830174D01*
X11415420Y-23830174D02*
X11424944Y-23839698D01*
X11424944Y-23839698D02*
X11434468Y-23858746D01*
X11434468Y-23858746D02*
X11434468Y-23915888D01*
X11434468Y-23915888D02*
X11424944Y-23934936D01*
X11424944Y-23934936D02*
X11415420Y-23944460D01*
X11415420Y-23944460D02*
X11396373Y-23953984D01*
X11396373Y-23953984D02*
X11358277Y-23953984D01*
X11358277Y-23953984D02*
X11339230Y-23944460D01*
X11548753Y-23953984D02*
X11529706Y-23944460D01*
X11529706Y-23944460D02*
X11520182Y-23925412D01*
X11520182Y-23925412D02*
X11520182Y-23753984D01*
X11710658Y-23953984D02*
X11710658Y-23849222D01*
X11710658Y-23849222D02*
X11701134Y-23830174D01*
X11701134Y-23830174D02*
X11682087Y-23820650D01*
X11682087Y-23820650D02*
X11643992Y-23820650D01*
X11643992Y-23820650D02*
X11624944Y-23830174D01*
X11710658Y-23944460D02*
X11691611Y-23953984D01*
X11691611Y-23953984D02*
X11643992Y-23953984D01*
X11643992Y-23953984D02*
X11624944Y-23944460D01*
X11624944Y-23944460D02*
X11615420Y-23925412D01*
X11615420Y-23925412D02*
X11615420Y-23906365D01*
X11615420Y-23906365D02*
X11624944Y-23887317D01*
X11624944Y-23887317D02*
X11643992Y-23877793D01*
X11643992Y-23877793D02*
X11691611Y-23877793D01*
X11691611Y-23877793D02*
X11710658Y-23868269D01*
X11777325Y-23820650D02*
X11853515Y-23820650D01*
X11805896Y-23753984D02*
X11805896Y-23925412D01*
X11805896Y-23925412D02*
X11815420Y-23944460D01*
X11815420Y-23944460D02*
X11834468Y-23953984D01*
X11834468Y-23953984D02*
X11853515Y-23953984D01*
X11996373Y-23944460D02*
X11977325Y-23953984D01*
X11977325Y-23953984D02*
X11939230Y-23953984D01*
X11939230Y-23953984D02*
X11920182Y-23944460D01*
X11920182Y-23944460D02*
X11910658Y-23925412D01*
X11910658Y-23925412D02*
X11910658Y-23849222D01*
X11910658Y-23849222D02*
X11920182Y-23830174D01*
X11920182Y-23830174D02*
X11939230Y-23820650D01*
X11939230Y-23820650D02*
X11977325Y-23820650D01*
X11977325Y-23820650D02*
X11996373Y-23830174D01*
X11996373Y-23830174D02*
X12005896Y-23849222D01*
X12005896Y-23849222D02*
X12005896Y-23868269D01*
X12005896Y-23868269D02*
X11910658Y-23887317D01*
X12177325Y-23953984D02*
X12177325Y-23753984D01*
X12177325Y-23944460D02*
X12158277Y-23953984D01*
X12158277Y-23953984D02*
X12120182Y-23953984D01*
X12120182Y-23953984D02*
X12101134Y-23944460D01*
X12101134Y-23944460D02*
X12091611Y-23934936D01*
X12091611Y-23934936D02*
X12082087Y-23915888D01*
X12082087Y-23915888D02*
X12082087Y-23858746D01*
X12082087Y-23858746D02*
X12091611Y-23839698D01*
X12091611Y-23839698D02*
X12101134Y-23830174D01*
X12101134Y-23830174D02*
X12120182Y-23820650D01*
X12120182Y-23820650D02*
X12158277Y-23820650D01*
X12158277Y-23820650D02*
X12177325Y-23830174D01*
X12253515Y-24030174D02*
X12263039Y-24020650D01*
X12263039Y-24020650D02*
X12282087Y-23992079D01*
X12282087Y-23992079D02*
X12291611Y-23973031D01*
X12291611Y-23973031D02*
X12301134Y-23944460D01*
X12301134Y-23944460D02*
X12310658Y-23896841D01*
X12310658Y-23896841D02*
X12310658Y-23858746D01*
X12310658Y-23858746D02*
X12301134Y-23811127D01*
X12301134Y-23811127D02*
X12291611Y-23782555D01*
X12291611Y-23782555D02*
X12282087Y-23763508D01*
X12282087Y-23763508D02*
X12263039Y-23734936D01*
X12263039Y-23734936D02*
X12253515Y-23725412D01*
M02*
