M48
; DRILL file KiCad 10.0.1 date 2026-07-13T12:29:03
; FORMAT={-:-/ absolute / metric / decimal}
; #@! TF.CreationDate,2026-07-13T12:29:03+01:00
; #@! TF.GenerationSoftware,Kicad,Pcbnew,10.0.1
; #@! TF.FileFunction,Plated,1,2,PTH
FMAT,2
METRIC
; #@! TA.AperFunction,Plated,PTH,ViaDrill
T1C0.300
; #@! TA.AperFunction,Plated,PTH,ComponentDrill
T2C0.700
; #@! TA.AperFunction,Plated,PTH,ComponentDrill
T3C0.800
; #@! TA.AperFunction,Plated,PTH,ComponentDrill
T4C0.889
; #@! TA.AperFunction,Plated,PTH,ComponentDrill
T5C1.000
; #@! TA.AperFunction,Plated,PTH,ComponentDrill
T6C1.016
; #@! TA.AperFunction,Plated,PTH,ComponentDrill
T7C3.000
%
G90
G05
T1
X84.0Y-129.0
X93.0Y-155.0
X95.0Y-198.0
X96.0Y-188.0
X98.0Y-117.0
X98.0Y-125.0
X113.0Y-129.0
X113.0Y-134.0
X114.0Y-111.0
X117.0Y-132.0
X121.0Y-125.0
X123.0Y-96.0
X123.0Y-102.0
X125.0Y-125.0
X136.0Y-120.0
X138.0Y-130.0
X140.0Y-108.0
X140.0Y-129.0
X145.0Y-111.0
X149.0Y-108.0
X157.5Y-117.5
X163.0Y-112.0
X163.0Y-148.0
X185.0Y-145.0
T2
X71.0Y-219.0
X73.0Y-186.0
X101.0Y-201.0
X101.0Y-221.0
X115.0Y-103.0
X115.0Y-120.0
X115.0Y-201.0
X117.0Y-139.0
X119.0Y-98.0
X121.0Y-107.0
T3
X103.19Y-208.0
X103.5Y-217.0
X108.5Y-217.0
X110.81Y-208.0
X111.5Y-217.0
X115.0Y-149.0
X115.0Y-155.0
X115.19Y-127.0
X116.5Y-217.0
X119.5Y-217.0
X120.0Y-149.0
X120.0Y-155.0
X122.81Y-127.0
X124.5Y-217.0
T4
X80.46Y-206.0
X80.46Y-208.54
X80.46Y-211.08
X80.46Y-213.62
X80.46Y-216.16
X80.46Y-218.7
X80.46Y-221.24
X95.7Y-206.0
X95.7Y-208.54
X95.7Y-211.08
X95.7Y-213.62
X95.7Y-216.16
X95.7Y-218.7
X95.7Y-221.24
T5
X82.0Y-152.0
X103.0Y-186.0
X110.0Y-186.0
X132.775Y-94.825
X132.775Y-97.365
X132.775Y-122.765
X132.775Y-125.305
X132.775Y-127.845
X132.775Y-130.385
X132.775Y-132.925
X132.775Y-135.465
X132.775Y-138.005
X132.775Y-140.545
X132.775Y-143.085
X132.775Y-145.625
X132.775Y-148.165
X132.775Y-150.705
X132.775Y-153.245
X132.775Y-155.785
X132.775Y-158.325
X132.775Y-160.865
X132.775Y-163.405
X132.775Y-165.945
X132.775Y-168.485
X132.775Y-171.025
X132.775Y-173.565
X132.775Y-176.105
X132.775Y-178.645
X132.775Y-181.185
X132.775Y-183.725
X132.775Y-186.265
X132.775Y-188.805
X132.775Y-191.345
X132.775Y-193.885
X132.775Y-196.425
X132.775Y-198.965
X132.775Y-201.505
X132.775Y-204.045
X132.775Y-206.585
X132.775Y-209.125
X132.775Y-211.665
X135.315Y-122.765
X135.315Y-125.305
X135.315Y-127.845
X135.315Y-130.385
X135.315Y-132.925
X135.315Y-135.465
X135.315Y-138.005
X135.315Y-140.545
X135.315Y-143.085
X135.315Y-145.625
X135.315Y-148.165
X135.315Y-150.705
X135.315Y-153.245
X135.315Y-155.785
X135.315Y-158.325
X135.315Y-160.865
X135.315Y-163.405
X135.315Y-165.945
X135.315Y-168.485
X135.315Y-171.025
X135.315Y-173.565
X135.315Y-176.105
X135.315Y-178.645
X135.315Y-181.185
X135.315Y-183.725
X135.315Y-186.265
X135.315Y-188.805
X135.315Y-191.345
X135.315Y-193.885
X135.315Y-196.425
X135.315Y-198.965
X135.315Y-201.505
X135.315Y-204.045
X135.315Y-206.585
X135.315Y-209.125
X135.315Y-211.665
X193.735Y-122.765
X193.735Y-125.305
X193.735Y-127.845
X193.735Y-130.385
X193.735Y-132.925
X193.735Y-135.465
X193.735Y-138.005
X193.735Y-140.545
X193.735Y-143.085
X193.735Y-145.625
X193.735Y-148.165
X193.735Y-150.705
X193.735Y-153.245
X193.735Y-155.785
X193.735Y-158.325
X193.735Y-160.865
X193.735Y-163.405
X193.735Y-165.945
X193.735Y-168.485
X193.735Y-171.025
X193.735Y-173.565
X193.735Y-176.105
X193.735Y-178.645
X193.735Y-181.185
X193.735Y-183.725
X193.735Y-186.265
X193.735Y-188.805
X193.735Y-191.345
X193.735Y-193.885
X193.735Y-196.425
X193.735Y-198.965
X193.735Y-201.505
X193.735Y-204.045
X193.735Y-206.585
X193.735Y-209.125
X193.735Y-211.665
X196.275Y-94.825
X196.275Y-97.365
X196.275Y-122.765
X196.275Y-125.305
X196.275Y-127.845
X196.275Y-130.385
X196.275Y-132.925
X196.275Y-135.465
X196.275Y-138.005
X196.275Y-140.545
X196.275Y-143.085
X196.275Y-145.625
X196.275Y-148.165
X196.275Y-150.705
X196.275Y-153.245
X196.275Y-155.785
X196.275Y-158.325
X196.275Y-160.865
X196.275Y-163.405
X196.275Y-165.945
X196.275Y-168.485
X196.275Y-171.025
X196.275Y-173.565
X196.275Y-176.105
X196.275Y-178.645
X196.275Y-181.185
X196.275Y-183.725
X196.275Y-186.265
X196.275Y-188.805
X196.275Y-191.345
X196.275Y-193.885
X196.275Y-196.425
X196.275Y-198.965
X196.275Y-201.505
X196.275Y-204.045
X196.275Y-206.585
X196.275Y-209.125
X196.275Y-211.665
T6
X79.76Y-130.02
X79.76Y-132.56
X107.0Y-99.0
X107.0Y-101.54
X107.0Y-104.08
X107.0Y-106.62
X107.0Y-109.16
X107.0Y-111.7
X107.0Y-114.24
X107.0Y-116.78
X107.0Y-119.32
X107.0Y-121.86
X107.0Y-124.4
X107.0Y-126.94
X107.0Y-129.48
X109.54Y-99.0
X109.54Y-101.54
X109.54Y-104.08
X109.54Y-106.62
X109.54Y-109.16
X109.54Y-111.7
X109.54Y-114.24
X109.54Y-116.78
X109.54Y-119.32
X109.54Y-121.86
X109.54Y-124.4
X109.54Y-126.94
X109.54Y-129.48
T7
X72.4Y-136.49
X107.9Y-90.49
X107.9Y-136.49
M30
